{"glyphs":{"0":{"ha":900,"x_min":83,"x_max":817,"o":"m 450 -17 q 177 108 271 -17 q 83 465 83 232 q 177 821 83 697 q 450 944 271 944 q 723 821 629 944 q 817 465 817 697 q 723 108 817 232 q 450 -17 629 -17 m 667 264 q 690 465 690 347 q 631 744 690 647 q 450 842 572 842 q 301 786 360 842 l 667 264 m 450 86 q 604 149 546 86 l 238 675 q 217 579 224 632 q 210 465 210 526 q 269 185 210 283 q 450 86 328 86 z "},"1":{"ha":558,"x_min":58,"x_max":422,"o":"m 306 0 l 306 700 l 58 700 l 58 793 q 183 803 125 793 q 283 842 240 813 q 344 928 325 871 l 422 928 l 422 0 l 306 0 z "},"2":{"ha":763,"x_min":47,"x_max":715,"o":"m 47 0 l 47 104 q 327 326 211 225 q 505 516 443 428 q 567 686 567 604 q 521 803 567 758 q 393 847 475 847 q 272 812 328 847 q 199 692 215 776 l 82 725 q 190 885 107 826 q 396 944 274 944 q 548 916 482 944 q 652 833 614 888 q 690 701 690 779 q 651 544 690 621 q 544 394 613 467 q 389 249 476 321 q 204 107 301 178 l 715 107 l 715 0 l 47 0 z "},"3":{"ha":797,"x_min":58,"x_max":714,"o":"m 378 -17 q 219 14 285 -17 q 114 96 153 44 q 58 210 75 147 l 174 243 q 240 126 189 171 q 379 81 290 81 q 530 127 471 81 q 589 260 589 174 q 567 347 589 313 q 510 399 544 381 q 435 425 475 417 q 360 435 396 433 q 303 436 325 436 l 303 542 q 387 546 342 542 q 473 565 432 550 q 540 610 514 579 q 565 696 565 642 q 512 809 565 771 q 385 847 458 847 q 250 804 300 847 q 186 692 200 761 l 72 725 q 178 884 97 824 q 388 944 260 944 q 536 922 468 944 q 646 847 604 899 q 688 708 688 794 q 649 581 688 638 q 536 493 610 524 q 677 398 640 461 q 714 261 714 335 q 667 106 714 168 q 543 14 619 44 q 378 -17 467 -17 z "},"4":{"ha":853,"x_min":53,"x_max":800,"o":"m 514 0 l 514 229 l 53 229 l 53 339 l 513 928 l 631 928 l 631 339 l 800 339 l 800 229 l 631 229 l 631 0 l 514 0 m 179 339 l 514 339 l 514 768 l 179 339 z "},"5":{"ha":810,"x_min":75,"x_max":724,"o":"m 394 -17 q 236 14 301 -17 q 132 96 171 44 q 75 210 93 147 l 189 243 q 255 124 206 167 q 394 81 304 81 q 497 107 450 81 q 573 183 544 133 q 601 304 601 233 q 570 431 601 382 q 491 502 539 479 q 393 525 443 525 q 275 491 321 525 q 214 422 229 457 l 100 456 l 157 928 l 689 928 l 689 815 l 251 815 l 219 556 q 309 608 256 592 q 419 625 363 625 q 570 588 501 625 q 681 479 639 550 q 724 306 724 408 q 677 128 724 200 q 556 19 631 56 q 394 -17 481 -17 z "},"6":{"ha":831,"x_min":83,"x_max":747,"o":"m 421 -17 q 165 100 247 -17 q 83 431 83 217 q 102 621 83 529 q 163 785 121 713 q 275 901 206 858 q 446 944 344 944 q 613 901 549 944 q 707 796 676 858 l 589 761 q 528 824 568 801 q 432 847 488 847 q 266 749 324 847 q 204 489 208 650 q 296 581 236 543 q 449 618 356 618 q 602 578 535 618 q 708 467 669 538 q 747 303 747 396 q 707 144 747 217 q 594 27 667 71 q 421 -17 521 -17 m 421 82 q 567 142 513 82 q 622 299 622 203 q 567 455 622 394 q 421 515 513 515 q 273 455 328 515 q 218 299 218 394 q 273 142 218 203 q 421 82 328 82 z "},"7":{"ha":708,"x_min":21,"x_max":661,"o":"m 129 0 l 532 815 l 21 815 l 21 928 l 661 928 l 661 815 l 275 0 l 129 0 z "},"8":{"ha":854,"x_min":83,"x_max":771,"o":"m 426 -17 q 253 16 331 -17 q 129 110 175 49 q 83 261 83 172 q 131 415 83 351 q 254 508 178 478 q 197 590 218 543 q 175 693 175 638 q 209 819 175 763 q 300 910 243 876 q 426 944 357 944 q 554 910 497 944 q 645 819 611 876 q 679 693 679 763 q 658 590 679 638 q 600 508 636 543 q 724 415 678 478 q 771 261 771 351 q 725 110 771 172 q 601 16 679 49 q 426 -17 524 -17 m 426 543 q 531 587 488 543 q 575 694 575 631 q 531 799 575 756 q 426 842 488 842 q 322 799 365 842 q 278 694 278 756 q 322 587 278 631 q 426 543 365 543 m 426 86 q 585 133 526 86 q 644 261 644 181 q 585 392 644 343 q 426 440 526 440 q 269 392 328 440 q 210 261 210 343 q 269 133 210 181 q 426 86 328 86 z "},"9":{"ha":831,"x_min":83,"x_max":747,"o":"m 296 0 q 315 26 296 0 q 363 96 333 53 q 426 190 393 139 q 489 288 460 240 q 415 279 454 279 q 249 324 325 279 q 128 445 174 369 q 83 613 83 521 q 128 779 83 704 q 248 899 172 854 q 415 943 324 943 q 586 898 511 943 q 704 777 661 853 q 747 610 747 701 q 722 483 747 546 q 690 419 715 467 q 627 303 665 371 q 541 156 589 235 q 440 0 493 78 l 296 0 m 415 399 q 524 428 475 399 q 601 506 572 457 q 631 613 631 554 q 601 719 631 671 q 524 797 572 768 q 415 825 475 825 q 308 797 357 825 q 231 719 260 768 q 203 613 203 671 q 231 506 203 554 q 308 428 260 457 q 415 399 357 399 z "},"\r":{"ha":0,"x_min":0,"x_max":0,"o":""}," ":{"ha":389,"x_min":0,"x_max":0,"o":""}," ":{"ha":389,"x_min":0,"x_max":0,"o":""},"A":{"ha":869,"x_min":14,"x_max":856,"o":"m 14 0 l 363 929 l 508 929 l 856 0 l 717 0 l 646 203 l 224 203 l 153 0 l 14 0 m 264 315 l 606 315 l 435 797 l 264 315 z "},"B":{"ha":860,"x_min":106,"x_max":807,"o":"m 106 0 l 106 928 l 479 928 q 644 894 581 928 q 737 809 707 861 q 767 697 767 757 q 742 588 767 642 q 669 493 717 533 q 773 395 739 457 q 807 267 807 333 q 773 139 807 200 q 671 39 739 78 q 501 0 603 0 l 106 0 m 236 531 l 493 531 q 599 575 564 531 q 635 672 635 619 q 619 742 635 708 q 572 797 603 775 q 493 818 540 818 l 236 818 l 236 531 m 236 110 l 515 110 q 601 133 567 110 q 654 194 636 157 q 672 271 672 231 q 655 347 672 311 q 602 405 638 382 q 514 428 567 428 l 236 428 l 236 110 z "},"C":{"ha":911,"x_min":69,"x_max":858,"o":"m 490 -17 q 264 45 358 -17 q 119 215 169 107 q 69 465 69 324 q 123 717 69 610 q 274 885 176 825 q 501 944 371 944 q 712 890 618 944 q 853 735 806 836 l 739 693 q 647 795 708 756 q 494 835 585 835 q 347 793 413 835 q 242 669 281 751 q 203 465 203 586 q 240 265 203 349 q 345 138 278 182 q 499 93 413 93 q 651 132 589 93 q 744 235 713 171 l 858 193 q 711 37 808 90 q 490 -17 614 -17 z "},"D":{"ha":935,"x_min":106,"x_max":865,"o":"m 106 0 l 106 928 l 358 928 q 562 905 469 928 q 722 829 654 882 q 828 687 790 776 q 865 465 865 597 q 828 242 865 332 q 722 99 790 153 q 562 23 654 46 q 358 0 469 0 l 106 0 m 236 110 l 356 110 q 495 122 428 110 q 616 169 563 133 q 701 276 669 204 q 732 465 732 347 q 701 653 732 583 q 616 759 669 724 q 495 806 563 794 q 356 818 428 818 l 236 818 l 236 110 z "},"E":{"ha":788,"x_min":106,"x_max":735,"o":"m 106 0 l 106 928 l 735 928 l 735 815 l 236 815 l 236 533 l 604 533 l 604 421 l 236 421 l 236 113 l 735 113 l 735 0 l 106 0 z "},"F":{"ha":761,"x_min":106,"x_max":708,"o":"m 106 0 l 106 928 l 708 928 l 708 815 l 236 815 l 236 533 l 708 533 l 708 421 l 236 421 l 236 0 l 106 0 z "},"G":{"ha":986,"x_min":69,"x_max":892,"o":"m 489 -17 q 262 45 356 -17 q 119 215 168 107 q 69 465 69 324 q 123 717 69 610 q 274 885 176 825 q 501 944 371 944 q 712 890 618 944 q 854 735 806 836 l 739 693 q 647 795 708 756 q 494 835 585 835 q 347 793 413 835 q 242 669 281 751 q 203 465 203 586 q 240 265 203 349 q 342 138 276 182 q 494 93 408 93 q 589 104 540 93 q 678 142 638 115 q 743 217 718 169 q 768 336 768 264 l 768 367 l 497 367 l 497 479 l 892 479 l 892 0 l 817 0 l 782 117 q 660 15 738 46 q 489 -17 583 -17 z "},"H":{"ha":958,"x_min":106,"x_max":853,"o":"m 106 0 l 106 928 l 236 928 l 236 533 l 722 533 l 722 928 l 853 928 l 853 0 l 722 0 l 722 421 l 236 421 l 236 0 l 106 0 z "},"I":{"ha":575,"x_min":92,"x_max":483,"o":"m 92 0 l 92 103 l 222 103 l 222 825 l 92 825 l 92 928 l 483 928 l 483 825 l 353 825 l 353 103 l 483 103 l 483 0 l 92 0 z "},"J":{"ha":708,"x_min":21,"x_max":603,"o":"m 311 -17 q 104 53 181 -17 q 21 263 28 124 l 142 297 q 190 141 139 192 q 311 90 242 90 q 386 107 349 90 q 448 168 424 124 q 472 296 472 213 l 472 928 l 603 928 l 603 294 q 525 63 603 143 q 311 -17 447 -17 z "},"K":{"ha":871,"x_min":106,"x_max":857,"o":"m 106 0 l 106 928 l 236 928 l 236 461 l 654 928 l 817 928 l 463 540 l 857 0 l 697 0 l 375 444 l 236 292 l 236 0 l 106 0 z "},"L":{"ha":749,"x_min":106,"x_max":735,"o":"m 106 0 l 106 928 l 236 928 l 236 113 l 735 113 l 735 0 l 106 0 z "},"M":{"ha":1139,"x_min":106,"x_max":1033,"o":"m 106 0 l 106 928 l 322 928 l 569 169 l 817 928 l 1033 928 l 1033 0 l 903 0 l 903 792 l 635 0 l 506 0 l 236 792 l 236 0 l 106 0 z "},"N":{"ha":957,"x_min":106,"x_max":851,"o":"m 106 0 l 106 928 l 299 928 l 721 139 l 721 928 l 851 928 l 851 0 l 660 0 l 236 793 l 236 0 l 106 0 z "},"O":{"ha":1010,"x_min":69,"x_max":940,"o":"m 504 -17 q 274 45 371 -17 q 123 216 176 107 q 69 465 69 325 q 123 713 69 606 q 274 883 176 821 q 504 944 371 944 q 736 883 639 944 q 887 713 833 821 q 940 465 940 606 q 887 216 940 325 q 736 45 833 107 q 504 -17 639 -17 m 504 93 q 658 136 589 93 q 767 262 726 179 q 807 465 807 344 q 767 667 807 585 q 658 792 726 750 q 504 835 589 835 q 352 792 421 835 q 243 667 283 750 q 203 465 203 585 q 243 262 203 344 q 352 136 283 179 q 504 93 421 93 z "},"P":{"ha":835,"x_min":106,"x_max":782,"o":"m 106 1 l 106 928 l 396 928 q 597 906 510 928 q 733 823 683 883 q 782 647 782 763 q 733 473 782 533 q 597 391 683 413 q 396 369 510 369 l 236 369 l 236 1 l 106 1 m 236 482 l 407 482 q 529 492 475 482 q 616 537 583 501 q 649 647 649 572 q 616 760 649 724 q 529 807 583 796 q 407 818 475 818 l 236 818 l 236 482 z "},"Q":{"ha":1046,"x_min":69,"x_max":1046,"o":"m 957 -61 l 794 90 q 667 11 740 39 q 504 -17 593 -17 q 274 45 371 -17 q 123 216 176 107 q 69 465 69 325 q 123 713 69 606 q 274 883 176 821 q 504 944 371 944 q 736 883 639 944 q 887 713 833 821 q 940 465 940 606 q 924 319 940 388 q 875 193 907 250 l 1046 33 l 957 -61 m 504 93 q 706 175 626 93 l 457 408 l 546 503 l 776 286 q 799 369 792 324 q 807 465 807 414 q 767 667 807 585 q 658 792 726 750 q 504 835 589 835 q 352 792 421 835 q 243 667 283 750 q 203 465 203 585 q 243 262 203 344 q 352 136 283 179 q 504 93 421 93 z "},"R":{"ha":858,"x_min":106,"x_max":817,"o":"m 106 0 l 106 928 l 400 928 q 601 908 514 928 q 737 830 688 888 q 786 661 786 772 q 767 544 786 599 q 692 453 747 490 q 529 400 638 415 l 817 0 l 657 0 l 375 390 l 236 390 l 236 0 l 106 0 m 236 500 l 410 500 q 533 510 478 500 q 620 553 588 519 q 653 658 653 588 q 620 764 653 731 q 533 808 588 797 q 410 818 478 818 l 236 818 l 236 500 z "},"S":{"ha":828,"x_min":56,"x_max":772,"o":"m 411 -17 q 263 7 335 -17 q 135 79 190 31 q 56 203 81 128 l 176 239 q 231 156 193 189 q 317 108 268 124 q 417 93 367 93 q 522 111 472 93 q 603 166 572 129 q 635 258 635 203 q 593 349 635 315 q 449 408 551 382 l 331 435 q 205 479 267 451 q 103 558 143 507 q 64 696 64 610 q 113 831 64 775 q 241 915 163 886 q 404 944 319 944 q 533 926 469 944 q 647 869 596 907 q 726 771 697 831 l 607 736 q 522 810 581 785 q 399 835 463 835 q 303 819 349 835 q 228 771 257 803 q 199 690 199 739 q 226 617 199 644 q 298 573 253 589 q 397 544 343 557 l 499 522 q 632 476 569 506 q 733 394 694 447 q 772 253 772 342 q 742 138 772 189 q 660 53 711 88 q 544 1 608 19 q 411 -17 479 -17 z "},"T":{"ha":775,"x_min":14,"x_max":761,"o":"m 322 0 l 322 815 l 14 815 l 14 928 l 761 928 l 761 815 l 453 815 l 453 0 l 322 0 z "},"U":{"ha":958,"x_min":106,"x_max":853,"o":"m 479 -17 q 192 84 278 -17 q 106 388 106 185 l 106 928 l 236 928 l 236 378 q 291 168 236 240 q 479 96 346 96 q 667 168 613 96 q 722 378 722 240 l 722 928 l 853 928 l 853 388 q 767 84 853 185 q 479 -17 682 -17 z "},"V":{"ha":818,"x_min":14,"x_max":804,"o":"m 332 0 l 14 928 l 157 928 l 408 153 l 661 928 l 804 928 l 485 0 l 332 0 z "},"W":{"ha":1167,"x_min":14,"x_max":1153,"o":"m 247 0 l 14 928 l 157 928 l 338 161 l 507 928 l 660 928 l 829 161 l 1010 928 l 1153 928 l 921 0 l 763 0 l 583 767 l 404 0 l 247 0 z "},"X":{"ha":865,"x_min":14,"x_max":851,"o":"m 14 0 l 354 478 l 33 928 l 189 928 l 432 588 l 675 928 l 832 928 l 511 478 l 851 0 l 694 0 l 432 368 l 171 0 l 14 0 z "},"Y":{"ha":826,"x_min":14,"x_max":813,"o":"m 349 0 l 349 360 l 14 928 l 157 928 l 414 479 l 669 928 l 813 928 l 479 360 l 479 0 l 349 0 z "},"Z":{"ha":843,"x_min":61,"x_max":782,"o":"m 61 0 l 61 113 l 608 815 l 82 815 l 82 928 l 761 928 l 761 815 l 217 113 l 782 113 l 782 0 l 61 0 z "},"a":{"ha":731,"x_min":53,"x_max":660,"o":"m 290 -17 q 171 7 225 -17 q 85 75 117 31 q 53 182 53 119 q 110 311 53 264 q 273 384 168 358 q 518 425 378 410 q 483 560 521 513 q 363 607 446 607 q 260 578 300 607 q 210 500 221 550 l 97 533 q 197 656 125 613 q 361 700 268 700 q 570 633 504 700 q 636 421 636 565 l 636 260 q 643 111 636 174 q 660 0 650 49 l 553 0 l 525 94 q 438 13 494 43 q 290 -17 381 -17 m 315 76 q 418 96 369 76 q 497 162 467 115 q 528 289 528 208 l 528 332 q 344 305 422 321 q 224 260 267 289 q 182 185 182 232 q 217 106 182 136 q 315 76 253 76 z "},"b":{"ha":786,"x_min":97,"x_max":733,"o":"m 438 -17 q 301 16 357 -17 q 214 104 246 49 l 183 0 l 97 0 l 97 928 l 214 928 l 214 581 q 301 667 246 635 q 438 700 357 700 q 584 658 517 700 q 692 535 651 615 q 733 342 733 456 q 692 148 733 228 q 584 26 651 68 q 438 -17 517 -17 m 407 83 q 549 151 496 83 q 603 342 603 219 q 549 533 603 465 q 407 600 496 600 q 265 533 318 600 q 211 342 211 465 q 265 151 211 219 q 407 83 318 83 z "},"c":{"ha":694,"x_min":53,"x_max":649,"o":"m 374 -17 q 203 30 275 -17 q 92 157 131 76 q 53 342 53 238 q 94 526 53 444 q 210 653 135 607 q 386 700 285 700 q 546 654 479 700 q 646 544 613 608 l 539 506 q 474 572 517 547 q 378 597 431 597 q 281 570 326 597 q 207 487 235 543 q 179 343 179 431 q 208 199 179 257 q 281 114 236 142 q 378 86 326 86 q 477 112 435 86 q 542 176 519 138 l 649 138 q 538 27 610 71 q 374 -17 465 -17 z "},"d":{"ha":783,"x_min":53,"x_max":713,"o":"m 349 -17 q 203 26 271 -17 q 94 148 135 68 q 53 342 53 228 q 94 535 53 456 q 203 658 135 615 q 349 700 271 700 q 486 667 431 700 q 572 581 542 635 l 572 928 l 689 928 l 689 260 q 692 158 689 225 q 713 0 694 90 l 603 0 l 572 104 q 486 16 542 49 q 349 -17 431 -17 m 379 83 q 522 151 468 83 q 575 342 575 219 q 522 533 575 465 q 379 600 468 600 q 237 533 290 600 q 183 342 183 465 q 237 151 183 219 q 379 83 290 83 z "},"e":{"ha":749,"x_min":53,"x_max":714,"o":"m 390 -17 q 207 31 282 -17 q 92 160 132 79 q 53 343 53 242 q 97 533 53 453 q 217 656 142 613 q 388 700 293 700 q 532 667 469 700 q 635 580 594 635 q 695 456 676 525 q 708 313 714 386 l 178 313 q 216 176 181 226 q 300 106 251 126 q 390 86 349 86 q 488 105 449 86 q 551 154 528 124 l 664 121 q 557 22 626 61 q 390 -17 488 -17 m 179 406 l 585 406 q 560 499 585 454 q 492 572 536 543 q 388 600 449 600 q 290 581 336 600 q 215 518 244 561 q 179 406 185 475 z "},"f":{"ha":432,"x_min":21,"x_max":397,"o":"m 138 0 l 138 596 l 21 596 l 21 689 l 138 689 l 138 792 q 151 904 138 863 q 206 963 165 946 q 322 981 246 981 l 397 981 l 397 882 l 325 882 q 267 864 281 882 q 254 793 254 846 l 254 689 l 397 689 l 397 596 l 254 596 l 254 0 l 138 0 z "},"g":{"ha":778,"x_min":53,"x_max":681,"o":"m 381 -267 q 270 -251 325 -267 q 173 -199 215 -235 q 113 -106 131 -162 l 229 -74 q 293 -146 249 -128 q 381 -164 338 -164 q 526 -112 488 -164 q 564 39 564 -61 l 564 131 q 479 44 532 76 q 344 13 426 13 q 201 52 268 13 q 94 169 135 92 q 53 356 53 246 q 94 543 53 467 q 201 660 135 619 q 344 700 268 700 q 479 667 426 700 q 564 581 532 635 l 596 689 l 681 689 l 681 65 q 615 -183 681 -99 q 381 -267 549 -267 m 374 110 q 470 135 426 110 q 541 214 514 160 q 568 356 568 268 q 541 497 568 443 q 470 576 514 551 q 374 600 426 600 q 234 537 289 600 q 179 356 179 474 q 234 174 179 238 q 374 110 289 110 z "},"h":{"ha":758,"x_min":97,"x_max":664,"o":"m 97 0 l 97 928 l 214 928 l 214 585 q 296 667 243 633 q 436 700 349 700 q 613 627 561 700 q 664 436 664 554 l 664 0 l 547 0 l 547 401 q 538 499 547 454 q 495 572 528 544 q 396 600 463 600 q 263 542 311 600 q 214 374 214 485 l 214 0 l 97 0 z "},"i":{"ha":386,"x_min":63,"x_max":304,"o":"m 217 819 q 156 845 182 819 q 131 907 131 871 q 156 968 131 943 q 217 993 182 993 q 278 968 253 993 q 304 907 304 943 q 278 845 304 871 q 217 819 253 819 m 158 0 l 158 596 l 63 596 l 63 689 l 275 689 l 275 0 l 158 0 z "},"j":{"ha":353,"x_min":-81,"x_max":269,"o":"m 183 819 q 122 845 147 819 q 96 907 96 871 q 122 968 96 943 q 183 993 147 993 q 244 968 219 993 q 269 907 269 943 q 244 845 269 871 q 183 819 219 819 m -4 -224 l -81 -221 l -81 -119 l -15 -121 q 74 -110 43 -121 q 115 -71 104 -100 q 125 17 125 -42 l 125 689 l 242 689 l 242 10 q 220 -130 242 -79 q 145 -202 199 -181 q -4 -224 92 -224 z "},"k":{"ha":681,"x_min":97,"x_max":667,"o":"m 97 0 l 97 928 l 214 928 l 214 379 l 492 689 l 632 689 l 372 404 l 667 0 l 524 0 l 294 318 l 214 231 l 214 0 l 97 0 z "},"l":{"ha":332,"x_min":97,"x_max":311,"o":"m 260 0 q 159 13 194 0 q 110 64 124 26 q 97 172 97 101 l 97 926 l 214 926 l 214 192 q 225 121 214 139 q 285 103 236 103 l 311 103 l 311 0 l 260 0 z "},"m":{"ha":1168,"x_min":97,"x_max":1074,"o":"m 97 0 l 97 689 l 183 689 l 214 585 q 294 667 243 633 q 421 700 344 700 q 549 668 500 700 q 619 579 597 636 q 720 672 661 643 q 851 700 779 700 q 1022 627 971 700 q 1074 436 1074 554 l 1074 0 l 957 0 l 957 401 q 947 499 957 454 q 905 572 936 544 q 810 600 874 600 q 690 542 735 600 q 644 374 644 485 l 644 0 l 528 0 l 528 401 q 517 499 528 454 q 476 572 507 544 q 381 600 444 600 q 260 542 306 600 q 214 374 214 485 l 214 0 l 97 0 z "},"n":{"ha":758,"x_min":97,"x_max":664,"o":"m 97 0 l 97 689 l 183 689 l 214 585 q 296 667 243 633 q 436 700 349 700 q 613 627 561 700 q 664 436 664 554 l 664 0 l 547 0 l 547 401 q 538 499 547 454 q 495 572 528 544 q 396 600 463 600 q 263 542 311 600 q 214 374 214 485 l 214 0 l 97 0 z "},"o":{"ha":767,"x_min":53,"x_max":714,"o":"m 383 -17 q 265 4 324 -17 q 159 69 207 25 q 82 181 111 113 q 53 342 53 249 q 82 503 53 435 q 159 615 111 571 q 265 679 207 658 q 383 700 324 700 q 502 679 443 700 q 609 615 561 658 q 685 503 657 571 q 714 342 714 435 q 685 181 714 249 q 609 69 657 113 q 502 4 561 25 q 383 -17 443 -17 m 383 86 q 481 113 433 86 q 558 197 528 140 q 589 342 589 253 q 558 487 589 431 q 481 570 528 543 q 383 597 433 597 q 287 570 335 597 q 208 487 239 543 q 178 342 178 431 q 208 197 178 253 q 287 113 239 140 q 383 86 335 86 z "},"p":{"ha":786,"x_min":97,"x_max":733,"o":"m 97 -224 l 97 689 l 182 689 l 214 581 q 301 667 246 635 q 438 700 357 700 q 584 658 517 700 q 692 535 651 615 q 733 342 733 456 q 692 149 733 229 q 584 26 651 68 q 438 -17 517 -17 q 301 16 357 -17 q 214 104 246 49 l 214 -224 l 97 -224 m 407 83 q 549 151 496 83 q 603 342 603 219 q 549 533 603 465 q 407 600 496 600 q 265 533 318 600 q 211 342 211 465 q 265 151 211 219 q 407 83 318 83 z "},"q":{"ha":800,"x_min":53,"x_max":872,"o":"m 754 -240 q 665 -222 707 -240 q 598 -160 624 -204 q 572 -37 572 -117 l 572 104 q 485 16 542 49 q 347 -17 429 -17 q 202 26 269 -17 q 94 149 135 68 q 53 342 53 229 q 94 535 53 456 q 202 658 135 615 q 347 700 269 700 q 485 667 429 700 q 572 581 542 635 l 604 689 l 689 689 l 689 -33 q 712 -101 689 -71 q 788 -131 735 -131 q 872 -112 824 -131 l 872 -221 q 815 -235 846 -229 q 754 -240 785 -240 m 379 83 q 522 151 468 83 q 575 342 575 219 q 522 533 575 465 q 379 600 468 600 q 236 533 290 600 q 182 342 182 465 q 236 151 182 219 q 379 83 290 83 z "},"r":{"ha":472,"x_min":97,"x_max":465,"o":"m 97 0 l 97 689 l 182 689 l 219 561 q 317 662 256 624 q 465 700 379 700 l 465 579 q 445 579 456 579 q 425 578 435 579 q 260 496 307 568 q 214 296 214 424 l 214 0 l 97 0 z "},"s":{"ha":654,"x_min":43,"x_max":613,"o":"m 332 -17 q 215 2 272 -17 q 112 59 157 21 q 43 156 67 97 l 156 197 q 223 109 171 136 q 332 82 275 82 q 410 94 374 82 q 471 131 447 107 q 494 185 494 154 q 449 265 494 242 q 342 301 404 289 l 246 321 q 153 352 196 332 q 83 410 110 372 q 57 510 57 447 q 96 615 57 572 q 195 679 135 657 q 322 701 256 701 q 477 667 404 701 q 581 561 550 633 l 471 521 q 408 583 453 563 q 314 603 363 603 q 218 579 261 603 q 175 511 175 556 q 212 447 175 467 q 303 415 249 426 l 393 397 q 499 365 449 386 q 581 303 549 344 q 613 189 613 263 q 572 78 613 124 q 468 8 532 32 q 332 -17 404 -17 z "},"t":{"ha":450,"x_min":28,"x_max":394,"o":"m 307 0 q 206 13 242 0 q 158 64 171 26 q 144 172 144 101 l 144 596 l 28 596 l 28 689 l 144 689 l 144 863 l 261 863 l 261 689 l 394 689 l 394 596 l 261 596 l 261 192 q 272 121 261 139 q 332 103 282 103 l 394 103 l 394 0 l 307 0 z "},"u":{"ha":744,"x_min":94,"x_max":647,"o":"m 315 -17 q 186 17 235 -17 q 116 112 138 51 q 94 250 94 172 l 94 690 l 211 690 l 211 278 q 229 160 211 201 q 280 102 247 118 q 356 86 313 86 q 484 144 438 86 q 531 311 531 201 l 531 690 l 647 690 l 647 0 l 560 0 l 531 100 q 451 17 501 50 q 315 -17 401 -17 z "},"v":{"ha":613,"x_min":0,"x_max":613,"o":"m 246 0 l 0 689 l 126 689 l 307 153 l 486 689 l 613 689 l 367 0 l 246 0 z "},"w":{"ha":908,"x_min":0,"x_max":908,"o":"m 199 0 l 0 689 l 125 689 l 257 179 l 394 689 l 515 689 l 651 179 l 783 689 l 908 689 l 711 0 l 604 0 l 454 554 l 304 0 l 199 0 z "},"x":{"ha":640,"x_min":0,"x_max":640,"o":"m 0 0 l 251 354 l 13 689 l 150 689 l 319 450 l 490 689 l 628 689 l 389 354 l 640 0 l 503 0 l 319 257 l 138 0 l 0 0 z "},"y":{"ha":596,"x_min":0,"x_max":596,"o":"m 51 -224 l 51 -121 l 99 -121 q 175 -113 149 -121 q 217 -80 201 -106 q 249 -1 233 -54 l 0 688 l 129 688 l 299 157 l 468 688 l 596 688 l 351 -31 q 301 -147 326 -104 q 232 -206 275 -189 q 111 -224 189 -224 l 51 -224 z "},"z":{"ha":639,"x_min":56,"x_max":597,"o":"m 56 0 l 56 103 l 451 586 l 68 586 l 68 689 l 583 689 l 583 586 l 188 103 l 597 103 l 597 0 l 56 0 z "},"ˆ":{"ha":596,"x_min":74,"x_max":522,"o":"m 74 799 l 229 939 q 299 965 257 965 q 367 939 339 965 l 522 799 l 392 799 l 297 883 l 204 799 l 74 799 z "},"ˇ":{"ha":596,"x_min":74,"x_max":522,"o":"m 299 790 q 229 817 257 790 l 74 957 l 204 957 l 297 872 l 392 957 l 522 957 l 367 817 q 299 790 339 790 z "},"˘":{"ha":554,"x_min":74,"x_max":482,"o":"m 278 790 q 145 838 201 790 q 74 957 89 886 l 169 957 q 211 904 182 925 q 278 883 240 883 q 343 904 314 883 q 386 957 372 925 l 482 957 q 410 838 468 886 q 278 790 353 790 z "},"˙":{"ha":297,"x_min":74,"x_max":224,"o":"m 149 819 q 96 842 118 819 q 74 894 74 864 q 96 948 74 926 q 149 969 118 969 q 202 948 181 969 q 224 894 224 926 q 202 842 224 864 q 149 819 181 819 z "},"˚":{"ha":351,"x_min":21,"x_max":324,"o":"m 175 776 q 97 797 132 776 q 42 853 63 818 q 21 928 21 888 q 42 1003 21 969 q 97 1058 63 1038 q 175 1079 132 1079 q 281 1034 239 1079 q 324 928 324 989 q 281 822 324 867 q 175 776 239 776 m 172 857 q 224 878 203 857 q 244 928 244 899 q 224 978 244 957 q 172 999 203 999 q 121 978 142 999 q 100 928 100 957 q 121 878 100 899 q 172 857 142 857 z "},"˛":{"ha":365,"x_min":74,"x_max":292,"o":"m 204 -240 q 108 -206 142 -240 q 74 -126 74 -171 q 103 -48 74 -83 q 185 0 133 -12 l 292 0 q 196 -52 221 -26 q 171 -104 171 -78 q 190 -146 171 -132 q 239 -160 210 -160 q 265 -157 251 -160 q 292 -149 278 -154 l 292 -224 q 204 -240 244 -240 z "},"‘":{"ha":326,"x_min":74,"x_max":253,"o":"m 164 581 q 100 608 126 581 q 74 669 74 635 q 81 704 74 686 l 167 928 l 243 928 l 178 758 q 231 728 210 753 q 253 669 253 703 q 226 606 253 632 q 164 581 200 581 z "},"’":{"ha":326,"x_min":74,"x_max":253,"o":"m 83 596 l 149 767 q 95 797 117 772 q 74 854 74 821 q 100 918 74 892 q 163 944 126 944 q 226 918 200 944 q 253 856 253 892 q 246 821 253 839 l 160 596 l 83 596 z "},"‚":{"ha":326,"x_min":74,"x_max":253,"o":"m 83 -186 l 149 -15 q 95 15 117 -10 q 74 72 74 39 q 100 136 74 110 q 163 163 126 163 q 226 136 200 163 q 253 74 253 110 q 246 39 253 57 l 160 -186 l 83 -186 z "},"“":{"ha":553,"x_min":74,"x_max":479,"o":"m 164 581 q 101 605 129 581 q 74 663 74 629 q 76 690 74 678 q 85 715 79 701 l 167 928 l 243 928 l 178 758 q 231 728 210 753 q 253 669 253 703 q 226 606 253 632 q 164 581 200 581 m 390 581 q 328 605 356 581 q 300 663 300 629 q 303 690 300 678 q 311 715 306 701 l 393 928 l 469 928 l 404 758 q 458 728 436 753 q 479 669 479 703 q 453 606 479 632 q 390 581 426 581 z "},"”":{"ha":553,"x_min":74,"x_max":479,"o":"m 83 596 l 149 767 q 95 797 117 772 q 74 854 74 821 q 100 918 74 892 q 163 944 126 944 q 226 918 200 944 q 253 856 253 892 q 246 821 253 839 l 160 596 l 83 596 m 310 596 l 375 767 q 322 797 343 772 q 300 854 300 821 q 326 918 300 892 q 390 944 353 944 q 453 918 428 944 q 479 856 479 892 q 472 821 479 839 l 388 596 l 310 596 z "},"„":{"ha":553,"x_min":74,"x_max":479,"o":"m 83 -186 l 149 -15 q 95 15 117 -10 q 74 72 74 39 q 100 136 74 110 q 163 163 126 163 q 226 136 200 163 q 253 74 253 110 q 246 39 253 57 l 160 -186 l 83 -186 m 310 -186 l 375 -15 q 322 15 343 -10 q 300 72 300 39 q 326 136 300 110 q 390 163 353 163 q 453 136 428 163 q 479 74 479 110 q 472 39 479 57 l 388 -186 l 310 -186 z "},"†":{"ha":751,"x_min":56,"x_max":696,"o":"m 319 0 l 319 578 l 56 578 l 56 689 l 319 689 l 319 928 l 432 928 l 432 689 l 696 689 l 696 578 l 432 578 l 432 0 l 319 0 z "},"‡":{"ha":751,"x_min":56,"x_max":696,"o":"m 319 0 l 319 239 l 56 239 l 56 349 l 319 349 l 319 578 l 56 578 l 56 689 l 319 689 l 319 928 l 432 928 l 432 689 l 696 689 l 696 578 l 432 578 l 432 349 l 696 349 l 696 239 l 432 239 l 432 0 l 319 0 z "},"•":{"ha":608,"x_min":74,"x_max":535,"o":"m 304 122 q 188 153 240 122 q 105 238 136 185 q 74 353 74 290 q 105 469 74 417 q 188 552 136 521 q 304 583 240 583 q 420 552 368 583 q 503 469 472 521 q 535 353 535 417 q 503 238 535 290 q 420 153 472 185 q 304 122 368 122 z "},"…":{"ha":967,"x_min":74,"x_max":893,"o":"m 804 -17 q 740 10 767 -17 q 714 72 714 36 q 740 136 714 110 q 804 163 767 163 q 867 136 840 163 q 893 72 893 110 q 867 10 893 36 q 804 -17 840 -17 m 163 -17 q 100 10 126 -17 q 74 72 74 36 q 100 136 74 110 q 163 163 126 163 q 226 136 200 163 q 253 72 253 110 q 226 10 253 36 q 163 -17 200 -17 m 483 -17 q 420 10 446 -17 q 394 72 394 36 q 420 136 394 110 q 483 163 446 163 q 547 136 521 163 q 574 72 574 110 q 547 10 574 36 q 483 -17 521 -17 z "},"‰":{"ha":1844,"x_min":53,"x_max":1792,"o":"m 306 439 q 178 473 236 439 q 87 565 121 507 q 53 692 53 622 q 87 819 53 761 q 178 910 121 876 q 306 944 236 944 q 432 910 375 944 q 523 819 489 876 q 557 692 557 761 q 523 565 557 622 q 432 473 489 507 q 306 439 375 439 m 258 0 l 908 928 l 1031 928 l 381 0 l 258 0 m 306 543 q 410 587 367 543 q 454 692 454 631 q 410 797 454 753 q 306 840 367 840 q 200 797 244 840 q 156 692 156 753 q 200 587 156 631 q 306 543 244 543 m 983 -17 q 856 17 914 -17 q 765 108 799 51 q 731 235 731 165 q 765 363 731 306 q 856 453 799 419 q 983 488 914 488 q 1110 453 1053 488 q 1201 363 1167 419 q 1235 235 1235 306 q 1201 108 1235 165 q 1110 17 1167 51 q 983 -17 1053 -17 m 1540 -17 q 1413 17 1471 -17 q 1322 108 1356 51 q 1288 235 1288 165 q 1322 363 1288 306 q 1413 453 1356 419 q 1540 488 1471 488 q 1667 453 1610 488 q 1758 363 1724 419 q 1792 235 1792 306 q 1758 108 1792 165 q 1667 17 1724 51 q 1540 -17 1610 -17 m 983 86 q 1088 130 1044 86 q 1132 235 1132 174 q 1088 341 1132 297 q 983 385 1044 385 q 877 341 921 385 q 833 235 833 297 q 877 130 833 174 q 983 86 921 86 m 1540 86 q 1645 130 1601 86 q 1689 235 1689 174 q 1645 341 1689 297 q 1540 385 1601 385 q 1434 341 1478 385 q 1390 235 1390 297 q 1434 130 1390 174 q 1540 86 1478 86 z "},"‹":{"ha":490,"x_min":74,"x_max":417,"o":"m 279 56 l 74 347 l 279 640 l 417 640 l 210 347 l 417 56 l 279 56 z "},"›":{"ha":490,"x_min":74,"x_max":417,"o":"m 74 56 l 281 347 l 74 640 l 213 640 l 417 347 l 213 56 l 74 56 z "},"⁄":{"ha":814,"x_min":21,"x_max":793,"o":"m 21 0 l 671 928 l 793 928 l 143 0 l 21 0 z "},"ª":{"ha":515,"x_min":74,"x_max":442,"o":"m 211 551 q 110 583 147 551 q 74 664 74 614 q 106 740 74 713 q 192 781 139 768 q 308 800 246 794 l 332 803 q 328 846 332 825 q 310 880 325 867 q 258 893 294 893 q 207 881 228 893 q 179 843 186 869 l 94 868 q 153 935 110 910 q 263 961 197 961 q 344 947 307 961 q 403 896 381 932 q 426 796 426 860 l 426 682 q 431 621 426 650 q 442 560 436 592 l 361 560 l 344 614 q 288 565 326 579 q 211 551 249 551 m 239 622 q 310 651 288 622 q 332 721 332 679 l 332 736 l 301 732 q 199 710 228 722 q 171 671 171 697 q 190 635 171 647 q 239 622 208 622 z "},"«":{"ha":781,"x_min":74,"x_max":707,"o":"m 568 56 l 364 349 l 568 640 l 707 640 l 499 349 l 707 56 l 568 56 m 279 56 l 74 349 l 279 640 l 417 640 l 210 349 l 417 56 l 279 56 z "},"¬":{"ha":836,"x_min":74,"x_max":763,"o":"m 650 125 l 650 440 l 74 440 l 74 550 l 763 550 l 763 125 l 650 125 z "},"®":{"ha":1108,"x_min":74,"x_max":1035,"o":"m 554 -17 q 367 21 454 -17 q 215 124 281 58 q 111 277 149 190 q 74 463 74 364 q 111 650 74 563 q 215 803 149 738 q 367 907 281 869 q 554 944 454 944 q 741 907 654 944 q 894 803 828 869 q 997 650 960 738 q 1035 463 1035 563 q 997 277 1035 364 q 894 124 960 190 q 741 21 828 58 q 554 -17 654 -17 m 554 68 q 708 99 636 68 q 833 184 779 129 q 918 310 888 239 q 949 463 949 382 q 918 616 949 544 q 833 742 888 688 q 708 828 779 797 q 554 860 636 860 q 401 828 472 860 q 275 742 329 797 q 190 616 221 688 q 160 463 160 544 q 190 310 160 382 q 275 184 221 239 q 401 99 329 129 q 554 68 472 68 m 367 225 l 367 736 l 522 736 q 652 724 599 736 q 735 677 706 711 q 764 575 764 643 q 756 526 764 554 q 721 472 747 497 q 642 432 694 447 l 792 225 l 672 225 l 531 418 l 472 418 l 472 225 l 367 225 m 472 499 l 546 499 q 632 518 606 499 q 658 574 658 538 q 625 636 658 621 q 539 651 592 651 l 472 651 l 472 499 z "},"¯":{"ha":531,"x_min":74,"x_max":457,"o":"m 74 835 l 74 928 l 457 928 l 457 835 l 74 835 z "},"°":{"ha":489,"x_min":56,"x_max":433,"o":"m 244 567 q 150 592 193 567 q 81 661 107 618 q 56 756 56 704 q 81 851 56 808 q 150 919 107 893 q 244 944 193 944 q 340 919 297 944 q 408 851 382 893 q 433 756 433 808 q 408 661 433 704 q 340 592 382 618 q 244 567 297 567 m 244 654 q 317 684 288 654 q 346 756 346 714 q 317 828 346 799 q 244 857 288 857 q 173 828 203 857 q 143 756 143 799 q 173 684 143 714 q 244 654 203 654 z "},"±":{"ha":804,"x_min":74,"x_max":731,"o":"m 347 172 l 347 375 l 74 375 l 74 485 l 347 485 l 347 689 l 457 689 l 457 485 l 731 485 l 731 375 l 457 375 l 457 172 l 347 172 m 74 0 l 74 110 l 731 110 l 731 0 l 74 0 z "},"²":{"ha":531,"x_min":74,"x_max":457,"o":"m 74 560 l 74 636 q 274 810 201 738 q 347 947 347 883 q 326 1003 347 983 q 268 1022 304 1022 q 211 1003 238 1022 q 179 940 185 985 l 90 965 q 153 1058 106 1024 q 272 1092 200 1092 q 395 1056 346 1092 q 444 953 444 1019 q 376 800 444 876 q 186 640 308 724 l 457 640 l 457 560 l 74 560 z "},"³":{"ha":532,"x_min":74,"x_max":458,"o":"m 260 551 q 139 587 186 551 q 74 675 92 622 l 160 700 q 194 645 171 668 q 261 622 218 622 q 333 645 304 622 q 363 707 363 668 q 330 775 363 756 q 244 794 297 794 l 210 794 l 210 869 l 239 869 q 319 888 289 869 q 350 949 350 907 q 324 1005 350 988 q 264 1022 297 1022 q 165 949 188 1022 l 81 974 q 148 1060 99 1029 q 269 1092 197 1092 q 353 1077 313 1092 q 419 1032 393 1063 q 446 951 446 1001 q 425 883 446 914 q 372 836 404 853 q 437 785 415 819 q 458 710 458 750 q 431 622 458 657 q 358 569 403 586 q 260 551 313 551 z "},"´":{"ha":372,"x_min":74,"x_max":299,"o":"m 74 793 q 95 822 78 799 q 135 874 113 844 q 177 928 157 903 q 207 964 197 954 q 246 982 221 982 q 283 967 268 982 q 299 929 299 953 q 295 910 299 919 q 281 890 292 901 q 246 857 271 879 q 198 816 221 835 q 171 793 175 797 l 74 793 z "},"μ":{"ha":747,"x_min":97,"x_max":650,"o":"m 97 -225 l 97 690 l 214 690 l 214 265 q 225 176 214 217 q 267 110 236 135 q 358 86 299 86 q 487 144 440 86 q 533 311 533 201 l 533 690 l 650 690 l 650 0 l 563 0 l 533 100 q 467 17 504 50 q 353 -17 431 -17 q 275 3 310 -17 q 214 57 240 22 l 214 -225 l 97 -225 z "},"¶":{"ha":706,"x_min":53,"x_max":671,"o":"m 260 -224 l 260 408 q 154 458 201 421 q 80 549 107 494 q 53 665 53 603 q 88 797 53 738 q 183 892 124 857 q 315 928 243 928 l 671 928 l 671 835 l 615 835 l 615 -224 l 503 -224 l 503 835 l 372 835 l 372 -224 l 260 -224 z "},"·":{"ha":326,"x_min":74,"x_max":253,"o":"m 163 254 q 100 281 126 254 q 74 344 74 307 q 100 407 74 381 q 163 433 126 433 q 226 407 200 433 q 253 344 253 381 q 226 281 253 307 q 163 254 200 254 z "},"¸":{"ha":404,"x_min":101,"x_max":358,"o":"m 224 -251 q 167 -244 197 -251 q 101 -224 138 -237 l 121 -175 q 165 -190 144 -185 q 201 -194 185 -194 q 255 -179 238 -194 q 272 -147 272 -164 q 260 -123 272 -133 q 222 -112 249 -112 q 202 -115 213 -112 q 179 -119 192 -117 q 151 -115 161 -125 q 140 -93 140 -106 q 144 -79 140 -85 l 215 35 l 263 6 l 221 -62 q 242 -58 232 -60 q 263 -57 253 -57 q 335 -83 311 -57 q 358 -142 358 -108 q 325 -216 358 -181 q 224 -251 292 -251 z "},"¹":{"ha":356,"x_min":74,"x_max":282,"o":"m 189 560 l 189 949 l 74 949 l 74 1014 q 155 1028 119 1014 q 204 1082 190 1043 l 282 1082 l 282 560 l 189 560 z "},"º":{"ha":529,"x_min":79,"x_max":461,"o":"m 269 553 q 177 575 221 553 q 106 642 133 597 q 79 757 79 688 q 106 872 79 826 q 177 939 133 917 q 269 961 221 961 q 363 939 319 961 q 434 872 407 917 q 461 757 461 826 q 434 642 461 688 q 363 575 407 597 q 269 553 319 553 m 269 628 q 338 661 311 628 q 365 757 365 694 q 338 853 365 819 q 269 886 311 886 q 202 853 229 886 q 175 757 175 819 q 202 661 175 694 q 269 628 229 628 z "},"»":{"ha":781,"x_min":74,"x_max":707,"o":"m 364 56 l 571 349 l 364 640 l 501 640 l 707 349 l 501 56 l 364 56 m 74 56 l 281 349 l 74 640 l 213 640 l 417 349 l 213 56 l 74 56 z "},"¼":{"ha":1147,"x_min":74,"x_max":1074,"o":"m 160 0 l 810 928 l 932 928 l 283 0 l 160 0 m 189 406 l 189 793 l 74 793 l 74 860 q 155 874 119 860 q 204 928 190 889 l 283 928 l 283 406 l 189 406 m 889 0 l 889 119 l 632 119 l 632 194 l 890 522 l 983 522 l 983 199 l 1074 199 l 1074 119 l 983 119 l 983 0 l 889 0 m 733 199 l 889 199 l 889 401 l 733 199 z "},"½":{"ha":1128,"x_min":74,"x_max":1054,"o":"m 160 0 l 810 928 l 932 928 l 282 0 l 160 0 m 189 406 l 189 793 l 74 793 l 74 860 q 155 874 119 860 q 204 928 190 889 l 282 928 l 282 406 l 189 406 m 672 0 l 672 75 q 873 250 800 178 q 946 386 946 322 q 924 442 946 422 q 867 461 903 461 q 810 442 836 461 q 776 379 783 424 l 688 406 q 751 497 703 463 q 871 531 799 531 q 994 494 944 531 q 1043 393 1043 458 q 975 239 1043 315 q 785 81 907 163 l 1054 81 l 1054 0 l 672 0 z "},"¾":{"ha":1206,"x_min":74,"x_max":1132,"o":"m 260 404 q 139 440 186 404 q 74 528 92 475 l 160 553 q 194 497 171 519 q 261 475 218 475 q 333 498 304 475 q 363 560 363 521 q 330 628 363 608 q 236 647 297 647 l 210 647 l 210 721 l 235 721 q 350 800 350 721 q 324 856 350 838 q 264 874 297 874 q 201 854 225 874 q 165 800 176 835 l 81 825 q 148 913 99 881 q 269 944 197 944 q 353 930 313 944 q 419 884 393 915 q 446 803 446 853 q 425 734 446 764 q 372 688 404 704 q 437 638 415 672 q 458 563 458 603 q 431 474 458 510 q 358 422 403 439 q 260 404 313 404 m 218 0 l 869 928 l 992 928 l 340 0 l 218 0 m 947 0 l 947 119 l 690 119 l 690 194 l 949 522 l 1043 522 l 1043 199 l 1132 199 l 1132 119 l 1043 119 l 1043 0 l 947 0 m 792 199 l 947 199 l 947 401 l 792 199 z "},"<":{"ha":768,"x_min":56,"x_max":713,"o":"m 713 0 l 56 296 l 56 393 l 713 689 l 713 564 l 201 344 l 713 125 l 713 0 z "},"=":{"ha":836,"x_min":74,"x_max":763,"o":"m 74 426 l 74 536 l 763 536 l 763 426 l 74 426 m 74 168 l 74 278 l 763 278 l 763 168 l 74 168 z "},">":{"ha":768,"x_min":56,"x_max":713,"o":"m 56 0 l 56 125 l 567 344 l 56 564 l 56 689 l 713 393 l 713 296 l 56 0 z "},"?":{"ha":722,"x_min":56,"x_max":653,"o":"m 253 264 l 253 315 q 270 406 253 369 q 323 474 288 443 q 411 538 358 504 q 496 610 461 569 q 531 706 531 650 q 482 810 531 772 q 357 847 433 847 q 256 824 294 847 q 197 767 217 801 q 169 696 176 732 l 56 728 q 160 886 76 828 q 363 944 244 944 q 501 920 435 944 q 610 846 568 896 q 653 717 653 796 q 628 608 653 657 q 563 522 603 560 q 479 456 524 485 q 417 411 440 431 q 383 369 393 392 q 372 311 372 347 l 372 264 l 253 264 m 315 -17 q 253 8 281 -17 q 225 72 225 33 q 251 136 225 110 q 315 163 278 163 q 378 135 353 163 q 404 72 404 108 q 378 10 404 36 q 315 -17 351 -17 z "},"@":{"ha":1083,"x_min":69,"x_max":1014,"o":"m 553 -17 q 374 18 461 -17 q 219 116 288 53 q 110 268 150 179 q 69 465 69 357 q 107 651 69 564 q 210 803 144 738 q 363 907 276 869 q 550 944 450 944 q 710 916 629 944 q 860 831 792 888 q 972 694 929 775 q 1014 508 1014 613 q 981 337 1014 401 q 899 244 949 272 q 799 215 850 215 q 711 238 751 215 q 657 296 671 260 q 581 235 624 256 q 496 215 539 215 q 403 241 447 215 q 331 317 358 267 q 303 442 303 368 q 342 608 303 547 q 442 695 381 669 q 574 721 504 721 q 658 713 615 721 q 739 693 700 706 l 739 379 q 756 333 739 349 q 799 318 774 318 q 870 345 842 318 q 913 416 899 372 q 928 508 928 460 q 899 642 928 579 q 817 754 869 706 q 697 831 765 803 q 550 858 629 858 q 398 828 469 858 q 272 744 326 797 q 186 619 217 690 q 156 465 156 547 q 188 303 156 376 q 276 178 221 231 q 403 97 332 125 q 550 68 474 68 q 739 118 650 68 l 739 22 q 647 -7 694 3 q 553 -17 600 -17 m 513 318 q 590 356 553 318 q 626 469 626 394 l 626 613 q 597 617 613 615 q 564 618 581 618 q 496 604 529 618 q 441 551 463 590 q 419 435 419 511 q 448 347 419 375 q 513 318 476 318 z "},":":{"ha":285,"x_min":53,"x_max":232,"o":"m 142 521 q 79 547 106 521 q 53 611 53 574 q 79 674 53 647 q 142 700 106 700 q 206 674 179 700 q 232 611 232 647 q 206 547 232 574 q 142 521 179 521 m 142 -17 q 79 10 106 -17 q 53 72 53 36 q 79 136 53 110 q 142 163 106 163 q 206 136 179 163 q 232 72 232 110 q 206 10 232 36 q 142 -17 179 -17 z "},";":{"ha":285,"x_min":53,"x_max":232,"o":"m 142 521 q 79 547 106 521 q 53 611 53 574 q 79 674 53 647 q 142 700 106 700 q 206 674 179 700 q 232 611 232 647 q 206 547 232 574 q 142 521 179 521 m 63 -185 l 128 -15 q 74 15 96 -10 q 53 74 53 40 q 79 136 53 110 q 142 163 106 163 q 206 136 179 163 q 232 74 232 110 q 225 39 232 57 l 139 -185 l 63 -185 z "},"[":{"ha":438,"x_min":106,"x_max":392,"o":"m 106 -224 l 106 928 l 392 928 l 392 825 l 218 825 l 218 -121 l 392 -121 l 392 -224 l 106 -224 z "},"\\":{"ha":524,"x_min":21,"x_max":503,"o":"m 382 0 l 21 928 l 142 928 l 503 0 l 382 0 z "},"]":{"ha":438,"x_min":46,"x_max":332,"o":"m 46 -224 l 46 -121 l 219 -121 l 219 825 l 46 825 l 46 928 l 332 928 l 332 -224 l 46 -224 z "},"^":{"ha":767,"x_min":74,"x_max":693,"o":"m 74 432 l 331 928 l 436 928 l 693 432 l 569 432 l 383 790 l 197 432 l 74 432 z "},"_":{"ha":550,"x_min":14,"x_max":536,"o":"m 14 -110 l 14 0 l 536 0 l 536 -110 l 14 -110 z "},"`":{"ha":372,"x_min":74,"x_max":299,"o":"m 201 793 q 146 840 175 815 q 97 883 117 864 q 78 909 83 899 q 74 929 74 919 q 89 967 74 951 q 126 982 104 982 q 149 978 138 982 q 169 961 160 974 l 299 793 l 201 793 z "},"!":{"ha":390,"x_min":106,"x_max":285,"o":"m 158 271 l 133 689 l 133 928 l 257 928 l 257 689 l 232 271 l 158 271 m 194 -17 q 132 10 158 -17 q 106 72 106 36 q 132 136 106 110 q 194 163 158 163 q 258 136 232 163 q 285 72 285 110 q 258 10 285 36 q 194 -17 232 -17 z "},"\"":{"ha":418,"x_min":56,"x_max":363,"o":"m 271 621 l 251 928 l 363 928 l 343 621 l 271 621 m 75 621 l 56 928 l 167 928 l 147 621 l 75 621 z "},"#":{"ha":910,"x_min":53,"x_max":857,"o":"m 190 0 l 225 239 l 53 239 l 68 351 l 240 351 l 272 576 l 100 576 l 115 689 l 288 689 l 321 928 l 435 928 l 401 689 l 572 689 l 606 928 l 719 928 l 686 689 l 857 689 l 842 576 l 669 576 l 639 351 l 810 351 l 794 239 l 622 239 l 589 0 l 475 0 l 508 239 l 338 239 l 304 0 l 190 0 m 354 351 l 525 351 l 556 576 l 385 576 l 354 351 z "},"$":{"ha":825,"x_min":56,"x_max":769,"o":"m 371 -121 l 371 -15 q 171 53 251 -4 q 56 203 90 110 l 176 239 q 371 96 224 115 l 371 428 l 321 438 q 199 480 257 450 q 103 562 140 510 q 65 692 65 614 q 92 799 65 753 q 165 875 119 844 q 263 922 210 906 q 371 943 317 939 l 371 1031 l 440 1031 l 440 943 q 610 894 533 936 q 726 771 688 853 l 607 736 q 535 803 581 781 q 440 832 489 826 l 440 536 l 457 532 q 565 500 510 518 q 666 453 619 482 q 741 378 713 424 q 769 261 769 332 q 724 114 769 175 q 603 20 678 53 q 440 -17 528 -12 l 440 -121 l 371 -121 m 371 553 l 371 833 q 294 816 335 831 q 226 774 254 801 q 199 699 199 746 q 242 603 199 638 q 350 557 286 569 l 371 553 m 440 94 q 584 143 533 100 q 635 250 635 186 q 581 358 635 322 q 440 413 526 393 l 440 94 z "},"%":{"ha":1288,"x_min":53,"x_max":1235,"o":"m 306 440 q 178 474 236 440 q 87 565 121 508 q 53 692 53 622 q 87 819 53 763 q 178 910 121 876 q 306 944 236 944 q 432 910 375 944 q 523 819 489 876 q 557 692 557 763 q 523 565 557 622 q 432 474 489 508 q 306 440 375 440 m 258 0 l 908 928 l 1031 928 l 381 0 l 258 0 m 306 543 q 410 587 367 543 q 454 692 454 631 q 410 798 454 754 q 306 842 367 842 q 199 798 243 842 q 156 692 156 754 q 200 587 156 631 q 306 543 244 543 m 983 -17 q 856 17 914 -17 q 765 109 799 51 q 731 236 731 167 q 765 363 731 306 q 856 455 799 421 q 983 489 914 489 q 1110 455 1053 489 q 1201 363 1167 421 q 1235 236 1235 306 q 1201 109 1235 167 q 1110 17 1167 51 q 983 -17 1053 -17 m 983 86 q 1088 131 1044 86 q 1132 236 1132 175 q 1088 341 1132 297 q 983 385 1044 385 q 877 341 921 385 q 833 236 833 297 q 877 131 833 175 q 983 86 921 86 z "},"&":{"ha":979,"x_min":53,"x_max":965,"o":"m 365 -17 q 199 19 269 -17 q 91 117 129 56 q 53 254 53 178 q 118 431 53 361 q 290 538 183 501 q 215 642 243 590 q 188 747 188 693 q 259 891 188 838 q 440 944 331 944 q 553 926 497 944 q 645 863 608 907 q 682 744 682 819 q 628 599 682 657 q 488 504 574 540 l 676 304 q 707 397 694 347 q 724 501 719 446 l 844 501 q 817 353 839 426 q 758 218 796 281 l 965 0 l 800 0 l 686 121 q 546 20 626 57 q 365 -17 465 -17 m 417 576 q 526 642 485 601 q 568 738 568 682 q 531 818 568 794 q 443 842 494 842 q 352 819 392 842 q 313 750 313 797 q 335 676 313 713 q 384 613 358 639 q 417 576 410 586 m 365 86 q 501 115 439 86 q 611 199 564 144 l 360 464 q 227 386 276 435 q 178 260 178 338 q 204 167 178 207 q 274 107 231 128 q 365 86 317 86 z "},"'":{"ha":222,"x_min":56,"x_max":167,"o":"m 75 621 l 56 928 l 167 928 l 147 621 l 75 621 z "},"(":{"ha":417,"x_min":69,"x_max":368,"o":"m 263 -224 q 118 70 167 -87 q 69 389 69 228 q 108 668 69 531 q 222 928 146 806 l 326 928 q 215 689 258 831 q 172 386 172 547 q 217 77 172 235 q 368 -224 263 -81 l 263 -224 z "},")":{"ha":417,"x_min":49,"x_max":347,"o":"m 49 -224 q 200 78 154 -81 q 246 388 246 236 q 203 689 246 547 q 92 928 161 831 l 196 928 q 310 668 274 806 q 347 390 347 531 q 299 70 347 228 q 156 -224 250 -87 l 49 -224 z "},"*":{"ha":601,"x_min":94,"x_max":504,"o":"m 213 539 l 149 586 l 235 706 l 94 750 l 119 826 l 260 781 l 260 928 l 339 928 l 339 781 l 479 826 l 504 750 l 363 706 l 450 586 l 386 539 l 299 658 l 213 539 z "},"+":{"ha":836,"x_min":74,"x_max":763,"o":"m 363 0 l 363 289 l 74 289 l 74 400 l 363 400 l 363 689 l 474 689 l 474 400 l 763 400 l 763 289 l 474 289 l 474 0 l 363 0 z "},",":{"ha":285,"x_min":53,"x_max":232,"o":"m 63 -185 l 128 -15 q 74 15 96 -10 q 53 74 53 40 q 79 136 53 110 q 142 163 106 163 q 206 136 179 163 q 232 74 232 110 q 225 39 232 57 l 139 -185 l 63 -185 z "},"-":{"ha":511,"x_min":53,"x_max":458,"o":"m 53 289 l 53 401 l 458 401 l 458 289 l 53 289 z "},".":{"ha":285,"x_min":53,"x_max":232,"o":"m 142 -17 q 79 10 106 -17 q 53 72 53 36 q 79 136 53 110 q 142 163 106 163 q 206 136 179 163 q 232 72 232 110 q 206 10 232 36 q 142 -17 179 -17 z "},"/":{"ha":524,"x_min":21,"x_max":503,"o":"m 21 0 l 382 928 l 503 928 l 142 0 l 21 0 z "},"{":{"ha":443,"x_min":53,"x_max":396,"o":"m 336 -224 q 218 -206 258 -224 q 164 -147 178 -189 q 150 -35 150 -106 l 150 174 q 134 269 150 233 q 53 306 118 306 l 53 399 q 134 435 118 399 q 150 531 150 471 l 150 739 q 164 852 150 811 q 218 910 178 893 q 336 928 258 928 l 396 928 l 396 829 l 338 829 q 279 811 292 829 q 267 740 267 793 l 267 528 q 237 403 267 440 q 157 353 207 367 l 157 351 q 238 300 210 338 q 267 176 267 263 l 267 -36 q 279 -108 267 -90 q 338 -125 292 -125 l 396 -125 l 396 -224 l 336 -224 z "},"|":{"ha":324,"x_min":106,"x_max":218,"o":"m 106 -224 l 106 928 l 218 928 l 218 -224 l 106 -224 z "},"}":{"ha":443,"x_min":47,"x_max":390,"o":"m 47 -224 l 47 -125 l 106 -125 q 164 -108 151 -125 q 176 -36 176 -90 l 176 176 q 206 300 176 263 q 286 351 235 338 l 286 353 q 206 403 236 367 q 176 528 176 440 l 176 740 q 164 811 176 793 q 106 829 151 829 l 47 829 l 47 928 l 107 928 q 225 910 185 928 q 279 852 265 893 q 293 739 293 811 l 293 531 q 310 435 293 471 q 390 399 326 399 l 390 306 q 310 269 326 306 q 293 174 293 233 l 293 -35 q 279 -147 293 -106 q 225 -206 265 -189 q 107 -224 185 -224 l 47 -224 z "},"~":{"ha":771,"x_min":56,"x_max":715,"o":"m 526 271 q 428 290 476 271 q 335 327 381 308 q 249 346 290 346 q 190 328 214 346 q 160 276 167 311 l 56 307 q 121 410 71 371 q 246 449 171 449 q 353 430 304 449 q 446 392 403 411 q 525 372 489 372 q 581 390 557 372 q 613 443 606 408 l 715 413 q 650 310 700 349 q 526 271 600 271 z "},"¡":{"ha":390,"x_min":106,"x_max":285,"o":"m 194 542 q 132 568 158 542 q 106 631 106 594 q 132 694 106 668 q 194 721 158 721 q 258 694 232 721 q 285 631 285 668 q 258 568 285 594 q 194 542 232 542 m 133 -224 l 133 15 l 158 432 l 232 432 l 257 15 l 257 -224 l 133 -224 z "},"¢":{"ha":694,"x_min":53,"x_max":649,"o":"m 328 -121 l 328 -14 q 181 45 243 -3 q 86 170 119 93 q 53 343 53 247 q 86 511 53 436 q 181 635 119 586 q 328 696 243 683 l 328 793 l 397 793 l 397 700 q 551 652 488 697 q 646 546 614 607 l 539 507 q 397 597 494 586 l 397 86 q 484 117 447 92 q 542 176 521 142 l 649 138 q 548 33 614 75 q 397 -17 482 -10 l 397 -121 l 328 -121 m 328 93 l 328 590 q 223 513 267 574 q 179 344 179 453 q 223 173 179 235 q 328 93 267 111 z "},"£":{"ha":814,"x_min":97,"x_max":772,"o":"m 140 -17 l 101 76 q 151 103 121 85 q 210 150 181 121 q 260 220 240 179 q 281 314 281 261 q 273 374 281 342 q 249 442 265 407 l 97 442 l 97 513 l 217 513 q 175 608 194 560 q 156 710 156 656 q 201 847 156 796 q 318 922 247 899 q 463 944 389 944 q 656 892 579 944 q 758 751 732 840 l 643 717 q 574 817 625 789 q 457 846 522 846 q 376 833 418 846 q 307 790 335 821 q 279 706 279 760 q 301 608 279 656 q 346 513 322 561 l 629 513 l 629 442 l 378 442 q 397 383 392 411 q 403 331 403 356 q 365 210 403 261 q 269 125 326 158 q 314 138 293 135 q 353 142 335 142 q 429 129 394 142 q 501 104 464 117 q 586 92 539 92 q 655 99 618 92 q 738 126 692 107 l 772 25 q 678 -7 721 3 q 599 -17 635 -17 q 504 -3 547 -17 q 419 23 461 10 q 326 36 378 36 q 243 24 289 36 q 140 -17 197 13 z "},"¤":{"ha":806,"x_min":74,"x_max":732,"o":"m 124 117 l 74 165 l 165 257 q 100 446 100 342 q 117 544 100 496 q 165 633 133 593 l 74 725 l 124 775 l 215 683 q 305 733 257 717 q 403 749 353 749 q 501 733 453 749 q 590 683 550 717 l 682 775 l 732 725 l 640 633 q 690 544 674 593 q 706 446 706 496 q 690 347 706 396 q 640 257 674 299 l 732 165 l 682 117 l 590 207 q 501 159 550 175 q 403 143 453 143 q 305 159 353 143 q 215 207 257 175 l 124 117 m 403 247 q 503 274 458 247 q 574 347 547 301 q 600 446 600 392 q 574 544 600 500 q 503 616 547 589 q 403 643 458 643 q 303 616 349 643 q 232 544 258 589 q 206 446 206 500 q 232 347 206 392 q 303 274 258 301 q 403 247 349 247 z "},"¥":{"ha":826,"x_min":14,"x_max":813,"o":"m 349 0 l 349 119 l 140 119 l 140 190 l 349 190 l 349 310 l 140 310 l 140 381 l 336 381 l 14 928 l 157 928 l 414 479 l 669 928 l 813 928 l 490 381 l 686 381 l 686 310 l 479 310 l 479 190 l 686 190 l 686 119 l 479 119 l 479 0 l 349 0 z "},"¦":{"ha":324,"x_min":106,"x_max":218,"o":"m 106 497 l 106 928 l 218 928 l 218 497 l 106 497 m 106 -224 l 106 207 l 218 207 l 218 -224 l 106 -224 z "},"§":{"ha":736,"x_min":43,"x_max":694,"o":"m 363 -240 q 189 -193 260 -240 q 93 -61 118 -146 l 208 -28 q 260 -112 222 -82 q 365 -143 297 -143 q 465 -119 426 -143 q 504 -50 504 -96 q 460 40 504 3 q 353 107 415 76 l 222 172 q 96 266 149 210 q 43 401 43 322 q 92 519 43 471 q 210 589 142 567 q 138 659 169 617 q 106 764 106 701 q 142 865 106 825 q 237 924 179 904 q 357 944 294 944 q 517 905 451 944 q 610 797 582 865 l 497 764 q 441 828 481 808 q 351 847 401 847 q 263 828 300 847 q 225 767 225 808 q 263 695 225 728 q 357 633 301 663 l 515 553 q 642 461 590 514 q 694 336 694 408 q 649 210 694 264 q 535 126 604 157 q 599 58 575 96 q 624 -32 624 21 q 588 -147 624 -100 q 493 -217 553 -193 q 363 -240 433 -240 m 449 179 q 537 233 496 199 q 578 314 578 267 q 551 387 578 356 q 481 442 525 418 l 303 538 q 237 510 269 528 q 182 467 204 492 q 160 408 160 442 q 192 331 160 360 q 279 271 224 301 l 449 179 z "},"¨":{"ha":590,"x_min":74,"x_max":517,"o":"m 149 819 q 96 842 118 819 q 74 894 74 864 q 96 947 74 925 q 149 968 118 968 q 202 947 181 968 q 224 894 224 925 q 202 842 224 864 q 149 819 181 819 m 442 819 q 390 842 411 819 q 368 894 368 864 q 390 947 368 925 q 442 968 411 968 q 495 947 474 968 q 517 894 517 925 q 495 842 517 864 q 442 819 474 819 z "},"©":{"ha":1108,"x_min":74,"x_max":1035,"o":"m 554 -17 q 367 21 454 -17 q 215 124 281 58 q 111 277 149 190 q 74 464 74 364 q 111 651 74 564 q 215 803 149 738 q 367 907 281 869 q 554 944 454 944 q 741 907 654 944 q 894 803 828 869 q 997 651 960 738 q 1035 464 1035 564 q 997 277 1035 364 q 894 124 960 190 q 741 21 828 58 q 554 -17 654 -17 m 554 69 q 708 100 636 69 q 833 185 779 131 q 918 310 888 239 q 949 464 949 382 q 918 617 949 546 q 833 743 888 689 q 708 828 779 797 q 554 858 636 858 q 401 828 472 858 q 275 743 329 797 q 190 617 221 689 q 160 464 160 546 q 190 310 160 382 q 275 185 221 239 q 401 100 329 131 q 554 69 472 69 m 557 208 q 378 280 440 208 q 315 475 315 351 q 381 668 315 599 q 560 738 447 738 q 685 706 635 738 q 761 624 735 674 l 668 589 q 557 657 632 657 q 459 613 497 657 q 421 475 421 568 q 459 336 421 382 q 557 290 497 290 q 623 304 592 290 q 672 353 654 318 l 764 319 q 686 240 738 272 q 557 208 635 208 z "},"¿":{"ha":722,"x_min":68,"x_max":665,"o":"m 407 542 q 343 568 369 542 q 317 632 317 594 q 343 694 317 668 q 407 721 369 721 q 469 694 443 721 q 496 632 496 668 q 469 568 496 594 q 407 542 443 542 m 358 -242 q 219 -217 286 -242 q 110 -142 153 -193 q 68 -14 68 -92 q 93 94 68 46 q 158 181 118 143 q 242 247 199 219 q 305 292 282 274 q 338 334 328 311 q 349 392 349 357 l 349 439 l 468 439 l 468 388 q 451 297 468 335 q 398 230 433 260 q 310 165 363 200 q 225 94 260 135 q 190 -3 190 54 q 239 -107 190 -69 q 364 -144 288 -144 q 465 -122 426 -144 q 525 -64 504 -99 q 551 7 546 -29 l 665 -25 q 561 -183 644 -125 q 358 -242 478 -242 z "},"ß":{"ha":829,"x_min":106,"x_max":776,"o":"m 439 -17 l 419 -17 l 388 90 q 442 86 417 86 q 594 132 536 86 q 651 271 651 178 q 583 415 651 372 q 404 458 515 458 l 388 458 l 388 564 l 396 564 q 500 579 453 564 q 576 627 547 594 q 604 710 604 660 q 557 810 604 771 q 432 849 510 849 q 272 799 322 849 q 222 629 222 749 l 222 0 l 106 0 l 106 629 q 116 734 106 679 q 159 837 126 789 q 258 915 192 885 q 433 944 324 944 q 582 917 517 944 q 685 841 647 890 q 722 724 722 792 q 689 603 722 654 q 583 522 656 553 q 721 444 665 501 q 776 274 776 386 q 728 104 776 168 q 604 12 681 40 q 439 -17 528 -17 z "},"Æ":{"ha":1386,"x_min":14,"x_max":1333,"o":"m 14 0 l 689 928 l 1333 928 l 1333 815 l 833 815 l 833 533 l 1203 533 l 1203 421 l 833 421 l 833 113 l 1333 113 l 1333 0 l 703 0 l 703 201 l 310 201 l 165 0 l 14 0 m 388 314 l 703 314 l 703 758 l 388 314 z "},"ƒ":{"ha":446,"x_min":35,"x_max":411,"o":"m 111 -240 q 73 -237 92 -240 q 35 -229 54 -235 l 35 -125 q 71 -129 56 -129 q 133 -103 115 -129 q 151 -33 151 -76 l 151 596 l 35 596 l 35 689 l 151 689 l 151 792 q 165 904 151 863 q 219 963 179 946 q 336 981 260 981 l 411 981 l 411 882 l 339 882 q 281 864 294 882 q 268 793 268 846 l 268 689 l 411 689 l 411 596 l 268 596 l 268 -37 q 246 -160 268 -117 q 188 -222 224 -204 q 111 -240 151 -240 z "},"∫":{"ha":636,"x_min":74,"x_max":563,"o":"m 192 -240 q 110 -222 146 -240 q 74 -154 74 -203 q 94 -106 74 -126 q 143 -85 114 -85 q 192 -106 174 -85 q 211 -156 211 -128 q 211 -166 211 -161 q 208 -176 211 -171 q 217 -175 208 -176 q 235 -162 225 -174 q 254 -124 246 -151 q 263 -43 263 -96 q 260 301 263 129 q 257 644 257 472 q 274 800 257 740 q 319 892 292 860 q 381 935 347 924 q 444 946 414 946 q 526 927 490 946 q 563 860 563 908 q 542 810 563 831 q 493 790 522 790 q 443 812 463 790 q 424 860 424 833 q 428 882 424 872 q 419 881 428 882 q 401 868 411 879 q 382 828 390 857 q 374 747 374 800 q 376 404 374 575 q 379 61 379 233 q 362 -96 379 -36 q 317 -187 344 -156 q 256 -229 289 -218 q 192 -240 224 -240 z "},"≈":{"ha":807,"x_min":74,"x_max":733,"o":"m 178 399 l 74 429 q 140 532 90 493 q 267 571 190 571 q 374 552 325 571 q 466 514 424 533 q 544 494 508 494 q 600 513 576 494 q 631 565 624 531 l 733 535 q 668 432 718 471 q 544 393 618 393 q 447 412 494 393 q 353 449 399 431 q 267 468 308 468 q 208 451 232 468 q 178 399 185 433 m 178 140 l 74 171 q 139 274 89 235 q 264 313 189 313 q 372 294 322 313 q 464 256 421 275 q 543 236 507 236 q 599 254 575 236 q 631 307 624 272 l 733 276 q 668 174 718 213 q 544 135 618 135 q 447 153 494 135 q 353 191 399 172 q 267 210 308 210 q 208 192 232 210 q 178 140 185 175 z "},"≠":{"ha":836,"x_min":74,"x_max":763,"o":"m 107 0 l 225 168 l 74 168 l 74 278 l 303 278 l 406 426 l 74 426 l 74 538 l 483 538 l 590 689 l 728 689 l 622 538 l 763 538 l 763 426 l 544 426 l 440 278 l 763 278 l 763 168 l 364 168 l 246 0 l 107 0 z "},"≤":{"ha":804,"x_min":74,"x_max":731,"o":"m 731 139 l 74 371 l 74 468 l 731 701 l 731 575 l 219 419 l 731 264 l 731 139 m 74 0 l 74 111 l 731 111 l 731 0 l 74 0 z "},"≥":{"ha":804,"x_min":74,"x_max":731,"o":"m 74 139 l 74 264 l 585 419 l 74 575 l 74 701 l 731 468 l 731 371 l 74 139 m 74 0 l 74 111 l 731 111 l 731 0 l 74 0 z "},"◊":{"ha":779,"x_min":74,"x_max":706,"o":"m 390 -101 l 74 438 l 390 976 l 706 438 l 390 -101 m 390 106 l 585 438 l 390 769 l 194 438 l 390 106 z "},"∑":{"ha":815,"x_min":74,"x_max":742,"o":"m 74 -224 l 74 -111 l 415 353 l 74 815 l 74 928 l 742 928 l 742 815 l 214 815 l 554 353 l 214 -111 l 742 -111 l 742 -224 l 74 -224 z "},"−":{"ha":836,"x_min":74,"x_max":763,"o":"m 74 290 l 74 400 l 763 400 l 763 290 l 74 290 z "},"∕":{"ha":831,"x_min":21,"x_max":810,"o":"m 21 0 l 671 929 l 810 929 l 160 0 l 21 0 z "},"∙":{"ha":326,"x_min":74,"x_max":253,"o":"m 164 265 q 98 293 122 265 q 74 354 74 321 q 100 418 74 392 q 164 444 126 444 q 226 418 200 444 q 253 356 253 392 q 226 292 253 319 q 164 265 200 265 z "},"√":{"ha":808,"x_min":74,"x_max":735,"o":"m 388 -224 l 221 201 l 74 201 l 74 313 l 299 313 l 442 -51 l 613 929 l 735 929 l 525 -224 l 388 -224 z "},"∞":{"ha":1074,"x_min":74,"x_max":1000,"o":"m 296 144 q 135 203 197 144 q 74 356 74 263 q 138 505 74 446 q 304 564 201 564 q 436 526 379 564 q 538 440 493 489 q 638 526 582 489 q 769 564 694 564 q 936 505 872 564 q 1000 356 1000 446 q 938 203 1000 263 q 778 144 876 144 q 643 184 701 144 q 538 275 585 224 q 432 184 490 224 q 296 144 374 144 m 301 250 q 385 274 346 250 q 471 356 424 297 q 395 429 433 400 q 306 458 357 458 q 220 431 254 458 q 186 356 186 403 q 219 281 186 313 q 301 250 251 250 m 772 250 q 855 281 822 250 q 888 356 888 313 q 853 431 888 403 q 768 458 819 458 q 680 429 718 458 q 604 356 642 400 q 690 274 653 297 q 772 250 728 250 z "},"Ω":{"ha":954,"x_min":69,"x_max":885,"o":"m 69 0 l 69 113 l 279 113 l 279 181 q 128 327 186 233 q 69 535 69 421 q 101 694 69 619 q 188 824 132 768 q 318 913 244 881 q 476 944 392 944 q 635 913 561 944 q 765 824 710 881 q 853 694 821 768 q 885 535 885 619 q 827 327 885 421 q 675 181 769 233 l 675 113 l 885 113 l 885 0 l 557 0 l 557 240 q 674 301 622 258 q 754 404 725 343 q 783 535 783 465 q 742 689 783 619 q 631 800 700 758 q 476 842 561 842 q 324 800 393 842 q 213 689 254 758 q 171 535 171 619 q 200 404 171 465 q 281 301 229 343 q 397 240 332 258 l 397 0 l 69 0 z "},"℮":{"ha":864,"x_min":74,"x_max":790,"o":"m 432 -17 q 305 7 368 -17 q 190 77 242 31 q 106 194 138 124 q 74 356 74 264 q 99 478 74 417 q 172 589 125 539 q 285 669 219 639 q 432 700 351 700 q 612 652 531 700 q 742 524 693 604 q 790 344 790 443 l 221 344 l 221 108 q 317 49 263 71 q 432 28 371 28 q 564 57 503 28 q 668 135 625 86 l 714 121 q 592 21 665 58 q 432 -17 518 -17 m 221 388 l 643 388 l 643 574 q 547 634 601 613 q 432 656 493 656 q 317 634 371 656 q 221 574 263 613 l 221 388 z "},"∂":{"ha":808,"x_min":74,"x_max":736,"o":"m 404 -17 q 285 4 344 -17 q 178 69 226 25 q 102 181 131 113 q 74 342 74 249 q 102 503 74 436 q 178 615 131 571 q 285 679 226 658 q 404 700 344 700 q 501 683 447 700 q 588 625 554 667 q 503 759 560 714 q 368 819 446 804 q 197 831 290 833 l 197 944 q 294 942 239 944 q 411 924 350 939 q 530 876 472 910 q 634 781 588 842 q 708 623 681 719 q 736 385 736 526 q 735 364 736 375 q 735 342 735 353 q 681 132 731 211 q 558 18 632 53 q 404 -17 485 -17 m 404 85 q 501 112 454 85 q 579 196 549 139 q 610 342 610 253 q 579 487 610 431 q 501 570 549 543 q 404 597 454 597 q 307 570 354 597 q 228 487 260 543 q 197 342 197 431 q 228 196 197 253 q 307 112 260 139 q 404 85 354 85 z "},"Δ":{"ha":1054,"x_min":74,"x_max":981,"o":"m 74 0 l 526 944 l 981 0 l 74 0 m 247 108 l 806 108 l 526 692 l 247 108 z "},"∏":{"ha":813,"x_min":74,"x_max":739,"o":"m 74 -224 l 74 928 l 739 928 l 739 -224 l 625 -224 l 625 815 l 186 815 l 186 -224 l 74 -224 z "},"π":{"ha":821,"x_min":28,"x_max":765,"o":"m 144 0 l 144 575 l 28 575 l 28 689 l 765 689 l 765 575 l 649 575 l 649 193 q 659 121 649 139 q 719 103 669 103 l 765 103 l 765 0 l 694 0 q 594 13 629 0 q 545 64 558 26 q 532 172 532 101 l 532 575 l 257 575 l 257 0 l 144 0 z "},"˝":{"ha":575,"x_min":74,"x_max":501,"o":"m 74 794 l 207 965 q 246 983 221 983 q 283 968 268 983 q 299 931 299 953 q 296 911 299 921 q 283 893 293 901 l 171 794 l 74 794 m 276 794 l 410 965 q 449 983 424 983 q 485 967 469 983 q 501 931 501 951 q 499 911 501 921 q 486 893 496 901 l 374 794 l 276 794 z "},"˜":{"ha":604,"x_min":74,"x_max":531,"o":"m 396 799 q 351 806 374 799 q 301 828 329 814 q 262 849 281 839 q 222 858 243 858 q 164 801 171 858 l 74 801 q 126 910 86 875 q 221 946 165 946 q 288 931 260 946 q 340 901 315 917 q 393 886 364 886 q 426 894 414 886 q 447 918 438 903 q 467 939 456 933 q 488 944 478 944 q 519 931 507 944 q 531 901 531 918 q 513 857 531 881 q 464 816 494 833 q 396 799 433 799 z "},"–":{"ha":667,"x_min":57,"x_max":610,"o":"m 57 289 l 57 399 l 610 399 l 610 289 l 57 289 z "},"—":{"ha":1111,"x_min":57,"x_max":1054,"o":"m 57 289 l 57 399 l 1054 399 l 1054 289 l 57 289 z "},"™":{"ha":1178,"x_min":74,"x_max":1104,"o":"m 546 406 l 546 928 l 696 928 l 825 533 l 954 928 l 1104 928 l 1104 406 l 1011 406 l 1011 793 l 875 406 l 775 406 l 639 793 l 639 406 l 546 406 m 238 406 l 238 844 l 74 844 l 74 928 l 494 928 l 494 844 l 331 844 l 331 406 l 238 406 z "},"ℓ":{"ha":625,"x_min":74,"x_max":551,"o":"m 363 -17 q 211 39 257 -17 q 165 217 165 94 l 165 261 l 74 192 l 74 315 l 165 386 l 165 704 q 212 881 165 818 q 367 944 258 944 q 501 889 454 944 q 547 747 547 833 q 517 599 547 665 q 428 472 486 532 q 283 349 369 413 l 283 210 q 310 109 283 133 q 376 85 338 85 q 443 101 413 85 q 500 139 474 117 l 551 58 q 470 6 519 29 q 363 -17 421 -17 m 283 478 q 397 599 361 532 q 433 743 433 667 q 413 823 433 799 q 360 847 393 847 q 301 820 319 847 q 283 719 283 793 l 283 478 z "},"Ł":{"ha":796,"x_min":28,"x_max":782,"o":"m 153 0 l 153 375 l 28 300 l 28 399 l 153 472 l 153 929 l 283 929 l 283 551 l 533 701 l 533 603 l 283 453 l 283 113 l 782 113 l 782 0 l 153 0 z "},"ł":{"ha":329,"x_min":21,"x_max":308,"o":"m 258 0 q 156 14 192 0 q 108 65 121 28 q 94 172 94 101 l 94 379 l 21 336 l 21 433 l 94 478 l 94 928 l 211 928 l 211 547 l 308 606 l 308 507 l 211 449 l 211 193 q 222 121 211 139 q 283 103 233 103 l 308 103 l 308 0 l 258 0 z "},"ø":{"ha":767,"x_min":53,"x_max":714,"o":"m 383 -17 q 273 1 328 -17 q 174 56 218 18 l 115 -12 l 63 33 l 124 107 q 72 208 92 150 q 53 342 53 267 q 81 503 53 435 q 158 615 110 571 q 265 679 206 658 q 383 700 324 700 q 485 685 435 700 q 578 639 535 671 l 635 704 l 688 658 l 631 590 q 691 485 668 547 q 714 342 714 424 q 685 181 714 249 q 609 69 657 113 q 502 4 561 25 q 383 -17 443 -17 m 206 203 l 506 553 q 447 587 479 576 q 383 597 415 597 q 286 570 333 597 q 208 487 239 543 q 176 342 176 431 q 184 265 176 300 q 206 203 192 231 m 383 86 q 481 113 433 86 q 558 197 528 140 q 589 342 589 253 q 579 429 589 390 q 551 499 569 468 l 247 143 q 312 100 276 114 q 383 86 347 86 z "},"Ø":{"ha":1010,"x_min":69,"x_max":940,"o":"m 504 -17 q 348 10 419 -17 q 222 83 276 36 l 143 -8 l 90 38 l 174 135 q 97 281 124 197 q 69 463 69 365 q 123 712 69 603 q 274 883 176 821 q 504 944 371 944 q 658 919 588 944 q 782 847 728 894 l 856 935 l 910 890 l 832 797 q 913 649 885 733 q 940 463 940 564 q 887 215 940 324 q 736 45 833 107 q 504 -17 639 -17 m 258 235 l 703 754 q 504 832 622 832 q 352 790 421 832 q 243 665 283 747 q 203 463 203 583 q 258 235 203 325 m 504 93 q 658 136 589 93 q 767 262 726 179 q 807 463 807 344 q 791 595 807 536 q 747 699 775 654 l 301 176 q 504 93 382 93 z "},"Þ":{"ha":800,"x_min":106,"x_max":747,"o":"m 106 0 l 106 928 l 222 928 l 222 733 l 399 733 q 580 713 501 733 q 703 638 658 693 q 747 479 747 583 q 703 321 747 375 q 580 247 658 267 q 399 226 501 226 l 222 226 l 222 0 l 106 0 m 222 339 l 411 339 q 513 347 468 339 q 585 385 558 356 q 613 478 613 414 q 585 572 613 542 q 513 611 558 601 q 411 621 468 621 l 222 621 l 222 339 z "},"æ":{"ha":1214,"x_min":53,"x_max":1179,"o":"m 290 -17 q 171 7 225 -17 q 85 75 117 31 q 53 182 53 119 q 115 314 53 265 q 282 384 176 363 q 518 406 388 406 l 518 443 q 508 513 518 475 q 465 578 497 550 q 363 606 432 606 q 260 577 300 606 q 210 499 221 549 l 97 532 q 201 657 126 614 q 361 700 276 700 q 601 589 542 700 q 712 671 647 642 q 853 700 776 700 q 998 667 936 700 q 1101 580 1060 635 q 1160 456 1142 525 q 1174 313 1179 386 l 643 313 q 682 176 647 226 q 765 106 717 126 q 857 86 814 86 q 953 105 914 86 q 1018 154 993 124 l 1131 121 q 1022 22 1092 61 q 857 -17 953 -17 q 691 21 761 -17 q 579 122 621 58 q 472 23 544 63 q 290 -17 400 -17 m 646 406 l 1051 406 q 1026 499 1050 454 q 958 572 1001 543 q 853 600 914 600 q 756 581 801 600 q 681 518 710 561 q 646 406 651 475 m 315 75 q 477 132 426 75 q 528 290 528 189 l 528 313 q 276 284 369 313 q 182 185 182 256 q 217 106 182 136 q 315 75 253 75 z "},"ð":{"ha":788,"x_min":53,"x_max":718,"o":"m 379 -17 q 207 27 281 -17 q 93 144 133 71 q 53 303 53 217 q 92 467 53 396 q 199 578 131 538 q 353 618 267 618 q 505 581 444 618 q 597 489 565 544 q 565 651 592 585 q 494 760 539 717 l 393 658 l 343 708 l 435 800 q 349 828 397 819 q 243 836 301 836 l 243 943 q 390 929 321 943 q 515 881 458 915 l 579 944 l 629 894 l 574 839 q 656 728 624 794 q 703 582 688 661 q 718 421 718 503 q 702 259 718 338 q 648 118 686 181 q 544 19 610 56 q 379 -17 478 -17 m 379 82 q 527 142 472 82 q 582 299 582 203 q 527 455 582 394 q 379 515 472 515 q 233 455 288 515 q 178 299 178 394 q 233 142 178 203 q 379 82 288 82 z "},"þ":{"ha":786,"x_min":97,"x_max":733,"o":"m 97 -224 l 97 929 l 214 929 l 214 581 q 301 668 246 635 q 438 701 357 701 q 584 659 517 701 q 692 537 651 617 q 733 342 733 457 q 692 149 733 229 q 584 26 651 68 q 438 -17 517 -17 q 301 17 357 -17 q 214 104 246 50 l 214 -224 l 97 -224 m 407 83 q 549 151 496 83 q 603 342 603 219 q 549 533 603 465 q 407 601 496 601 q 265 533 318 601 q 211 342 211 465 q 265 151 211 219 q 407 83 318 83 z "},"×":{"ha":733,"x_min":74,"x_max":660,"o":"m 153 54 l 74 135 l 288 347 l 74 561 l 153 642 l 367 428 l 581 642 l 660 561 l 447 347 l 660 135 l 581 54 l 367 268 l 153 54 z "},"÷":{"ha":836,"x_min":74,"x_max":763,"o":"m 418 492 q 354 517 381 492 q 328 581 328 543 q 354 644 328 618 q 418 671 381 671 q 481 644 456 671 q 507 581 507 618 q 481 517 507 543 q 418 492 456 492 m 74 289 l 74 401 l 763 401 l 763 289 l 74 289 m 418 19 q 354 46 381 19 q 328 110 328 72 q 354 172 328 146 q 418 199 381 199 q 481 172 456 199 q 507 110 507 146 q 481 46 507 72 q 418 19 456 19 z "},"Œ":{"ha":1461,"x_min":69,"x_max":1408,"o":"m 504 -17 q 274 45 371 -17 q 123 216 176 107 q 69 465 69 325 q 123 715 69 607 q 274 883 176 822 q 504 944 371 944 q 675 914 599 944 q 807 829 751 883 l 807 929 l 1408 929 l 1408 817 l 910 817 l 910 535 l 1278 535 l 1278 422 l 910 422 l 910 113 l 1408 113 l 1408 0 l 807 0 l 807 104 q 675 15 751 47 q 504 -17 599 -17 m 504 96 q 656 138 588 96 q 766 261 725 179 q 807 464 807 343 q 763 676 807 594 q 650 797 719 758 q 504 836 581 836 q 352 794 421 836 q 243 669 283 751 q 203 465 203 586 q 243 263 203 346 q 352 138 283 181 q 504 96 421 96 z "},"œ":{"ha":1288,"x_min":53,"x_max":1253,"o":"m 383 -17 q 265 4 324 -17 q 158 69 206 25 q 81 181 110 113 q 53 342 53 249 q 81 503 53 436 q 158 615 110 571 q 265 681 206 660 q 383 701 324 701 q 533 667 460 701 q 654 561 607 633 q 769 665 699 628 q 925 701 840 701 q 1071 669 1008 701 q 1174 581 1133 636 q 1234 456 1215 525 q 1247 313 1253 386 l 717 313 q 755 176 719 226 q 839 106 790 126 q 929 86 888 86 q 1026 105 988 86 q 1090 154 1065 124 l 1203 121 q 1095 22 1164 61 q 929 -17 1026 -17 q 765 21 835 -17 q 653 122 694 58 q 532 17 606 51 q 383 -17 458 -17 m 718 406 l 1124 406 q 1099 500 1122 456 q 1031 573 1075 544 q 925 601 988 601 q 828 581 874 601 q 753 518 783 561 q 718 406 724 475 m 383 86 q 481 113 433 86 q 558 197 528 140 q 589 342 589 253 q 558 488 589 432 q 481 572 528 544 q 383 599 433 599 q 286 572 333 599 q 208 488 239 544 q 176 342 176 432 q 208 197 176 253 q 286 113 239 140 q 383 86 333 86 z "},"Â":{"ha":869,"x_min":14,"x_max":856,"o":"m 14 0 l 363 929 l 508 929 l 856 0 l 717 0 l 646 203 l 224 203 l 153 0 l 14 0 m 264 315 l 606 315 l 435 797 l 264 315 m 210 1038 l 365 1178 q 435 1204 393 1204 q 503 1178 475 1204 l 658 1038 l 528 1038 l 433 1122 l 340 1038 l 210 1038 z "},"Ã":{"ha":869,"x_min":14,"x_max":856,"o":"m 14 0 l 363 929 l 508 929 l 856 0 l 717 0 l 646 203 l 224 203 l 153 0 l 14 0 m 264 315 l 606 315 l 435 797 l 264 315 m 528 1038 q 483 1045 506 1038 q 433 1067 461 1053 q 394 1088 413 1078 q 354 1097 375 1097 q 296 1040 303 1097 l 206 1040 q 258 1149 218 1114 q 353 1185 297 1185 q 419 1170 392 1185 q 472 1140 447 1156 q 525 1125 496 1125 q 558 1133 546 1125 q 579 1157 569 1142 q 599 1178 588 1172 q 619 1183 610 1183 q 651 1170 639 1183 q 663 1140 663 1157 q 644 1096 663 1119 q 596 1055 626 1072 q 528 1038 565 1038 z "},"Ä":{"ha":869,"x_min":14,"x_max":856,"o":"m 14 0 l 363 929 l 508 929 l 856 0 l 717 0 l 646 203 l 224 203 l 153 0 l 14 0 m 264 315 l 606 315 l 435 797 l 264 315 m 288 1028 q 235 1050 257 1028 q 213 1103 213 1072 q 235 1155 213 1133 q 288 1176 257 1176 q 341 1155 319 1176 q 363 1103 363 1133 q 341 1050 363 1072 q 288 1028 319 1028 m 581 1028 q 528 1050 550 1028 q 507 1103 507 1072 q 528 1155 507 1133 q 581 1176 550 1176 q 634 1155 613 1176 q 656 1103 656 1133 q 634 1050 656 1072 q 581 1028 613 1028 z "},"Å":{"ha":869,"x_min":14,"x_max":856,"o":"m 14 0 l 363 929 l 508 929 l 856 0 l 717 0 l 646 203 l 224 203 l 153 0 l 14 0 m 264 315 l 606 315 l 435 797 l 264 315 m 438 861 q 360 882 394 861 q 304 938 325 903 q 283 1013 283 972 q 304 1088 283 1054 q 360 1143 325 1122 q 438 1164 394 1164 q 544 1119 501 1164 q 586 1013 586 1074 q 544 906 586 951 q 438 861 501 861 m 435 942 q 486 963 465 942 q 507 1013 507 983 q 486 1063 507 1042 q 435 1083 465 1083 q 383 1063 404 1083 q 363 1013 363 1042 q 383 963 363 983 q 435 942 404 942 z "},"À":{"ha":869,"x_min":14,"x_max":856,"o":"m 14 0 l 363 929 l 508 929 l 856 0 l 717 0 l 646 203 l 224 203 l 153 0 l 14 0 m 264 315 l 606 315 l 435 797 l 264 315 m 400 1033 q 374 1049 396 1036 q 326 1079 351 1063 q 288 1106 300 1096 q 265 1150 265 1125 q 280 1185 265 1171 q 315 1200 294 1200 q 338 1197 326 1200 q 358 1182 349 1193 l 506 1033 l 400 1033 z "},"Á":{"ha":869,"x_min":14,"x_max":856,"o":"m 14 0 l 363 929 l 508 929 l 856 0 l 717 0 l 646 203 l 224 203 l 153 0 l 14 0 m 264 315 l 606 315 l 435 797 l 264 315 m 354 1033 q 378 1058 358 1038 q 424 1106 399 1079 q 472 1154 450 1132 q 503 1183 494 1176 q 543 1200 522 1200 q 578 1185 564 1200 q 593 1150 593 1171 q 571 1106 593 1124 q 534 1079 560 1096 q 486 1049 508 1063 q 460 1033 464 1036 l 354 1033 z "},"Ā":{"ha":869,"x_min":14,"x_max":856,"o":"m 14 0 l 363 929 l 508 929 l 856 0 l 717 0 l 646 203 l 224 203 l 153 0 l 14 0 m 264 315 l 606 315 l 435 797 l 264 315 m 243 1058 l 243 1151 l 626 1151 l 626 1058 l 243 1058 z "},"ā":{"ha":731,"x_min":53,"x_max":660,"o":"m 290 -17 q 171 7 225 -17 q 85 75 117 31 q 53 182 53 119 q 110 311 53 264 q 273 384 168 358 q 518 425 378 410 q 483 560 521 513 q 363 607 446 607 q 260 578 300 607 q 210 500 221 550 l 97 533 q 197 656 125 613 q 361 700 268 700 q 570 633 504 700 q 636 421 636 565 l 636 260 q 643 111 636 174 q 660 0 650 49 l 553 0 l 525 94 q 438 13 494 43 q 290 -17 381 -17 m 315 76 q 418 96 369 76 q 497 162 467 115 q 528 289 528 208 l 528 332 q 344 305 422 321 q 224 260 267 289 q 182 185 182 232 q 217 106 182 136 q 315 76 253 76 m 174 835 l 174 928 l 557 928 l 557 835 l 174 835 z "},"à":{"ha":731,"x_min":53,"x_max":660,"o":"m 290 -17 q 171 7 225 -17 q 85 75 117 31 q 53 182 53 119 q 110 311 53 264 q 273 384 168 358 q 518 425 378 410 q 483 560 521 513 q 363 607 446 607 q 260 578 300 607 q 210 500 221 550 l 97 533 q 197 656 125 613 q 361 700 268 700 q 570 633 504 700 q 636 421 636 565 l 636 260 q 643 111 636 174 q 660 0 650 49 l 553 0 l 525 94 q 438 13 494 43 q 290 -17 381 -17 m 315 76 q 418 96 369 76 q 497 162 467 115 q 528 289 528 208 l 528 332 q 344 305 422 321 q 224 260 267 289 q 182 185 182 232 q 217 106 182 136 q 315 76 253 76 m 343 793 q 288 840 317 815 q 239 883 258 864 q 220 909 225 899 q 215 929 215 919 q 231 967 215 951 q 268 982 246 982 q 290 978 279 982 q 311 961 301 974 l 440 793 l 343 793 z "},"â":{"ha":731,"x_min":53,"x_max":660,"o":"m 290 -17 q 171 7 225 -17 q 85 75 117 31 q 53 182 53 119 q 110 311 53 264 q 273 384 168 358 q 518 425 378 410 q 483 560 521 513 q 363 607 446 607 q 260 578 300 607 q 210 500 221 550 l 97 533 q 197 656 125 613 q 361 700 268 700 q 570 633 504 700 q 636 421 636 565 l 636 260 q 643 111 636 174 q 660 0 650 49 l 553 0 l 525 94 q 438 13 494 43 q 290 -17 381 -17 m 315 76 q 418 96 369 76 q 497 162 467 115 q 528 289 528 208 l 528 332 q 344 305 422 321 q 224 260 267 289 q 182 185 182 232 q 217 106 182 136 q 315 76 253 76 m 140 799 l 296 939 q 365 965 324 965 q 433 939 406 965 l 589 799 l 458 799 l 364 883 l 271 799 l 140 799 z "},"ã":{"ha":731,"x_min":53,"x_max":660,"o":"m 290 -17 q 171 7 225 -17 q 85 75 117 31 q 53 182 53 119 q 110 311 53 264 q 273 384 168 358 q 518 425 378 410 q 483 560 521 513 q 363 607 446 607 q 260 578 300 607 q 210 500 221 550 l 97 533 q 197 656 125 613 q 361 700 268 700 q 570 633 504 700 q 636 421 636 565 l 636 260 q 643 111 636 174 q 660 0 650 49 l 553 0 l 525 94 q 438 13 494 43 q 290 -17 381 -17 m 315 76 q 418 96 369 76 q 497 162 467 115 q 528 289 528 208 l 528 332 q 344 305 422 321 q 224 260 267 289 q 182 185 182 232 q 217 106 182 136 q 315 76 253 76 m 458 799 q 414 806 436 799 q 364 828 392 814 q 324 849 343 839 q 285 858 306 858 q 226 801 233 858 l 136 801 q 188 910 149 875 q 283 946 228 946 q 350 931 322 946 q 402 901 378 917 q 456 886 426 886 q 488 894 476 886 q 510 918 500 903 q 529 939 518 933 q 550 944 540 944 q 581 931 569 944 q 593 901 593 918 q 575 857 593 881 q 526 816 557 833 q 458 799 496 799 z "},"ä":{"ha":731,"x_min":53,"x_max":660,"o":"m 290 -17 q 171 7 225 -17 q 85 75 117 31 q 53 182 53 119 q 110 311 53 264 q 273 384 168 358 q 518 425 378 410 q 483 560 521 513 q 363 607 446 607 q 260 578 300 607 q 210 500 221 550 l 97 533 q 197 656 125 613 q 361 700 268 700 q 570 633 504 700 q 636 421 636 565 l 636 260 q 643 111 636 174 q 660 0 650 49 l 553 0 l 525 94 q 438 13 494 43 q 290 -17 381 -17 m 315 76 q 418 96 369 76 q 497 162 467 115 q 528 289 528 208 l 528 332 q 344 305 422 321 q 224 260 267 289 q 182 185 182 232 q 217 106 182 136 q 315 76 253 76 m 218 819 q 165 842 188 819 q 143 894 143 864 q 165 947 143 925 q 218 968 188 968 q 272 947 250 968 q 293 894 293 925 q 272 842 293 864 q 218 819 250 819 m 511 819 q 459 842 481 819 q 438 894 438 864 q 459 947 438 925 q 511 968 481 968 q 565 947 543 968 q 586 894 586 925 q 565 842 586 864 q 511 819 543 819 z "},"å":{"ha":731,"x_min":53,"x_max":660,"o":"m 290 -17 q 171 7 225 -17 q 85 75 117 31 q 53 182 53 119 q 110 311 53 264 q 273 384 168 358 q 518 425 378 410 q 483 560 521 513 q 363 607 446 607 q 260 578 300 607 q 210 500 221 550 l 97 533 q 197 656 125 613 q 361 700 268 700 q 570 633 504 700 q 636 421 636 565 l 636 260 q 643 111 636 174 q 660 0 650 49 l 553 0 l 525 94 q 438 13 494 43 q 290 -17 381 -17 m 315 76 q 418 96 369 76 q 497 162 467 115 q 528 289 528 208 l 528 332 q 344 305 422 321 q 224 260 267 289 q 182 185 182 232 q 217 106 182 136 q 315 76 253 76 m 368 776 q 290 797 325 776 q 235 853 256 818 q 214 928 214 888 q 235 1003 214 969 q 290 1058 256 1038 q 368 1079 325 1079 q 474 1034 432 1079 q 517 928 517 989 q 474 822 517 867 q 368 776 432 776 m 365 857 q 417 878 396 857 q 438 928 438 899 q 417 978 438 957 q 365 999 396 999 q 314 978 335 999 q 293 928 293 957 q 314 878 293 899 q 365 857 335 857 z "},"á":{"ha":731,"x_min":53,"x_max":660,"o":"m 290 -17 q 171 7 225 -17 q 85 75 117 31 q 53 182 53 119 q 110 311 53 264 q 273 384 168 358 q 518 425 378 410 q 483 560 521 513 q 363 607 446 607 q 260 578 300 607 q 210 500 221 550 l 97 533 q 197 656 125 613 q 361 700 268 700 q 570 633 504 700 q 636 421 636 565 l 636 260 q 643 111 636 174 q 660 0 650 49 l 553 0 l 525 94 q 438 13 494 43 q 290 -17 381 -17 m 315 76 q 418 96 369 76 q 497 162 467 115 q 528 289 528 208 l 528 332 q 344 305 422 321 q 224 260 267 289 q 182 185 182 232 q 217 106 182 136 q 315 76 253 76 m 300 793 q 322 822 304 799 q 361 874 339 844 q 403 928 383 903 q 433 964 424 954 q 472 982 447 982 q 510 967 494 982 q 525 929 525 953 q 522 910 525 919 q 507 890 518 901 q 472 857 497 879 q 424 816 447 835 q 397 793 401 797 l 300 793 z "},"Ç":{"ha":911,"x_min":69,"x_max":858,"o":"m 490 -17 q 264 45 358 -17 q 119 215 169 107 q 69 465 69 324 q 123 717 69 610 q 274 885 176 825 q 501 944 371 944 q 712 890 618 944 q 853 735 806 836 l 739 693 q 647 795 708 756 q 494 835 585 835 q 347 793 413 835 q 242 669 281 751 q 203 465 203 586 q 240 265 203 349 q 345 138 278 182 q 499 93 413 93 q 651 132 589 93 q 744 235 713 171 l 858 193 q 711 37 808 90 q 490 -17 614 -17 m 482 -251 q 426 -244 456 -251 q 360 -224 396 -237 l 379 -175 q 423 -190 403 -185 q 460 -194 443 -194 q 513 -179 496 -194 q 531 -147 531 -164 q 519 -123 531 -133 q 481 -112 507 -112 q 460 -115 471 -112 q 438 -119 450 -117 q 409 -115 419 -125 q 399 -93 399 -106 q 403 -79 399 -85 l 474 35 l 521 6 l 479 -62 q 501 -58 490 -60 q 521 -57 511 -57 q 593 -83 569 -57 q 617 -142 617 -108 q 583 -216 617 -181 q 482 -251 550 -251 z "},"ç":{"ha":694,"x_min":53,"x_max":649,"o":"m 374 -17 q 203 30 275 -17 q 92 157 131 76 q 53 342 53 238 q 94 526 53 444 q 210 653 135 607 q 386 700 285 700 q 546 654 479 700 q 646 544 613 608 l 539 506 q 474 572 517 547 q 378 597 431 597 q 281 570 326 597 q 207 487 235 543 q 179 343 179 431 q 208 199 179 257 q 281 114 236 142 q 378 86 326 86 q 477 112 435 86 q 542 176 519 138 l 649 138 q 538 27 610 71 q 374 -17 465 -17 m 374 -251 q 317 -244 347 -251 q 251 -224 288 -237 l 271 -175 q 315 -190 294 -185 q 351 -194 335 -194 q 405 -179 388 -194 q 422 -147 422 -164 q 410 -123 422 -133 q 372 -112 399 -112 q 352 -115 363 -112 q 329 -119 342 -117 q 301 -115 311 -125 q 290 -93 290 -106 q 294 -79 290 -85 l 365 35 l 413 6 l 371 -62 q 392 -58 382 -60 q 413 -57 403 -57 q 485 -83 461 -57 q 508 -142 508 -108 q 475 -216 508 -181 q 374 -251 442 -251 z "},"È":{"ha":788,"x_min":106,"x_max":735,"o":"m 106 0 l 106 928 l 735 928 l 735 815 l 236 815 l 236 533 l 604 533 l 604 421 l 236 421 l 236 113 l 735 113 l 735 0 l 106 0 m 388 1033 q 361 1049 383 1036 q 313 1079 339 1063 q 275 1106 288 1096 q 253 1150 253 1125 q 267 1185 253 1171 q 303 1200 282 1200 q 325 1197 314 1200 q 346 1182 336 1193 l 493 1033 l 388 1033 z "},"É":{"ha":788,"x_min":106,"x_max":735,"o":"m 106 0 l 106 928 l 735 928 l 735 815 l 236 815 l 236 533 l 604 533 l 604 421 l 236 421 l 236 113 l 735 113 l 735 0 l 106 0 m 342 1033 q 366 1058 346 1038 q 412 1106 386 1079 q 460 1154 438 1132 q 490 1183 482 1176 q 531 1200 510 1200 q 566 1185 551 1200 q 581 1150 581 1171 q 558 1106 581 1124 q 522 1079 547 1096 q 474 1049 496 1063 q 447 1033 451 1036 l 342 1033 z "},"Ê":{"ha":788,"x_min":106,"x_max":735,"o":"m 106 0 l 106 928 l 735 928 l 735 815 l 236 815 l 236 533 l 604 533 l 604 421 l 236 421 l 236 113 l 735 113 l 735 0 l 106 0 m 197 1038 l 353 1178 q 422 1204 381 1204 q 490 1178 463 1204 l 646 1038 l 515 1038 l 421 1122 l 328 1038 l 197 1038 z "},"Ë":{"ha":788,"x_min":106,"x_max":735,"o":"m 106 0 l 106 928 l 735 928 l 735 815 l 236 815 l 236 533 l 604 533 l 604 421 l 236 421 l 236 113 l 735 113 l 735 0 l 106 0 m 275 1028 q 222 1050 244 1028 q 200 1103 200 1072 q 222 1155 200 1133 q 275 1176 244 1176 q 328 1155 307 1176 q 350 1103 350 1133 q 328 1050 350 1072 q 275 1028 307 1028 m 568 1028 q 516 1050 538 1028 q 494 1103 494 1072 q 516 1155 494 1133 q 568 1176 538 1176 q 622 1155 600 1176 q 643 1103 643 1133 q 622 1050 643 1072 q 568 1028 600 1028 z "},"è":{"ha":749,"x_min":53,"x_max":714,"o":"m 390 -17 q 207 31 282 -17 q 92 160 132 79 q 53 343 53 242 q 97 533 53 453 q 217 656 142 613 q 388 700 293 700 q 532 667 469 700 q 635 580 594 635 q 695 456 676 525 q 708 313 714 386 l 178 313 q 216 176 181 226 q 300 106 251 126 q 390 86 349 86 q 488 105 449 86 q 551 154 528 124 l 664 121 q 557 22 626 61 q 390 -17 488 -17 m 179 406 l 585 406 q 560 499 585 454 q 492 572 536 543 q 388 600 449 600 q 290 581 336 600 q 215 518 244 561 q 179 406 185 475 m 368 793 q 313 840 342 815 q 264 883 283 864 q 245 909 250 899 q 240 929 240 919 q 256 967 240 951 q 293 982 271 982 q 315 978 304 982 q 336 961 326 974 l 465 793 l 368 793 z "},"é":{"ha":749,"x_min":53,"x_max":714,"o":"m 390 -17 q 207 31 282 -17 q 92 160 132 79 q 53 343 53 242 q 97 533 53 453 q 217 656 142 613 q 388 700 293 700 q 532 667 469 700 q 635 580 594 635 q 695 456 676 525 q 708 313 714 386 l 178 313 q 216 176 181 226 q 300 106 251 126 q 390 86 349 86 q 488 105 449 86 q 551 154 528 124 l 664 121 q 557 22 626 61 q 390 -17 488 -17 m 179 406 l 585 406 q 560 499 585 454 q 492 572 536 543 q 388 600 449 600 q 290 581 336 600 q 215 518 244 561 q 179 406 185 475 m 325 793 q 347 822 329 799 q 386 874 364 844 q 428 928 408 903 q 458 964 449 954 q 497 982 472 982 q 535 967 519 982 q 550 929 550 953 q 547 910 550 919 q 532 890 543 901 q 497 857 522 879 q 449 816 472 835 q 422 793 426 797 l 325 793 z "},"ê":{"ha":749,"x_min":53,"x_max":714,"o":"m 390 -17 q 207 31 282 -17 q 92 160 132 79 q 53 343 53 242 q 97 533 53 453 q 217 656 142 613 q 388 700 293 700 q 532 667 469 700 q 635 580 594 635 q 695 456 676 525 q 708 313 714 386 l 178 313 q 216 176 181 226 q 300 106 251 126 q 390 86 349 86 q 488 105 449 86 q 551 154 528 124 l 664 121 q 557 22 626 61 q 390 -17 488 -17 m 179 406 l 585 406 q 560 499 585 454 q 492 572 536 543 q 388 600 449 600 q 290 581 336 600 q 215 518 244 561 q 179 406 185 475 m 165 799 l 321 939 q 390 965 349 965 q 458 939 431 965 l 614 799 l 483 799 l 389 883 l 296 799 l 165 799 z "},"ë":{"ha":749,"x_min":53,"x_max":714,"o":"m 390 -17 q 207 31 282 -17 q 92 160 132 79 q 53 343 53 242 q 97 533 53 453 q 217 656 142 613 q 388 700 293 700 q 532 667 469 700 q 635 580 594 635 q 695 456 676 525 q 708 313 714 386 l 178 313 q 216 176 181 226 q 300 106 251 126 q 390 86 349 86 q 488 105 449 86 q 551 154 528 124 l 664 121 q 557 22 626 61 q 390 -17 488 -17 m 179 406 l 585 406 q 560 499 585 454 q 492 572 536 543 q 388 600 449 600 q 290 581 336 600 q 215 518 244 561 q 179 406 185 475 m 243 819 q 190 842 213 819 q 168 894 168 864 q 190 947 168 925 q 243 968 213 968 q 297 947 275 968 q 318 894 318 925 q 297 842 318 864 q 243 819 275 819 m 536 819 q 484 842 506 819 q 463 894 463 864 q 484 947 463 925 q 536 968 506 968 q 590 947 568 968 q 611 894 611 925 q 590 842 611 864 q 536 819 568 819 z "},"Ì":{"ha":575,"x_min":92,"x_max":483,"o":"m 92 0 l 92 103 l 222 103 l 222 825 l 92 825 l 92 928 l 483 928 l 483 825 l 353 825 l 353 103 l 483 103 l 483 0 l 92 0 m 253 1033 q 226 1049 249 1036 q 178 1079 204 1063 q 140 1106 153 1096 q 118 1150 118 1125 q 133 1185 118 1171 q 168 1200 147 1200 q 190 1197 179 1200 q 211 1182 201 1193 l 358 1033 l 253 1033 z "},"Í":{"ha":575,"x_min":92,"x_max":483,"o":"m 92 0 l 92 103 l 222 103 l 222 825 l 92 825 l 92 928 l 483 928 l 483 825 l 353 825 l 353 103 l 483 103 l 483 0 l 92 0 m 207 1033 q 231 1058 211 1038 q 277 1106 251 1079 q 325 1154 303 1132 q 356 1183 347 1176 q 396 1200 375 1200 q 431 1185 417 1200 q 446 1150 446 1171 q 424 1106 446 1124 q 387 1079 413 1096 q 339 1049 361 1063 q 313 1033 317 1036 l 207 1033 z "},"Î":{"ha":575,"x_min":63,"x_max":511,"o":"m 92 0 l 92 103 l 222 103 l 222 825 l 92 825 l 92 928 l 483 928 l 483 825 l 353 825 l 353 103 l 483 103 l 483 0 l 92 0 m 63 1038 l 218 1178 q 288 1204 246 1204 q 356 1178 328 1204 l 511 1038 l 381 1038 l 286 1122 l 193 1038 l 63 1038 z "},"Ï":{"ha":575,"x_min":65,"x_max":508,"o":"m 92 0 l 92 103 l 222 103 l 222 825 l 92 825 l 92 928 l 483 928 l 483 825 l 353 825 l 353 103 l 483 103 l 483 0 l 92 0 m 140 1028 q 88 1050 110 1028 q 65 1103 65 1072 q 88 1155 65 1133 q 140 1176 110 1176 q 194 1155 172 1176 q 215 1103 215 1133 q 194 1050 215 1072 q 140 1028 172 1028 m 433 1028 q 381 1050 403 1028 q 360 1103 360 1072 q 381 1155 360 1133 q 433 1176 403 1176 q 487 1155 465 1176 q 508 1103 508 1133 q 487 1050 508 1072 q 433 1028 465 1028 z "},"ì":{"ha":386,"x_min":36,"x_max":275,"o":"m 158 0 l 158 596 l 63 596 l 63 689 l 275 689 l 275 0 l 158 0 m 164 793 q 108 840 138 815 q 60 883 79 864 q 41 909 46 899 q 36 929 36 919 q 51 967 36 951 q 89 982 67 982 q 111 978 100 982 q 132 961 122 974 l 261 793 l 164 793 z "},"í":{"ha":386,"x_min":63,"x_max":346,"o":"m 158 0 l 158 596 l 63 596 l 63 689 l 275 689 l 275 0 l 158 0 m 121 793 q 142 822 125 799 q 182 874 160 844 q 224 928 204 903 q 254 964 244 954 q 293 982 268 982 q 331 967 315 982 q 346 929 346 953 q 342 910 346 919 q 328 890 339 901 q 293 857 318 879 q 245 816 268 835 q 218 793 222 797 l 121 793 z "},"î":{"ha":386,"x_min":-39,"x_max":410,"o":"m 158 0 l 158 596 l 63 596 l 63 689 l 275 689 l 275 0 l 158 0 m -39 799 l 117 939 q 186 965 144 965 q 254 939 226 965 l 410 799 l 279 799 l 185 883 l 92 799 l -39 799 z "},"ï":{"ha":386,"x_min":-36,"x_max":407,"o":"m 158 0 l 158 596 l 63 596 l 63 689 l 275 689 l 275 0 l 158 0 m 39 819 q -14 842 8 819 q -36 894 -36 864 q -14 947 -36 925 q 39 968 8 968 q 92 947 71 968 q 114 894 114 925 q 92 842 114 864 q 39 819 71 819 m 332 819 q 280 842 301 819 q 258 894 258 864 q 280 947 258 925 q 332 968 301 968 q 385 947 364 968 q 407 894 407 925 q 385 842 407 864 q 332 819 364 819 z "},"Ñ":{"ha":957,"x_min":106,"x_max":851,"o":"m 106 0 l 106 928 l 299 928 l 721 139 l 721 928 l 851 928 l 851 0 l 660 0 l 236 793 l 236 0 l 106 0 m 596 1038 q 551 1045 574 1038 q 501 1067 529 1053 q 462 1088 481 1078 q 422 1097 443 1097 q 364 1040 371 1097 l 274 1040 q 326 1149 286 1114 q 421 1185 365 1185 q 488 1170 460 1185 q 540 1140 515 1156 q 593 1125 564 1125 q 626 1133 614 1125 q 647 1157 638 1142 q 667 1178 656 1172 q 688 1183 678 1183 q 719 1170 707 1183 q 731 1140 731 1157 q 713 1096 731 1119 q 664 1055 694 1072 q 596 1038 633 1038 z "},"Ò":{"ha":1010,"x_min":69,"x_max":940,"o":"m 504 -17 q 274 45 371 -17 q 123 216 176 107 q 69 465 69 325 q 123 713 69 606 q 274 883 176 821 q 504 944 371 944 q 736 883 639 944 q 887 713 833 821 q 940 465 940 606 q 887 216 940 325 q 736 45 833 107 q 504 -17 639 -17 m 504 93 q 658 136 589 93 q 767 262 726 179 q 807 465 807 344 q 767 667 807 585 q 658 792 726 750 q 504 835 589 835 q 352 792 421 835 q 243 667 283 750 q 203 465 203 585 q 243 262 203 344 q 352 136 283 179 q 504 93 421 93 m 471 1033 q 444 1049 467 1036 q 397 1079 422 1063 q 358 1106 371 1096 q 336 1150 336 1125 q 351 1185 336 1171 q 386 1200 365 1200 q 408 1197 397 1200 q 429 1182 419 1193 l 576 1033 l 471 1033 z "},"Ó":{"ha":1010,"x_min":69,"x_max":940,"o":"m 504 -17 q 274 45 371 -17 q 123 216 176 107 q 69 465 69 325 q 123 713 69 606 q 274 883 176 821 q 504 944 371 944 q 736 883 639 944 q 887 713 833 821 q 940 465 940 606 q 887 216 940 325 q 736 45 833 107 q 504 -17 639 -17 m 504 93 q 658 136 589 93 q 767 262 726 179 q 807 465 807 344 q 767 667 807 585 q 658 792 726 750 q 504 835 589 835 q 352 792 421 835 q 243 667 283 750 q 203 465 203 585 q 243 262 203 344 q 352 136 283 179 q 504 93 421 93 m 425 1033 q 449 1058 429 1038 q 495 1106 469 1079 q 543 1154 521 1132 q 574 1183 565 1176 q 614 1200 593 1200 q 649 1185 635 1200 q 664 1150 664 1171 q 642 1106 664 1124 q 605 1079 631 1096 q 557 1049 579 1063 q 531 1033 535 1036 l 425 1033 z "},"Ô":{"ha":1010,"x_min":69,"x_max":940,"o":"m 504 -17 q 274 45 371 -17 q 123 216 176 107 q 69 465 69 325 q 123 713 69 606 q 274 883 176 821 q 504 944 371 944 q 736 883 639 944 q 887 713 833 821 q 940 465 940 606 q 887 216 940 325 q 736 45 833 107 q 504 -17 639 -17 m 504 93 q 658 136 589 93 q 767 262 726 179 q 807 465 807 344 q 767 667 807 585 q 658 792 726 750 q 504 835 589 835 q 352 792 421 835 q 243 667 283 750 q 203 465 203 585 q 243 262 203 344 q 352 136 283 179 q 504 93 421 93 m 281 1038 l 436 1178 q 506 1204 464 1204 q 574 1178 546 1204 l 729 1038 l 599 1038 l 504 1122 l 411 1038 l 281 1038 z "},"Õ":{"ha":1010,"x_min":69,"x_max":940,"o":"m 504 -17 q 274 45 371 -17 q 123 216 176 107 q 69 465 69 325 q 123 713 69 606 q 274 883 176 821 q 504 944 371 944 q 736 883 639 944 q 887 713 833 821 q 940 465 940 606 q 887 216 940 325 q 736 45 833 107 q 504 -17 639 -17 m 504 93 q 658 136 589 93 q 767 262 726 179 q 807 465 807 344 q 767 667 807 585 q 658 792 726 750 q 504 835 589 835 q 352 792 421 835 q 243 667 283 750 q 203 465 203 585 q 243 262 203 344 q 352 136 283 179 q 504 93 421 93 m 599 1038 q 554 1045 576 1038 q 504 1067 532 1053 q 465 1088 483 1078 q 425 1097 446 1097 q 367 1040 374 1097 l 276 1040 q 328 1149 289 1114 q 424 1185 368 1185 q 490 1170 463 1185 q 542 1140 518 1156 q 596 1125 567 1125 q 628 1133 617 1125 q 650 1157 640 1142 q 669 1178 658 1172 q 690 1183 681 1183 q 722 1170 710 1183 q 733 1140 733 1157 q 715 1096 733 1119 q 667 1055 697 1072 q 599 1038 636 1038 z "},"Ö":{"ha":1010,"x_min":69,"x_max":940,"o":"m 504 -17 q 274 45 371 -17 q 123 216 176 107 q 69 465 69 325 q 123 713 69 606 q 274 883 176 821 q 504 944 371 944 q 736 883 639 944 q 887 713 833 821 q 940 465 940 606 q 887 216 940 325 q 736 45 833 107 q 504 -17 639 -17 m 504 93 q 658 136 589 93 q 767 262 726 179 q 807 465 807 344 q 767 667 807 585 q 658 792 726 750 q 504 835 589 835 q 352 792 421 835 q 243 667 283 750 q 203 465 203 585 q 243 262 203 344 q 352 136 283 179 q 504 93 421 93 m 358 1028 q 306 1050 328 1028 q 283 1103 283 1072 q 306 1155 283 1133 q 358 1176 328 1176 q 412 1155 390 1176 q 433 1103 433 1133 q 412 1050 433 1072 q 358 1028 390 1028 m 651 1028 q 599 1050 621 1028 q 578 1103 578 1072 q 599 1155 578 1133 q 651 1176 621 1176 q 705 1155 683 1176 q 726 1103 726 1133 q 705 1050 726 1072 q 651 1028 683 1028 z "},"Ù":{"ha":958,"x_min":106,"x_max":853,"o":"m 479 -17 q 192 84 278 -17 q 106 388 106 185 l 106 928 l 236 928 l 236 378 q 291 168 236 240 q 479 96 346 96 q 667 168 613 96 q 722 378 722 240 l 722 928 l 853 928 l 853 388 q 767 84 853 185 q 479 -17 682 -17 m 444 1033 q 418 1049 440 1036 q 370 1079 396 1063 q 332 1106 344 1096 q 310 1150 310 1125 q 324 1185 310 1171 q 360 1200 339 1200 q 382 1197 371 1200 q 403 1182 393 1193 l 550 1033 l 444 1033 z "},"Ú":{"ha":958,"x_min":106,"x_max":853,"o":"m 479 -17 q 192 84 278 -17 q 106 388 106 185 l 106 928 l 236 928 l 236 378 q 291 168 236 240 q 479 96 346 96 q 667 168 613 96 q 722 378 722 240 l 722 928 l 853 928 l 853 388 q 767 84 853 185 q 479 -17 682 -17 m 399 1033 q 423 1058 403 1038 q 469 1106 443 1079 q 517 1154 494 1132 q 547 1183 539 1176 q 588 1200 567 1200 q 623 1185 608 1200 q 638 1150 638 1171 q 615 1106 638 1124 q 578 1079 604 1096 q 531 1049 553 1063 q 504 1033 508 1036 l 399 1033 z "},"Û":{"ha":958,"x_min":106,"x_max":853,"o":"m 479 -17 q 192 84 278 -17 q 106 388 106 185 l 106 928 l 236 928 l 236 378 q 291 168 236 240 q 479 96 346 96 q 667 168 613 96 q 722 378 722 240 l 722 928 l 853 928 l 853 388 q 767 84 853 185 q 479 -17 682 -17 m 254 1038 l 410 1178 q 479 1204 438 1204 q 547 1178 519 1204 l 703 1038 l 572 1038 l 478 1122 l 385 1038 l 254 1038 z "},"Ü":{"ha":958,"x_min":106,"x_max":853,"o":"m 479 -17 q 192 84 278 -17 q 106 388 106 185 l 106 928 l 236 928 l 236 378 q 291 168 236 240 q 479 96 346 96 q 667 168 613 96 q 722 378 722 240 l 722 928 l 853 928 l 853 388 q 767 84 853 185 q 479 -17 682 -17 m 332 1028 q 279 1050 301 1028 q 257 1103 257 1072 q 279 1155 257 1133 q 332 1176 301 1176 q 385 1155 364 1176 q 407 1103 407 1133 q 385 1050 407 1072 q 332 1028 364 1028 m 625 1028 q 573 1050 594 1028 q 551 1103 551 1072 q 573 1155 551 1133 q 625 1176 594 1176 q 678 1155 657 1176 q 700 1103 700 1133 q 678 1050 700 1072 q 625 1028 657 1028 z "},"Ý":{"ha":826,"x_min":14,"x_max":813,"o":"m 349 0 l 349 360 l 14 928 l 157 928 l 414 479 l 669 928 l 813 928 l 479 360 l 479 0 l 349 0 m 333 1033 q 358 1058 338 1038 q 403 1106 378 1079 q 451 1154 429 1132 q 482 1183 474 1176 q 522 1200 501 1200 q 558 1185 543 1200 q 572 1150 572 1171 q 550 1106 572 1124 q 513 1079 539 1096 q 465 1049 488 1063 q 439 1033 443 1036 l 333 1033 z "},"ñ":{"ha":758,"x_min":97,"x_max":664,"o":"m 97 0 l 97 689 l 183 689 l 214 585 q 296 667 243 633 q 436 700 349 700 q 613 627 561 700 q 664 436 664 554 l 664 0 l 547 0 l 547 401 q 538 499 547 454 q 495 572 528 544 q 396 600 463 600 q 263 542 311 600 q 214 374 214 485 l 214 0 l 97 0 m 493 799 q 449 806 471 799 q 399 828 426 814 q 359 849 378 839 q 319 858 340 858 q 261 801 268 858 l 171 801 q 223 910 183 875 q 318 946 263 946 q 385 931 357 946 q 437 901 413 917 q 490 886 461 886 q 523 894 511 886 q 544 918 535 903 q 564 939 553 933 q 585 944 575 944 q 616 931 604 944 q 628 901 628 918 q 610 857 628 881 q 561 816 592 833 q 493 799 531 799 z "},"ò":{"ha":767,"x_min":53,"x_max":714,"o":"m 383 -17 q 265 4 324 -17 q 159 69 207 25 q 82 181 111 113 q 53 342 53 249 q 82 503 53 435 q 159 615 111 571 q 265 679 207 658 q 383 700 324 700 q 502 679 443 700 q 609 615 561 658 q 685 503 657 571 q 714 342 714 435 q 685 181 714 249 q 609 69 657 113 q 502 4 561 25 q 383 -17 443 -17 m 383 86 q 481 113 433 86 q 558 197 528 140 q 589 342 589 253 q 558 487 589 431 q 481 570 528 543 q 383 597 433 597 q 287 570 335 597 q 208 487 239 543 q 178 342 178 431 q 208 197 178 253 q 287 113 239 140 q 383 86 335 86 m 361 793 q 306 840 335 815 q 257 883 276 864 q 238 909 243 899 q 233 929 233 919 q 249 967 233 951 q 286 982 264 982 q 308 978 297 982 q 329 961 319 974 l 458 793 l 361 793 z "},"ó":{"ha":767,"x_min":53,"x_max":714,"o":"m 383 -17 q 265 4 324 -17 q 159 69 207 25 q 82 181 111 113 q 53 342 53 249 q 82 503 53 435 q 159 615 111 571 q 265 679 207 658 q 383 700 324 700 q 502 679 443 700 q 609 615 561 658 q 685 503 657 571 q 714 342 714 435 q 685 181 714 249 q 609 69 657 113 q 502 4 561 25 q 383 -17 443 -17 m 383 86 q 481 113 433 86 q 558 197 528 140 q 589 342 589 253 q 558 487 589 431 q 481 570 528 543 q 383 597 433 597 q 287 570 335 597 q 208 487 239 543 q 178 342 178 431 q 208 197 178 253 q 287 113 239 140 q 383 86 335 86 m 318 793 q 340 822 322 799 q 379 874 357 844 q 422 928 401 903 q 451 964 442 954 q 490 982 465 982 q 528 967 513 982 q 543 929 543 953 q 540 910 543 919 q 525 890 536 901 q 490 857 515 879 q 442 816 465 835 q 415 793 419 797 l 318 793 z "},"ô":{"ha":767,"x_min":53,"x_max":714,"o":"m 383 -17 q 265 4 324 -17 q 159 69 207 25 q 82 181 111 113 q 53 342 53 249 q 82 503 53 435 q 159 615 111 571 q 265 679 207 658 q 383 700 324 700 q 502 679 443 700 q 609 615 561 658 q 685 503 657 571 q 714 342 714 435 q 685 181 714 249 q 609 69 657 113 q 502 4 561 25 q 383 -17 443 -17 m 383 86 q 481 113 433 86 q 558 197 528 140 q 589 342 589 253 q 558 487 589 431 q 481 570 528 543 q 383 597 433 597 q 287 570 335 597 q 208 487 239 543 q 178 342 178 431 q 208 197 178 253 q 287 113 239 140 q 383 86 335 86 m 158 799 l 314 939 q 383 965 342 965 q 451 939 424 965 l 607 799 l 476 799 l 382 883 l 289 799 l 158 799 z "},"õ":{"ha":767,"x_min":53,"x_max":714,"o":"m 383 -17 q 265 4 324 -17 q 159 69 207 25 q 82 181 111 113 q 53 342 53 249 q 82 503 53 435 q 159 615 111 571 q 265 679 207 658 q 383 700 324 700 q 502 679 443 700 q 609 615 561 658 q 685 503 657 571 q 714 342 714 435 q 685 181 714 249 q 609 69 657 113 q 502 4 561 25 q 383 -17 443 -17 m 383 86 q 481 113 433 86 q 558 197 528 140 q 589 342 589 253 q 558 487 589 431 q 481 570 528 543 q 383 597 433 597 q 287 570 335 597 q 208 487 239 543 q 178 342 178 431 q 208 197 178 253 q 287 113 239 140 q 383 86 335 86 m 476 799 q 432 806 454 799 q 382 828 410 814 q 342 849 361 839 q 303 858 324 858 q 244 801 251 858 l 154 801 q 206 910 167 875 q 301 946 246 946 q 368 931 340 946 q 420 901 396 917 q 474 886 444 886 q 506 894 494 886 q 528 918 518 903 q 547 939 536 933 q 568 944 558 944 q 599 931 588 944 q 611 901 611 918 q 593 857 611 881 q 544 816 575 833 q 476 799 514 799 z "},"ö":{"ha":767,"x_min":53,"x_max":714,"o":"m 383 -17 q 265 4 324 -17 q 159 69 207 25 q 82 181 111 113 q 53 342 53 249 q 82 503 53 435 q 159 615 111 571 q 265 679 207 658 q 383 700 324 700 q 502 679 443 700 q 609 615 561 658 q 685 503 657 571 q 714 342 714 435 q 685 181 714 249 q 609 69 657 113 q 502 4 561 25 q 383 -17 443 -17 m 383 86 q 481 113 433 86 q 558 197 528 140 q 589 342 589 253 q 558 487 589 431 q 481 570 528 543 q 383 597 433 597 q 287 570 335 597 q 208 487 239 543 q 178 342 178 431 q 208 197 178 253 q 287 113 239 140 q 383 86 335 86 m 236 819 q 183 842 206 819 q 161 894 161 864 q 183 947 161 925 q 236 968 206 968 q 290 947 268 968 q 311 894 311 925 q 290 842 311 864 q 236 819 268 819 m 529 819 q 477 842 499 819 q 456 894 456 864 q 477 947 456 925 q 529 968 499 968 q 583 947 561 968 q 604 894 604 925 q 583 842 604 864 q 529 819 561 819 z "},"ù":{"ha":744,"x_min":94,"x_max":647,"o":"m 315 -17 q 186 17 235 -17 q 116 112 138 51 q 94 250 94 172 l 94 690 l 211 690 l 211 278 q 229 160 211 201 q 280 102 247 118 q 356 86 313 86 q 484 144 438 86 q 531 311 531 201 l 531 690 l 647 690 l 647 0 l 560 0 l 531 100 q 451 17 501 50 q 315 -17 401 -17 m 349 793 q 293 840 322 815 q 244 883 264 864 q 226 909 231 899 q 221 929 221 919 q 236 967 221 951 q 274 982 251 982 q 296 978 285 982 q 317 961 307 974 l 446 793 l 349 793 z "},"ú":{"ha":744,"x_min":94,"x_max":647,"o":"m 315 -17 q 186 17 235 -17 q 116 112 138 51 q 94 250 94 172 l 94 690 l 211 690 l 211 278 q 229 160 211 201 q 280 102 247 118 q 356 86 313 86 q 484 144 438 86 q 531 311 531 201 l 531 690 l 647 690 l 647 0 l 560 0 l 531 100 q 451 17 501 50 q 315 -17 401 -17 m 306 793 q 327 822 310 799 q 367 874 344 844 q 409 928 389 903 q 439 964 429 954 q 478 982 453 982 q 515 967 500 982 q 531 929 531 953 q 527 910 531 919 q 513 890 524 901 q 478 857 503 879 q 430 816 453 835 q 403 793 407 797 l 306 793 z "},"û":{"ha":744,"x_min":94,"x_max":647,"o":"m 315 -17 q 186 17 235 -17 q 116 112 138 51 q 94 250 94 172 l 94 690 l 211 690 l 211 278 q 229 160 211 201 q 280 102 247 118 q 356 86 313 86 q 484 144 438 86 q 531 311 531 201 l 531 690 l 647 690 l 647 0 l 560 0 l 531 100 q 451 17 501 50 q 315 -17 401 -17 m 146 799 l 301 939 q 371 965 329 965 q 439 939 411 965 l 594 799 l 464 799 l 369 883 l 276 799 l 146 799 z "},"ü":{"ha":744,"x_min":94,"x_max":647,"o":"m 315 -17 q 186 17 235 -17 q 116 112 138 51 q 94 250 94 172 l 94 690 l 211 690 l 211 278 q 229 160 211 201 q 280 102 247 118 q 356 86 313 86 q 484 144 438 86 q 531 311 531 201 l 531 690 l 647 690 l 647 0 l 560 0 l 531 100 q 451 17 501 50 q 315 -17 401 -17 m 224 819 q 171 842 193 819 q 149 894 149 864 q 171 947 149 925 q 224 968 193 968 q 277 947 256 968 q 299 894 299 925 q 277 842 299 864 q 224 819 256 819 m 517 819 q 465 842 486 819 q 443 894 443 864 q 465 947 443 925 q 517 968 486 968 q 570 947 549 968 q 592 894 592 925 q 570 842 592 864 q 517 819 549 819 z "},"ý":{"ha":596,"x_min":0,"x_max":596,"o":"m 51 -224 l 51 -121 l 99 -121 q 175 -113 149 -121 q 217 -80 201 -106 q 249 -1 233 -54 l 0 688 l 129 688 l 299 157 l 468 688 l 596 688 l 351 -31 q 301 -147 326 -104 q 232 -206 275 -189 q 111 -224 189 -224 l 51 -224 m 240 793 q 262 822 244 799 q 301 874 279 844 q 344 928 324 903 q 374 964 364 954 q 413 982 388 982 q 450 967 435 982 q 465 929 465 953 q 462 910 465 919 q 447 890 458 901 q 413 857 438 879 q 365 816 388 835 q 338 793 342 797 l 240 793 z "},"ÿ":{"ha":596,"x_min":0,"x_max":596,"o":"m 51 -224 l 51 -121 l 99 -121 q 175 -113 149 -121 q 217 -80 201 -106 q 249 -1 233 -54 l 0 688 l 129 688 l 299 157 l 468 688 l 596 688 l 351 -31 q 301 -147 326 -104 q 232 -206 275 -189 q 111 -224 189 -224 l 51 -224 m 158 819 q 106 842 128 819 q 83 894 83 864 q 106 947 83 925 q 158 968 128 968 q 212 947 190 968 q 233 894 233 925 q 212 842 233 864 q 158 819 190 819 m 451 819 q 399 842 421 819 q 378 894 378 864 q 399 947 378 925 q 451 968 421 968 q 505 947 483 968 q 526 894 526 925 q 505 842 526 864 q 451 819 483 819 z "},"Š":{"ha":828,"x_min":56,"x_max":772,"o":"m 411 -17 q 263 7 335 -17 q 135 79 190 31 q 56 203 81 128 l 176 239 q 231 156 193 189 q 317 108 268 124 q 417 93 367 93 q 522 111 472 93 q 603 166 572 129 q 635 258 635 203 q 593 349 635 315 q 449 408 551 382 l 331 435 q 205 479 267 451 q 103 558 143 507 q 64 696 64 610 q 113 831 64 775 q 241 915 163 886 q 404 944 319 944 q 533 926 469 944 q 647 869 596 907 q 726 771 697 831 l 607 736 q 522 810 581 785 q 399 835 463 835 q 303 819 349 835 q 228 771 257 803 q 199 690 199 739 q 226 617 199 644 q 298 573 253 589 q 397 544 343 557 l 499 522 q 632 476 569 506 q 733 394 694 447 q 772 253 772 342 q 742 138 772 189 q 660 53 711 88 q 544 1 608 19 q 411 -17 479 -17 m 414 1029 q 344 1056 372 1029 l 189 1196 l 319 1196 l 413 1111 l 507 1196 l 638 1196 l 482 1056 q 414 1029 454 1029 z "},"š":{"ha":654,"x_min":43,"x_max":613,"o":"m 332 -17 q 215 2 272 -17 q 112 59 157 21 q 43 156 67 97 l 156 197 q 223 109 171 136 q 332 82 275 82 q 410 94 374 82 q 471 131 447 107 q 494 185 494 154 q 449 265 494 242 q 342 301 404 289 l 246 321 q 153 352 196 332 q 83 410 110 372 q 57 510 57 447 q 96 615 57 572 q 195 679 135 657 q 322 701 256 701 q 477 667 404 701 q 581 561 550 633 l 471 521 q 408 583 453 563 q 314 603 363 603 q 218 579 261 603 q 175 511 175 556 q 212 447 175 467 q 303 415 249 426 l 393 397 q 499 365 449 386 q 581 303 549 344 q 613 189 613 263 q 572 78 613 124 q 468 8 532 32 q 332 -17 404 -17 m 333 790 q 264 817 292 790 l 108 957 l 239 957 l 332 872 l 426 957 l 557 957 l 401 817 q 333 790 374 790 z "},"Ÿ":{"ha":826,"x_min":14,"x_max":813,"o":"m 349 0 l 349 360 l 14 928 l 157 928 l 414 479 l 669 928 l 813 928 l 479 360 l 479 0 l 349 0 m 267 1028 q 214 1050 236 1028 q 192 1103 192 1072 q 214 1155 192 1133 q 267 1176 236 1176 q 320 1155 299 1176 q 342 1103 342 1133 q 320 1050 342 1072 q 267 1028 299 1028 m 560 1028 q 508 1050 529 1028 q 486 1103 486 1072 q 508 1155 486 1133 q 560 1176 529 1176 q 613 1155 592 1176 q 635 1103 635 1133 q 613 1050 635 1072 q 560 1028 592 1028 z "},"Ž":{"ha":843,"x_min":61,"x_max":782,"o":"m 61 0 l 61 113 l 608 815 l 82 815 l 82 928 l 761 928 l 761 815 l 217 113 l 782 113 l 782 0 l 61 0 m 422 1029 q 353 1056 381 1029 l 197 1196 l 328 1196 l 421 1111 l 515 1196 l 646 1196 l 490 1056 q 422 1029 463 1029 z "},"ž":{"ha":639,"x_min":56,"x_max":597,"o":"m 56 0 l 56 103 l 451 586 l 68 586 l 68 689 l 583 689 l 583 586 l 188 103 l 597 103 l 597 0 l 56 0 m 329 790 q 260 817 288 790 l 104 957 l 235 957 l 328 872 l 422 957 l 553 957 l 397 817 q 329 790 369 790 z "},"Ð":{"ha":989,"x_min":28,"x_max":919,"o":"m 160 0 l 160 421 l 28 421 l 28 532 l 160 532 l 160 928 l 413 928 q 616 905 524 928 q 776 829 708 882 q 882 687 844 776 q 919 465 919 597 q 882 242 919 332 q 776 99 844 153 q 616 23 708 46 q 413 0 524 0 l 160 0 m 290 110 l 410 110 q 549 122 482 110 q 670 169 617 133 q 755 276 724 204 q 786 465 786 347 q 755 653 786 583 q 670 759 724 724 q 549 806 617 794 q 410 818 482 818 l 290 818 l 290 532 l 485 532 l 485 421 l 290 421 l 290 110 z "},"Ă":{"ha":869,"x_min":14,"x_max":856,"o":"m 14 0 l 363 929 l 508 929 l 856 0 l 717 0 l 646 203 l 224 203 l 153 0 l 14 0 m 264 315 l 606 315 l 435 797 l 264 315 m 435 1029 q 302 1077 358 1029 q 231 1196 246 1125 l 326 1196 q 368 1143 339 1164 q 435 1122 397 1122 q 500 1143 471 1122 q 543 1196 529 1164 l 639 1196 q 567 1077 625 1125 q 435 1029 510 1029 z "},"ă":{"ha":731,"x_min":53,"x_max":660,"o":"m 290 -17 q 171 7 225 -17 q 85 75 117 31 q 53 182 53 119 q 110 311 53 264 q 273 384 168 358 q 518 425 378 410 q 483 560 521 513 q 363 607 446 607 q 260 578 300 607 q 210 500 221 550 l 97 533 q 197 656 125 613 q 361 700 268 700 q 570 633 504 700 q 636 421 636 565 l 636 260 q 643 111 636 174 q 660 0 650 49 l 553 0 l 525 94 q 438 13 494 43 q 290 -17 381 -17 m 315 76 q 418 96 369 76 q 497 162 467 115 q 528 289 528 208 l 528 332 q 344 305 422 321 q 224 260 267 289 q 182 185 182 232 q 217 106 182 136 q 315 76 253 76 m 365 790 q 233 838 289 790 q 161 957 176 886 l 257 957 q 299 904 269 925 q 365 883 328 883 q 431 904 401 883 q 474 957 460 925 l 569 957 q 498 838 556 886 q 365 790 440 790 z "},"Ą":{"ha":869,"x_min":14,"x_max":856,"o":"m 14 0 l 363 929 l 508 929 l 856 0 l 717 0 l 646 203 l 224 203 l 153 0 l 14 0 m 264 315 l 606 315 l 435 797 l 264 315 m 767 -240 q 670 -206 704 -240 q 636 -126 636 -171 q 663 -45 636 -76 q 715 0 689 -14 l 854 0 q 765 -44 796 -21 q 733 -103 733 -67 q 753 -146 733 -132 q 801 -160 772 -160 q 827 -157 814 -160 q 854 -149 840 -154 l 854 -224 q 767 -240 807 -240 z "},"ą":{"ha":731,"x_min":53,"x_max":660,"o":"m 290 -17 q 171 7 225 -17 q 85 75 117 31 q 53 182 53 119 q 110 311 53 264 q 273 384 168 358 q 518 425 378 410 q 483 560 521 513 q 363 607 446 607 q 260 578 300 607 q 210 500 221 550 l 97 533 q 197 656 125 613 q 361 700 268 700 q 570 633 504 700 q 636 421 636 565 l 636 260 q 643 111 636 174 q 660 0 650 49 l 553 0 l 525 94 q 438 13 494 43 q 290 -17 381 -17 m 315 76 q 418 96 369 76 q 497 162 467 115 q 528 289 528 208 l 528 332 q 344 305 422 321 q 224 260 267 289 q 182 185 182 232 q 217 106 182 136 q 315 76 253 76 m 572 -240 q 476 -206 510 -240 q 442 -126 442 -171 q 472 -48 442 -83 q 553 0 501 -12 l 660 0 q 564 -52 589 -26 q 539 -104 539 -78 q 558 -146 539 -132 q 607 -160 578 -160 q 633 -157 619 -160 q 660 -149 646 -154 l 660 -224 q 572 -240 613 -240 z "},"Ē":{"ha":788,"x_min":106,"x_max":735,"o":"m 106 0 l 106 928 l 735 928 l 735 815 l 236 815 l 236 533 l 604 533 l 604 421 l 236 421 l 236 113 l 735 113 l 735 0 l 106 0 m 231 1058 l 231 1151 l 614 1151 l 614 1058 l 231 1058 z "},"ē":{"ha":749,"x_min":53,"x_max":714,"o":"m 390 -17 q 207 31 282 -17 q 92 160 132 79 q 53 343 53 242 q 97 533 53 453 q 217 656 142 613 q 388 700 293 700 q 532 667 469 700 q 635 580 594 635 q 695 456 676 525 q 708 313 714 386 l 178 313 q 216 176 181 226 q 300 106 251 126 q 390 86 349 86 q 488 105 449 86 q 551 154 528 124 l 664 121 q 557 22 626 61 q 390 -17 488 -17 m 179 406 l 585 406 q 560 499 585 454 q 492 572 536 543 q 388 600 449 600 q 290 581 336 600 q 215 518 244 561 q 179 406 185 475 m 199 835 l 199 928 l 582 928 l 582 835 l 199 835 z "},"Ė":{"ha":788,"x_min":106,"x_max":735,"o":"m 106 0 l 106 928 l 735 928 l 735 815 l 236 815 l 236 533 l 604 533 l 604 421 l 236 421 l 236 113 l 735 113 l 735 0 l 106 0 m 422 1058 q 369 1081 392 1058 q 347 1133 347 1103 q 369 1187 347 1165 q 422 1208 392 1208 q 476 1187 454 1208 q 497 1133 497 1165 q 476 1081 497 1103 q 422 1058 454 1058 z "},"ė":{"ha":749,"x_min":53,"x_max":714,"o":"m 390 -17 q 207 31 282 -17 q 92 160 132 79 q 53 343 53 242 q 97 533 53 453 q 217 656 142 613 q 388 700 293 700 q 532 667 469 700 q 635 580 594 635 q 695 456 676 525 q 708 313 714 386 l 178 313 q 216 176 181 226 q 300 106 251 126 q 390 86 349 86 q 488 105 449 86 q 551 154 528 124 l 664 121 q 557 22 626 61 q 390 -17 488 -17 m 179 406 l 585 406 q 560 499 585 454 q 492 572 536 543 q 388 600 449 600 q 290 581 336 600 q 215 518 244 561 q 179 406 185 475 m 390 819 q 338 842 360 819 q 315 894 315 864 q 338 948 315 926 q 390 969 360 969 q 444 948 422 969 q 465 894 465 926 q 444 842 465 864 q 390 819 422 819 z "},"Ę":{"ha":788,"x_min":106,"x_max":735,"o":"m 106 0 l 106 928 l 735 928 l 735 815 l 236 815 l 236 533 l 604 533 l 604 421 l 236 421 l 236 113 l 735 113 l 735 0 l 106 0 m 615 -240 q 519 -206 553 -240 q 485 -126 485 -171 q 511 -45 485 -76 q 564 0 538 -14 l 703 0 q 613 -44 644 -21 q 582 -103 582 -67 q 601 -146 582 -132 q 650 -160 621 -160 q 676 -157 663 -160 q 703 -149 689 -154 l 703 -224 q 615 -240 656 -240 z "},"ę":{"ha":749,"x_min":53,"x_max":714,"o":"m 390 -17 q 207 31 282 -17 q 92 160 132 79 q 53 343 53 242 q 97 533 53 453 q 217 656 142 613 q 388 700 293 700 q 532 667 469 700 q 635 580 594 635 q 695 456 676 525 q 708 313 714 386 l 178 313 q 216 176 181 226 q 300 106 251 126 q 390 86 349 86 q 488 105 449 86 q 551 154 528 124 l 664 121 q 543 15 621 51 q 474 -37 499 -10 q 450 -97 450 -65 q 469 -145 450 -131 q 518 -160 489 -160 q 544 -157 531 -160 q 571 -149 557 -154 l 571 -224 q 483 -240 524 -240 q 387 -205 421 -240 q 353 -118 353 -169 q 365 -62 353 -87 q 394 -17 376 -36 l 390 -17 m 179 406 l 585 406 q 560 499 585 454 q 492 572 536 543 q 388 600 449 600 q 290 581 336 600 q 215 518 244 561 q 179 406 185 475 z "},"Ě":{"ha":788,"x_min":106,"x_max":735,"o":"m 106 0 l 106 928 l 735 928 l 735 815 l 236 815 l 236 533 l 604 533 l 604 421 l 236 421 l 236 113 l 735 113 l 735 0 l 106 0 m 422 1029 q 353 1056 381 1029 l 197 1196 l 328 1196 l 421 1111 l 515 1196 l 646 1196 l 490 1056 q 422 1029 463 1029 z "},"ě":{"ha":749,"x_min":53,"x_max":714,"o":"m 390 -17 q 207 31 282 -17 q 92 160 132 79 q 53 343 53 242 q 97 533 53 453 q 217 656 142 613 q 388 700 293 700 q 532 667 469 700 q 635 580 594 635 q 695 456 676 525 q 708 313 714 386 l 178 313 q 216 176 181 226 q 300 106 251 126 q 390 86 349 86 q 488 105 449 86 q 551 154 528 124 l 664 121 q 557 22 626 61 q 390 -17 488 -17 m 179 406 l 585 406 q 560 499 585 454 q 492 572 536 543 q 388 600 449 600 q 290 581 336 600 q 215 518 244 561 q 179 406 185 475 m 390 790 q 321 817 349 790 l 165 957 l 296 957 l 389 872 l 483 957 l 614 957 l 458 817 q 390 790 431 790 z "},"Ő":{"ha":1010,"x_min":69,"x_max":940,"o":"m 504 -17 q 274 45 371 -17 q 123 216 176 107 q 69 465 69 325 q 123 713 69 606 q 274 883 176 821 q 504 944 371 944 q 736 883 639 944 q 887 713 833 821 q 940 465 940 606 q 887 216 940 325 q 736 45 833 107 q 504 -17 639 -17 m 504 93 q 658 136 589 93 q 767 262 726 179 q 807 465 807 344 q 767 667 807 585 q 658 792 726 750 q 504 835 589 835 q 352 792 421 835 q 243 667 283 750 q 203 465 203 585 q 243 262 203 344 q 352 136 283 179 q 504 93 421 93 m 347 1033 l 481 1204 q 519 1222 494 1222 q 557 1207 542 1222 q 572 1169 572 1192 q 569 1150 572 1160 q 557 1132 567 1140 l 444 1033 l 347 1033 m 550 1033 l 683 1204 q 722 1222 697 1222 q 759 1206 743 1222 q 775 1169 775 1190 q 772 1150 775 1160 q 760 1132 769 1140 l 647 1033 l 550 1033 z "},"ő":{"ha":767,"x_min":53,"x_max":714,"o":"m 383 -17 q 265 4 324 -17 q 159 69 207 25 q 82 181 111 113 q 53 342 53 249 q 82 503 53 435 q 159 615 111 571 q 265 679 207 658 q 383 700 324 700 q 502 679 443 700 q 609 615 561 658 q 685 503 657 571 q 714 342 714 435 q 685 181 714 249 q 609 69 657 113 q 502 4 561 25 q 383 -17 443 -17 m 383 86 q 481 113 433 86 q 558 197 528 140 q 589 342 589 253 q 558 487 589 431 q 481 570 528 543 q 383 597 433 597 q 287 570 335 597 q 208 487 239 543 q 178 342 178 431 q 208 197 178 253 q 287 113 239 140 q 383 86 335 86 m 225 794 l 358 965 q 397 983 372 983 q 435 968 419 983 q 450 931 450 953 q 447 911 450 921 q 435 893 444 901 l 322 794 l 225 794 m 428 794 l 561 965 q 600 983 575 983 q 637 967 621 983 q 653 931 653 951 q 650 911 653 921 q 638 893 647 901 l 525 794 l 428 794 z "},"Ī":{"ha":575,"x_min":92,"x_max":483,"o":"m 92 0 l 92 103 l 222 103 l 222 825 l 92 825 l 92 928 l 483 928 l 483 825 l 353 825 l 353 103 l 483 103 l 483 0 l 92 0 m 96 1058 l 96 1151 l 479 1151 l 479 1058 l 96 1058 z "},"ī":{"ha":386,"x_min":-6,"x_max":378,"o":"m 158 0 l 158 596 l 63 596 l 63 689 l 275 689 l 275 0 l 158 0 m -6 835 l -6 928 l 378 928 l 378 835 l -6 835 z "},"Į":{"ha":575,"x_min":92,"x_max":483,"o":"m 92 0 l 92 103 l 222 103 l 222 825 l 92 825 l 92 928 l 483 928 l 483 825 l 353 825 l 353 103 l 483 103 l 483 0 l 92 0 m 292 -240 q 195 -206 229 -240 q 161 -126 161 -171 q 188 -45 161 -76 q 240 0 214 -14 l 379 0 q 290 -44 321 -21 q 258 -103 258 -67 q 278 -146 258 -132 q 326 -160 297 -160 q 352 -157 339 -160 q 379 -149 365 -154 l 379 -224 q 292 -240 332 -240 z "},"į":{"ha":386,"x_min":47,"x_max":304,"o":"m 217 819 q 156 845 182 819 q 131 907 131 871 q 156 968 131 943 q 217 993 182 993 q 278 968 253 993 q 304 907 304 943 q 278 845 304 871 q 217 819 253 819 m 158 0 l 158 596 l 63 596 l 63 689 l 275 689 l 275 0 l 158 0 m 178 -240 q 81 -206 115 -240 q 47 -126 47 -171 q 77 -48 47 -83 q 158 0 107 -12 l 265 0 q 169 -52 194 -26 q 144 -104 144 -78 q 164 -146 144 -132 q 213 -160 183 -160 q 238 -157 225 -160 q 265 -149 251 -154 l 265 -224 q 178 -240 218 -240 z "},"Ć":{"ha":911,"x_min":69,"x_max":858,"o":"m 490 -17 q 264 45 358 -17 q 119 215 169 107 q 69 465 69 324 q 123 717 69 610 q 274 885 176 825 q 501 944 371 944 q 712 890 618 944 q 853 735 806 836 l 739 693 q 647 795 708 756 q 494 835 585 835 q 347 793 413 835 q 242 669 281 751 q 203 465 203 586 q 240 265 203 349 q 345 138 278 182 q 499 93 413 93 q 651 132 589 93 q 744 235 713 171 l 858 193 q 711 37 808 90 q 490 -17 614 -17 m 410 1033 q 434 1058 414 1038 q 480 1106 454 1079 q 528 1154 506 1132 q 558 1183 550 1176 q 599 1200 578 1200 q 634 1185 619 1200 q 649 1150 649 1171 q 626 1106 649 1124 q 590 1079 615 1096 q 542 1049 564 1063 q 515 1033 519 1036 l 410 1033 z "},"ć":{"ha":694,"x_min":53,"x_max":649,"o":"m 374 -17 q 203 30 275 -17 q 92 157 131 76 q 53 342 53 238 q 94 526 53 444 q 210 653 135 607 q 386 700 285 700 q 546 654 479 700 q 646 544 613 608 l 539 506 q 474 572 517 547 q 378 597 431 597 q 281 570 326 597 q 207 487 235 543 q 179 343 179 431 q 208 199 179 257 q 281 114 236 142 q 378 86 326 86 q 477 112 435 86 q 542 176 519 138 l 649 138 q 538 27 610 71 q 374 -17 465 -17 m 317 793 q 338 822 321 799 q 378 874 356 844 q 420 928 400 903 q 450 964 440 954 q 489 982 464 982 q 526 967 511 982 q 542 929 542 953 q 538 910 542 919 q 524 890 535 901 q 489 857 514 879 q 441 816 464 835 q 414 793 418 797 l 317 793 z "},"Ċ":{"ha":911,"x_min":69,"x_max":858,"o":"m 490 -17 q 264 45 358 -17 q 119 215 169 107 q 69 465 69 324 q 123 717 69 610 q 274 885 176 825 q 501 944 371 944 q 712 890 618 944 q 853 735 806 836 l 739 693 q 647 795 708 756 q 494 835 585 835 q 347 793 413 835 q 242 669 281 751 q 203 465 203 586 q 240 265 203 349 q 345 138 278 182 q 499 93 413 93 q 651 132 589 93 q 744 235 713 171 l 858 193 q 711 37 808 90 q 490 -17 614 -17 m 490 1058 q 438 1081 460 1058 q 415 1133 415 1103 q 438 1187 415 1165 q 490 1208 460 1208 q 544 1187 522 1208 q 565 1133 565 1165 q 544 1081 565 1103 q 490 1058 522 1058 z "},"ċ":{"ha":694,"x_min":53,"x_max":649,"o":"m 374 -17 q 203 30 275 -17 q 92 157 131 76 q 53 342 53 238 q 94 526 53 444 q 210 653 135 607 q 386 700 285 700 q 546 654 479 700 q 646 544 613 608 l 539 506 q 474 572 517 547 q 378 597 431 597 q 281 570 326 597 q 207 487 235 543 q 179 343 179 431 q 208 199 179 257 q 281 114 236 142 q 378 86 326 86 q 477 112 435 86 q 542 176 519 138 l 649 138 q 538 27 610 71 q 374 -17 465 -17 m 382 819 q 329 842 351 819 q 307 894 307 864 q 329 948 307 926 q 382 969 351 969 q 435 948 414 969 q 457 894 457 926 q 435 842 457 864 q 382 819 414 819 z "},"Ś":{"ha":828,"x_min":56,"x_max":772,"o":"m 411 -17 q 263 7 335 -17 q 135 79 190 31 q 56 203 81 128 l 176 239 q 231 156 193 189 q 317 108 268 124 q 417 93 367 93 q 522 111 472 93 q 603 166 572 129 q 635 258 635 203 q 593 349 635 315 q 449 408 551 382 l 331 435 q 205 479 267 451 q 103 558 143 507 q 64 696 64 610 q 113 831 64 775 q 241 915 163 886 q 404 944 319 944 q 533 926 469 944 q 647 869 596 907 q 726 771 697 831 l 607 736 q 522 810 581 785 q 399 835 463 835 q 303 819 349 835 q 228 771 257 803 q 199 690 199 739 q 226 617 199 644 q 298 573 253 589 q 397 544 343 557 l 499 522 q 632 476 569 506 q 733 394 694 447 q 772 253 772 342 q 742 138 772 189 q 660 53 711 88 q 544 1 608 19 q 411 -17 479 -17 m 333 1033 q 358 1058 338 1038 q 403 1106 378 1079 q 451 1154 429 1132 q 482 1183 474 1176 q 522 1200 501 1200 q 558 1185 543 1200 q 572 1150 572 1171 q 550 1106 572 1124 q 513 1079 539 1096 q 465 1049 488 1063 q 439 1033 443 1036 l 333 1033 z "},"ś":{"ha":654,"x_min":43,"x_max":613,"o":"m 332 -17 q 215 2 272 -17 q 112 59 157 21 q 43 156 67 97 l 156 197 q 223 109 171 136 q 332 82 275 82 q 410 94 374 82 q 471 131 447 107 q 494 185 494 154 q 449 265 494 242 q 342 301 404 289 l 246 321 q 153 352 196 332 q 83 410 110 372 q 57 510 57 447 q 96 615 57 572 q 195 679 135 657 q 322 701 256 701 q 477 667 404 701 q 581 561 550 633 l 471 521 q 408 583 453 563 q 314 603 363 603 q 218 579 261 603 q 175 511 175 556 q 212 447 175 467 q 303 415 249 426 l 393 397 q 499 365 449 386 q 581 303 549 344 q 613 189 613 263 q 572 78 613 124 q 468 8 532 32 q 332 -17 404 -17 m 268 793 q 290 822 272 799 q 329 874 307 844 q 372 928 351 903 q 401 964 392 954 q 440 982 415 982 q 478 967 463 982 q 493 929 493 953 q 490 910 493 919 q 475 890 486 901 q 440 857 465 879 q 392 816 415 835 q 365 793 369 797 l 268 793 z "},"Ū":{"ha":958,"x_min":106,"x_max":853,"o":"m 479 -17 q 192 84 278 -17 q 106 388 106 185 l 106 928 l 236 928 l 236 378 q 291 168 236 240 q 479 96 346 96 q 667 168 613 96 q 722 378 722 240 l 722 928 l 853 928 l 853 388 q 767 84 853 185 q 479 -17 682 -17 m 288 1058 l 288 1151 l 671 1151 l 671 1058 l 288 1058 z "},"ū":{"ha":744,"x_min":94,"x_max":647,"o":"m 315 -17 q 186 17 235 -17 q 116 112 138 51 q 94 250 94 172 l 94 690 l 211 690 l 211 278 q 229 160 211 201 q 280 102 247 118 q 356 86 313 86 q 484 144 438 86 q 531 311 531 201 l 531 690 l 647 690 l 647 0 l 560 0 l 531 100 q 451 17 501 50 q 315 -17 401 -17 m 179 835 l 179 928 l 563 928 l 563 835 l 179 835 z "},"Ů":{"ha":958,"x_min":106,"x_max":853,"o":"m 479 -17 q 192 84 278 -17 q 106 388 106 185 l 106 928 l 236 928 l 236 378 q 291 168 236 240 q 479 96 346 96 q 667 168 613 96 q 722 378 722 240 l 722 928 l 853 928 l 853 388 q 767 84 853 185 q 479 -17 682 -17 m 482 931 q 404 951 439 931 q 349 1007 369 972 q 328 1082 328 1042 q 349 1158 328 1124 q 404 1213 369 1192 q 482 1233 439 1233 q 588 1188 546 1233 q 631 1082 631 1143 q 588 976 631 1021 q 482 931 546 931 m 479 1011 q 531 1032 510 1011 q 551 1082 551 1053 q 531 1132 551 1111 q 479 1153 510 1153 q 428 1132 449 1153 q 407 1082 407 1111 q 428 1032 407 1053 q 479 1011 449 1011 z "},"ů":{"ha":744,"x_min":94,"x_max":647,"o":"m 315 -17 q 186 17 235 -17 q 116 112 138 51 q 94 250 94 172 l 94 690 l 211 690 l 211 278 q 229 160 211 201 q 280 102 247 118 q 356 86 313 86 q 484 144 438 86 q 531 311 531 201 l 531 690 l 647 690 l 647 0 l 560 0 l 531 100 q 451 17 501 50 q 315 -17 401 -17 m 374 776 q 296 797 331 776 q 240 853 261 818 q 219 928 219 888 q 240 1003 219 969 q 296 1058 261 1038 q 374 1079 331 1079 q 480 1034 438 1079 q 522 928 522 989 q 480 822 522 867 q 374 776 438 776 m 371 857 q 422 878 401 857 q 443 928 443 899 q 422 978 443 957 q 371 999 401 999 q 319 978 340 999 q 299 928 299 957 q 319 878 299 899 q 371 857 340 857 z "},"Ű":{"ha":958,"x_min":106,"x_max":853,"o":"m 479 -17 q 192 84 278 -17 q 106 388 106 185 l 106 928 l 236 928 l 236 378 q 291 168 236 240 q 479 96 346 96 q 667 168 613 96 q 722 378 722 240 l 722 928 l 853 928 l 853 388 q 767 84 853 185 q 479 -17 682 -17 m 321 1033 l 454 1204 q 493 1222 468 1222 q 531 1207 515 1222 q 546 1169 546 1192 q 543 1150 546 1160 q 531 1132 540 1140 l 418 1033 l 321 1033 m 524 1033 l 657 1204 q 696 1222 671 1222 q 733 1206 717 1222 q 749 1169 749 1190 q 746 1150 749 1160 q 733 1132 743 1140 l 621 1033 l 524 1033 z "},"ű":{"ha":744,"x_min":94,"x_max":647,"o":"m 315 -17 q 186 17 235 -17 q 116 112 138 51 q 94 250 94 172 l 94 690 l 211 690 l 211 278 q 229 160 211 201 q 280 102 247 118 q 356 86 313 86 q 484 144 438 86 q 531 311 531 201 l 531 690 l 647 690 l 647 0 l 560 0 l 531 100 q 451 17 501 50 q 315 -17 401 -17 m 213 794 l 346 965 q 385 983 360 983 q 422 968 407 983 q 438 931 438 953 q 435 911 438 921 q 422 893 432 901 l 310 794 l 213 794 m 415 794 l 549 965 q 588 983 563 983 q 624 967 608 983 q 640 931 640 951 q 638 911 640 921 q 625 893 635 901 l 513 794 l 415 794 z "},"Ų":{"ha":958,"x_min":106,"x_max":853,"o":"m 479 -17 q 192 84 278 -17 q 106 388 106 185 l 106 928 l 236 928 l 236 378 q 291 168 236 240 q 479 96 346 96 q 667 168 613 96 q 722 378 722 240 l 722 928 l 853 928 l 853 388 q 767 84 853 185 q 479 -17 682 -17 m 506 -240 q 409 -206 443 -240 q 375 -126 375 -171 q 401 -45 375 -76 q 454 0 428 -14 l 593 0 q 503 -44 535 -21 q 472 -103 472 -67 q 492 -146 472 -132 q 540 -160 511 -160 q 566 -157 553 -160 q 593 -149 579 -154 l 593 -224 q 506 -240 546 -240 z "},"ų":{"ha":744,"x_min":94,"x_max":647,"o":"m 315 -17 q 186 17 235 -17 q 116 112 138 51 q 94 250 94 172 l 94 690 l 211 690 l 211 285 q 221 186 211 232 q 262 113 231 140 q 356 86 293 86 q 484 144 438 86 q 531 311 531 201 l 531 690 l 647 690 l 647 0 q 551 -52 576 -26 q 526 -104 526 -78 q 546 -146 526 -132 q 594 -160 565 -160 q 620 -157 607 -160 q 647 -149 633 -154 l 647 -224 q 560 -240 600 -240 q 463 -206 497 -240 q 429 -126 429 -171 q 463 -40 429 -75 q 558 6 497 -6 l 531 100 q 451 17 501 50 q 315 -17 401 -17 z "},"Ń":{"ha":957,"x_min":106,"x_max":851,"o":"m 106 0 l 106 928 l 299 928 l 721 139 l 721 928 l 851 928 l 851 0 l 660 0 l 236 793 l 236 0 l 106 0 m 422 1033 q 447 1058 426 1038 q 492 1106 467 1079 q 540 1154 518 1132 q 571 1183 563 1176 q 611 1200 590 1200 q 647 1185 632 1200 q 661 1150 661 1171 q 639 1106 661 1124 q 602 1079 628 1096 q 554 1049 576 1063 q 528 1033 532 1036 l 422 1033 z "},"ń":{"ha":758,"x_min":97,"x_max":664,"o":"m 97 0 l 97 689 l 183 689 l 214 585 q 296 667 243 633 q 436 700 349 700 q 613 627 561 700 q 664 436 664 554 l 664 0 l 547 0 l 547 401 q 538 499 547 454 q 495 572 528 544 q 396 600 463 600 q 263 542 311 600 q 214 374 214 485 l 214 0 l 97 0 m 335 793 q 356 822 339 799 q 396 874 374 844 q 438 928 418 903 q 468 964 458 954 q 507 982 482 982 q 544 967 529 982 q 560 929 560 953 q 556 910 560 919 q 542 890 553 901 q 507 857 532 879 q 459 816 482 835 q 432 793 436 797 l 335 793 z "},"Ň":{"ha":957,"x_min":106,"x_max":851,"o":"m 106 0 l 106 928 l 299 928 l 721 139 l 721 928 l 851 928 l 851 0 l 660 0 l 236 793 l 236 0 l 106 0 m 503 1029 q 433 1056 461 1029 l 278 1196 l 408 1196 l 501 1111 l 596 1196 l 726 1196 l 571 1056 q 503 1029 543 1029 z "},"ň":{"ha":758,"x_min":97,"x_max":664,"o":"m 97 0 l 97 689 l 183 689 l 214 585 q 296 667 243 633 q 436 700 349 700 q 613 627 561 700 q 664 436 664 554 l 664 0 l 547 0 l 547 401 q 538 499 547 454 q 495 572 528 544 q 396 600 463 600 q 263 542 311 600 q 214 374 214 485 l 214 0 l 97 0 m 400 790 q 331 817 358 790 l 175 957 l 306 957 l 399 872 l 493 957 l 624 957 l 468 817 q 400 790 440 790 z "},"Ź":{"ha":843,"x_min":61,"x_max":782,"o":"m 61 0 l 61 113 l 608 815 l 82 815 l 82 928 l 761 928 l 761 815 l 217 113 l 782 113 l 782 0 l 61 0 m 342 1033 q 366 1058 346 1038 q 412 1106 386 1079 q 460 1154 438 1132 q 490 1183 482 1176 q 531 1200 510 1200 q 566 1185 551 1200 q 581 1150 581 1171 q 558 1106 581 1124 q 522 1079 547 1096 q 474 1049 496 1063 q 447 1033 451 1036 l 342 1033 z "},"ź":{"ha":639,"x_min":56,"x_max":597,"o":"m 56 0 l 56 103 l 451 586 l 68 586 l 68 689 l 583 689 l 583 586 l 188 103 l 597 103 l 597 0 l 56 0 m 264 793 q 285 822 268 799 q 325 874 303 844 q 367 928 347 903 q 397 964 388 954 q 436 982 411 982 q 474 967 458 982 q 489 929 489 953 q 485 910 489 919 q 471 890 482 901 q 436 857 461 879 q 388 816 411 835 q 361 793 365 797 l 264 793 z "},"Ż":{"ha":843,"x_min":61,"x_max":782,"o":"m 61 0 l 61 113 l 608 815 l 82 815 l 82 928 l 761 928 l 761 815 l 217 113 l 782 113 l 782 0 l 61 0 m 422 1058 q 369 1081 392 1058 q 347 1133 347 1103 q 369 1187 347 1165 q 422 1208 392 1208 q 476 1187 454 1208 q 497 1133 497 1165 q 476 1081 497 1103 q 422 1058 454 1058 z "},"ż":{"ha":639,"x_min":56,"x_max":597,"o":"m 56 0 l 56 103 l 451 586 l 68 586 l 68 689 l 583 689 l 583 586 l 188 103 l 597 103 l 597 0 l 56 0 m 329 819 q 276 842 299 819 q 254 894 254 864 q 276 948 254 926 q 329 969 299 969 q 383 948 361 969 q 404 894 404 926 q 383 842 404 864 q 329 819 361 819 z "},"Ħ":{"ha":986,"x_min":14,"x_max":972,"o":"m 119 0 l 119 700 l 14 700 l 14 807 l 119 807 l 119 928 l 250 928 l 250 807 l 736 807 l 736 928 l 867 928 l 867 807 l 972 807 l 972 700 l 867 700 l 867 0 l 736 0 l 736 421 l 250 421 l 250 0 l 119 0 m 250 533 l 736 533 l 736 700 l 250 700 l 250 533 z "},"ħ":{"ha":807,"x_min":28,"x_max":713,"o":"m 146 0 l 146 761 l 28 761 l 28 854 l 146 854 l 146 928 l 263 928 l 263 854 l 485 854 l 485 761 l 263 761 l 263 585 q 344 667 292 633 q 485 700 397 700 q 661 627 610 700 q 713 436 713 554 l 713 0 l 596 0 l 596 401 q 586 499 596 454 q 544 572 576 544 q 444 600 511 600 q 311 542 360 600 q 263 374 263 485 l 263 0 l 146 0 z "},"Ğ":{"ha":986,"x_min":69,"x_max":892,"o":"m 489 -17 q 262 45 356 -17 q 119 215 168 107 q 69 465 69 324 q 123 717 69 610 q 274 885 176 825 q 501 944 371 944 q 712 890 618 944 q 854 735 806 836 l 739 693 q 647 795 708 756 q 494 835 585 835 q 347 793 413 835 q 242 669 281 751 q 203 465 203 586 q 240 265 203 349 q 342 138 276 182 q 494 93 408 93 q 589 104 540 93 q 678 142 638 115 q 743 217 718 169 q 768 336 768 264 l 768 367 l 497 367 l 497 479 l 892 479 l 892 0 l 817 0 l 782 117 q 660 15 738 46 q 489 -17 583 -17 m 499 1029 q 366 1077 422 1029 q 294 1196 310 1125 l 390 1196 q 432 1143 403 1164 q 499 1122 461 1122 q 564 1143 535 1122 q 607 1196 593 1164 l 703 1196 q 631 1077 689 1125 q 499 1029 574 1029 z "},"ğ":{"ha":778,"x_min":53,"x_max":681,"o":"m 381 -267 q 270 -251 325 -267 q 173 -199 215 -235 q 113 -106 131 -162 l 229 -74 q 293 -146 249 -128 q 381 -164 338 -164 q 526 -112 488 -164 q 564 39 564 -61 l 564 131 q 479 44 532 76 q 344 13 426 13 q 201 52 268 13 q 94 169 135 92 q 53 356 53 246 q 94 543 53 467 q 201 660 135 619 q 344 700 268 700 q 479 667 426 700 q 564 581 532 635 l 596 689 l 681 689 l 681 65 q 615 -183 681 -99 q 381 -267 549 -267 m 374 110 q 470 135 426 110 q 541 214 514 160 q 568 356 568 268 q 541 497 568 443 q 470 576 514 551 q 374 600 426 600 q 234 537 289 600 q 179 356 179 474 q 234 174 179 238 q 374 110 289 110 m 372 790 q 240 838 296 790 q 168 957 183 886 l 264 957 q 306 904 276 925 q 372 883 335 883 q 438 904 408 883 q 481 957 467 925 l 576 957 q 505 838 563 886 q 372 790 447 790 z "},"Ġ":{"ha":986,"x_min":69,"x_max":892,"o":"m 489 -17 q 262 45 356 -17 q 119 215 168 107 q 69 465 69 324 q 123 717 69 610 q 274 885 176 825 q 501 944 371 944 q 712 890 618 944 q 854 735 806 836 l 739 693 q 647 795 708 756 q 494 835 585 835 q 347 793 413 835 q 242 669 281 751 q 203 465 203 586 q 240 265 203 349 q 342 138 276 182 q 494 93 408 93 q 589 104 540 93 q 678 142 638 115 q 743 217 718 169 q 768 336 768 264 l 768 367 l 497 367 l 497 479 l 892 479 l 892 0 l 817 0 l 782 117 q 660 15 738 46 q 489 -17 583 -17 m 499 1058 q 446 1081 468 1058 q 424 1133 424 1103 q 446 1187 424 1165 q 499 1208 468 1208 q 552 1187 531 1208 q 574 1133 574 1165 q 552 1081 574 1103 q 499 1058 531 1058 z "},"ġ":{"ha":778,"x_min":53,"x_max":681,"o":"m 381 -267 q 270 -251 325 -267 q 173 -199 215 -235 q 113 -106 131 -162 l 229 -74 q 293 -146 249 -128 q 381 -164 338 -164 q 526 -112 488 -164 q 564 39 564 -61 l 564 131 q 479 44 532 76 q 344 13 426 13 q 201 52 268 13 q 94 169 135 92 q 53 356 53 246 q 94 543 53 467 q 201 660 135 619 q 344 700 268 700 q 479 667 426 700 q 564 581 532 635 l 596 689 l 681 689 l 681 65 q 615 -183 681 -99 q 381 -267 549 -267 m 374 110 q 470 135 426 110 q 541 214 514 160 q 568 356 568 268 q 541 497 568 443 q 470 576 514 551 q 374 600 426 600 q 234 537 289 600 q 179 356 179 474 q 234 174 179 238 q 374 110 289 110 m 372 819 q 319 842 342 819 q 297 894 297 864 q 319 948 297 926 q 372 969 342 969 q 426 948 404 969 q 447 894 447 926 q 426 842 447 864 q 372 819 404 819 z "},"ģ":{"ha":778,"x_min":53,"x_max":681,"o":"m 381 -267 q 270 -251 325 -267 q 173 -199 215 -235 q 113 -106 131 -162 l 229 -74 q 293 -146 249 -128 q 381 -164 338 -164 q 526 -112 488 -164 q 564 39 564 -61 l 564 131 q 479 44 532 76 q 344 13 426 13 q 201 52 268 13 q 94 169 135 92 q 53 356 53 246 q 94 543 53 467 q 201 660 135 619 q 344 700 268 700 q 479 667 426 700 q 564 581 532 635 l 596 689 l 681 689 l 681 65 q 615 -183 681 -99 q 381 -267 549 -267 m 374 110 q 470 135 426 110 q 541 214 514 160 q 568 356 568 268 q 541 497 568 443 q 470 576 514 551 q 374 600 426 600 q 234 537 289 600 q 179 356 179 474 q 234 174 179 238 q 374 110 289 110 m 507 1074 l 563 1026 q 510 1020 540 1026 q 456 994 479 1014 q 432 931 432 974 q 447 878 432 903 q 501 840 463 854 l 418 804 q 358 859 376 826 q 340 925 340 892 q 387 1032 340 990 q 507 1074 433 1074 z "},"Ļ":{"ha":749,"x_min":106,"x_max":735,"o":"m 106 0 l 106 928 l 236 928 l 236 113 l 735 113 l 735 0 l 106 0 m 354 -347 l 299 -300 q 351 -294 321 -300 q 406 -267 382 -287 q 429 -204 429 -247 q 414 -152 429 -176 q 360 -114 399 -128 l 443 -78 q 503 -133 485 -100 q 521 -199 521 -165 q 474 -306 521 -264 q 354 -347 428 -347 z "},"ļ":{"ha":332,"x_min":76,"x_max":311,"o":"m 260 0 q 159 13 194 0 q 110 64 124 26 q 97 172 97 101 l 97 926 l 214 926 l 214 192 q 225 121 214 139 q 285 103 236 103 l 311 103 l 311 0 l 260 0 m 132 -347 l 76 -300 q 129 -294 99 -300 q 183 -267 160 -287 q 207 -204 207 -247 q 192 -152 207 -176 q 138 -114 176 -128 l 221 -78 q 281 -133 263 -100 q 299 -199 299 -165 q 252 -306 299 -264 q 132 -347 206 -347 z "},"Ť":{"ha":775,"x_min":14,"x_max":761,"o":"m 322 0 l 322 815 l 14 815 l 14 928 l 761 928 l 761 815 l 453 815 l 453 0 l 322 0 m 388 1029 q 318 1056 346 1029 l 163 1196 l 293 1196 l 386 1111 l 481 1196 l 611 1196 l 456 1056 q 388 1029 428 1029 z "},"ľ":{"ha":332,"x_min":97,"x_max":413,"o":"m 260 0 q 159 13 194 0 q 110 64 124 26 q 97 172 97 101 l 97 926 l 214 926 l 214 192 q 225 121 214 139 q 285 103 236 103 l 311 103 l 311 0 l 260 0 m 274 686 q 279 722 275 693 q 289 787 283 750 q 300 856 294 824 q 310 900 306 888 q 324 926 313 911 q 360 940 336 940 q 397 926 382 940 q 413 888 413 911 q 408 867 413 879 q 400 844 403 854 l 342 686 l 274 686 z "},"Ľ":{"ha":749,"x_min":106,"x_max":735,"o":"m 106 0 l 106 928 l 236 928 l 236 113 l 735 113 l 735 0 l 106 0 m 429 689 q 435 724 431 696 q 444 790 439 753 q 456 858 450 826 q 465 903 461 890 q 480 928 468 914 q 515 943 492 943 q 553 928 538 943 q 568 890 568 914 q 563 869 568 882 q 556 847 558 857 l 497 689 l 429 689 z "},"ť":{"ha":450,"x_min":28,"x_max":472,"o":"m 307 0 q 206 13 242 0 q 158 64 171 26 q 144 172 144 101 l 144 596 l 28 596 l 28 689 l 144 689 l 144 863 l 261 863 l 261 689 l 394 689 l 394 596 l 261 596 l 261 192 q 272 121 261 139 q 332 103 282 103 l 394 103 l 394 0 l 307 0 m 333 763 q 339 798 335 769 q 349 863 343 826 q 360 932 354 900 q 369 976 365 964 q 384 1002 372 988 q 419 1017 396 1017 q 457 1002 442 1017 q 472 964 472 988 q 467 943 472 956 q 460 921 463 931 l 401 763 l 333 763 z "},"Ņ":{"ha":957,"x_min":106,"x_max":851,"o":"m 106 0 l 106 928 l 299 928 l 721 139 l 721 928 l 851 928 l 851 0 l 660 0 l 236 793 l 236 0 l 106 0 m 363 -347 l 307 -300 q 360 -294 329 -300 q 414 -267 390 -287 q 438 -204 438 -247 q 422 -152 438 -176 q 368 -114 407 -128 l 451 -78 q 511 -133 493 -100 q 529 -199 529 -165 q 483 -306 529 -264 q 363 -347 436 -347 z "},"ņ":{"ha":758,"x_min":97,"x_max":664,"o":"m 97 0 l 97 689 l 183 689 l 214 585 q 296 667 243 633 q 436 700 349 700 q 613 627 561 700 q 664 436 664 554 l 664 0 l 547 0 l 547 401 q 538 499 547 454 q 495 572 528 544 q 396 600 463 600 q 263 542 311 600 q 214 374 214 485 l 214 0 l 97 0 m 288 -347 l 232 -300 q 285 -294 254 -300 q 339 -267 315 -287 q 363 -204 363 -247 q 347 -152 363 -176 q 293 -114 332 -128 l 376 -78 q 436 -133 418 -100 q 454 -199 454 -165 q 408 -306 454 -264 q 288 -347 361 -347 z "},"Ŕ":{"ha":858,"x_min":106,"x_max":817,"o":"m 106 0 l 106 928 l 400 928 q 601 908 514 928 q 737 830 688 888 q 786 661 786 772 q 767 544 786 599 q 692 453 747 490 q 529 400 638 415 l 817 0 l 657 0 l 375 390 l 236 390 l 236 0 l 106 0 m 236 500 l 410 500 q 533 510 478 500 q 620 553 588 519 q 653 658 653 588 q 620 764 653 731 q 533 808 588 797 q 410 818 478 818 l 236 818 l 236 500 m 340 1033 q 365 1058 344 1038 q 410 1106 385 1079 q 458 1154 436 1132 q 489 1183 481 1176 q 529 1200 508 1200 q 565 1185 550 1200 q 579 1150 579 1171 q 557 1106 579 1124 q 520 1079 546 1096 q 472 1049 494 1063 q 446 1033 450 1036 l 340 1033 z "},"ŕ":{"ha":472,"x_min":97,"x_max":465,"o":"m 97 0 l 97 689 l 182 689 l 219 561 q 317 662 256 624 q 465 700 379 700 l 465 579 q 445 579 456 579 q 425 578 435 579 q 260 496 307 568 q 214 296 214 424 l 214 0 l 97 0 m 211 793 q 233 822 215 799 q 272 874 250 844 q 315 928 294 903 q 344 964 335 954 q 383 982 358 982 q 421 967 406 982 q 436 929 436 953 q 433 910 436 919 q 418 890 429 901 q 383 857 408 879 q 335 816 358 835 q 308 793 313 797 l 211 793 z "},"Ř":{"ha":858,"x_min":106,"x_max":817,"o":"m 106 0 l 106 928 l 400 928 q 601 908 514 928 q 737 830 688 888 q 786 661 786 772 q 767 544 786 599 q 692 453 747 490 q 529 400 638 415 l 817 0 l 657 0 l 375 390 l 236 390 l 236 0 l 106 0 m 236 500 l 410 500 q 533 510 478 500 q 620 553 588 519 q 653 658 653 588 q 620 764 653 731 q 533 808 588 797 q 410 818 478 818 l 236 818 l 236 500 m 421 1029 q 351 1056 379 1029 l 196 1196 l 326 1196 l 419 1111 l 514 1196 l 644 1196 l 489 1056 q 421 1029 461 1029 z "},"ř":{"ha":472,"x_min":51,"x_max":500,"o":"m 97 0 l 97 689 l 182 689 l 219 561 q 317 662 256 624 q 465 700 379 700 l 465 579 q 445 579 456 579 q 425 578 435 579 q 260 496 307 568 q 214 296 214 424 l 214 0 l 97 0 m 276 790 q 207 817 235 790 l 51 957 l 182 957 l 275 872 l 369 957 l 500 957 l 344 817 q 276 790 317 790 z "},"Đ":{"ha":989,"x_min":28,"x_max":919,"o":"m 160 0 l 160 421 l 28 421 l 28 532 l 160 532 l 160 928 l 413 928 q 616 905 524 928 q 776 829 708 882 q 882 687 844 776 q 919 465 919 597 q 882 242 919 332 q 776 99 844 153 q 616 23 708 46 q 413 0 524 0 l 160 0 m 290 110 l 410 110 q 549 122 482 110 q 670 169 617 133 q 755 276 724 204 q 786 465 786 347 q 755 653 786 583 q 670 759 724 724 q 549 806 617 794 q 410 818 482 818 l 290 818 l 290 532 l 485 532 l 485 421 l 290 421 l 290 110 z "},"đ":{"ha":838,"x_min":53,"x_max":803,"o":"m 349 -17 q 203 26 271 -17 q 94 148 135 68 q 53 342 53 228 q 94 535 53 456 q 203 658 135 615 q 349 700 271 700 q 486 667 431 700 q 572 581 542 635 l 572 761 l 346 761 l 346 854 l 572 854 l 572 928 l 689 928 l 689 854 l 803 854 l 803 761 l 689 761 l 689 260 q 692 158 689 225 q 713 0 694 90 l 603 0 l 572 104 q 486 16 542 49 q 349 -17 431 -17 m 379 83 q 522 151 468 83 q 575 342 575 219 q 522 533 575 465 q 379 600 468 600 q 237 533 290 600 q 183 342 183 465 q 237 151 183 219 q 379 83 290 83 z "},"Ď":{"ha":935,"x_min":106,"x_max":865,"o":"m 106 0 l 106 928 l 358 928 q 562 905 469 928 q 722 829 654 882 q 828 687 790 776 q 865 465 865 597 q 828 242 865 332 q 722 99 790 153 q 562 23 654 46 q 358 0 469 0 l 106 0 m 236 110 l 356 110 q 495 122 428 110 q 616 169 563 133 q 701 276 669 204 q 732 465 732 347 q 701 653 732 583 q 616 759 669 724 q 495 806 563 794 q 356 818 428 818 l 236 818 l 236 110 m 454 1029 q 385 1056 413 1029 l 229 1196 l 360 1196 l 453 1111 l 547 1196 l 678 1196 l 522 1056 q 454 1029 494 1029 z "},"ď":{"ha":796,"x_min":53,"x_max":890,"o":"m 349 -17 q 203 26 271 -17 q 94 148 135 68 q 53 342 53 228 q 94 535 53 456 q 203 658 135 615 q 349 700 271 700 q 486 667 431 700 q 572 581 542 635 l 572 928 l 689 928 l 689 260 q 692 158 689 225 q 713 0 694 90 l 603 0 l 572 104 q 486 16 542 49 q 349 -17 431 -17 m 379 83 q 522 151 468 83 q 575 342 575 219 q 522 533 575 465 q 379 600 468 600 q 237 533 290 600 q 183 342 183 465 q 237 151 183 219 q 379 83 290 83 m 751 686 q 757 722 753 693 q 767 787 761 750 q 778 856 772 824 q 788 900 783 888 q 802 926 790 911 q 838 940 814 940 q 875 926 860 940 q 890 888 890 911 q 885 867 890 879 q 878 844 881 854 l 819 686 l 751 686 z "},"Ķ":{"ha":871,"x_min":106,"x_max":857,"o":"m 106 0 l 106 928 l 236 928 l 236 461 l 654 928 l 817 928 l 463 540 l 857 0 l 697 0 l 375 444 l 236 292 l 236 0 l 106 0 m 367 -347 l 311 -300 q 364 -294 333 -300 q 418 -267 394 -287 q 442 -204 442 -247 q 426 -152 442 -176 q 372 -114 411 -128 l 456 -78 q 515 -133 497 -100 q 533 -199 533 -165 q 487 -306 533 -264 q 367 -347 440 -347 z "},"ķ":{"ha":681,"x_min":97,"x_max":667,"o":"m 97 0 l 97 928 l 214 928 l 214 379 l 492 689 l 632 689 l 372 404 l 667 0 l 524 0 l 294 318 l 214 231 l 214 0 l 97 0 m 279 -347 l 224 -300 q 276 -294 246 -300 q 331 -267 307 -287 q 354 -204 354 -247 q 339 -152 354 -176 q 285 -114 324 -128 l 368 -78 q 428 -133 410 -100 q 446 -199 446 -165 q 399 -306 446 -264 q 279 -347 353 -347 z "},"Ģ":{"ha":986,"x_min":69,"x_max":892,"o":"m 489 -17 q 262 45 356 -17 q 119 215 168 107 q 69 465 69 324 q 123 717 69 610 q 274 885 176 825 q 501 944 371 944 q 712 890 618 944 q 854 735 806 836 l 739 693 q 647 795 708 756 q 494 835 585 835 q 347 793 413 835 q 242 669 281 751 q 203 465 203 586 q 240 265 203 349 q 342 138 276 182 q 494 93 408 93 q 589 104 540 93 q 678 142 638 115 q 743 217 718 169 q 768 336 768 264 l 768 367 l 497 367 l 497 479 l 892 479 l 892 0 l 817 0 l 782 117 q 660 15 738 46 q 489 -17 583 -17 m 424 -347 l 368 -300 q 421 -294 390 -300 q 475 -267 451 -287 q 499 -204 499 -247 q 483 -152 499 -176 q 429 -114 468 -128 l 513 -78 q 572 -133 554 -100 q 590 -199 590 -165 q 544 -306 590 -264 q 424 -347 497 -347 z "},"Č":{"ha":911,"x_min":69,"x_max":858,"o":"m 490 -17 q 264 45 358 -17 q 119 215 169 107 q 69 465 69 324 q 123 717 69 610 q 274 885 176 825 q 501 944 371 944 q 712 890 618 944 q 853 735 806 836 l 739 693 q 647 795 708 756 q 494 835 585 835 q 347 793 413 835 q 242 669 281 751 q 203 465 203 586 q 240 265 203 349 q 345 138 278 182 q 499 93 413 93 q 651 132 589 93 q 744 235 713 171 l 858 193 q 711 37 808 90 q 490 -17 614 -17 m 490 1029 q 421 1056 449 1029 l 265 1196 l 396 1196 l 489 1111 l 583 1196 l 714 1196 l 558 1056 q 490 1029 531 1029 z "},"č":{"ha":694,"x_min":53,"x_max":649,"o":"m 374 -17 q 203 30 275 -17 q 92 157 131 76 q 53 342 53 238 q 94 526 53 444 q 210 653 135 607 q 386 700 285 700 q 546 654 479 700 q 646 544 613 608 l 539 506 q 474 572 517 547 q 378 597 431 597 q 281 570 326 597 q 207 487 235 543 q 179 343 179 431 q 208 199 179 257 q 281 114 236 142 q 378 86 326 86 q 477 112 435 86 q 542 176 519 138 l 649 138 q 538 27 610 71 q 374 -17 465 -17 m 382 790 q 313 817 340 790 l 157 957 l 288 957 l 381 872 l 475 957 l 606 957 l 450 817 q 382 790 422 790 z "},"Ş":{"ha":828,"x_min":56,"x_max":772,"o":"m 411 -17 q 263 7 335 -17 q 135 79 190 31 q 56 203 81 128 l 176 239 q 231 156 193 189 q 317 108 268 124 q 417 93 367 93 q 522 111 472 93 q 603 166 572 129 q 635 258 635 203 q 593 349 635 315 q 449 408 551 382 l 331 435 q 205 479 267 451 q 103 558 143 507 q 64 696 64 610 q 113 831 64 775 q 241 915 163 886 q 404 944 319 944 q 533 926 469 944 q 647 869 596 907 q 726 771 697 831 l 607 736 q 522 810 581 785 q 399 835 463 835 q 303 819 349 835 q 228 771 257 803 q 199 690 199 739 q 226 617 199 644 q 298 573 253 589 q 397 544 343 557 l 499 522 q 632 476 569 506 q 733 394 694 447 q 772 253 772 342 q 742 138 772 189 q 660 53 711 88 q 544 1 608 19 q 411 -17 479 -17 m 413 -251 q 356 -244 386 -251 q 290 -224 326 -237 l 310 -175 q 353 -190 333 -185 q 390 -194 374 -194 q 444 -179 426 -194 q 461 -147 461 -164 q 449 -123 461 -133 q 411 -112 438 -112 q 391 -115 401 -112 q 368 -119 381 -117 q 340 -115 350 -125 q 329 -93 329 -106 q 333 -79 329 -85 l 404 35 l 451 6 l 410 -62 q 431 -58 421 -60 q 451 -57 442 -57 q 524 -83 500 -57 q 547 -142 547 -108 q 514 -216 547 -181 q 413 -251 481 -251 z "},"ş":{"ha":654,"x_min":43,"x_max":613,"o":"m 332 -17 q 215 2 272 -17 q 112 59 157 21 q 43 156 67 97 l 156 197 q 223 109 171 136 q 332 82 275 82 q 410 94 374 82 q 471 131 447 107 q 494 185 494 154 q 449 265 494 242 q 342 301 404 289 l 246 321 q 153 352 196 332 q 83 410 110 372 q 57 510 57 447 q 96 615 57 572 q 195 679 135 657 q 322 701 256 701 q 477 667 404 701 q 581 561 550 633 l 471 521 q 408 583 453 563 q 314 603 363 603 q 218 579 261 603 q 175 511 175 556 q 212 447 175 467 q 303 415 249 426 l 393 397 q 499 365 449 386 q 581 303 549 344 q 613 189 613 263 q 572 78 613 124 q 468 8 532 32 q 332 -17 404 -17 m 318 -251 q 262 -244 292 -251 q 196 -224 232 -237 l 215 -175 q 259 -190 239 -185 q 296 -194 279 -194 q 349 -179 332 -194 q 367 -147 367 -164 q 355 -123 367 -133 q 317 -112 343 -112 q 297 -115 307 -112 q 274 -119 286 -117 q 245 -115 256 -125 q 235 -93 235 -106 q 239 -79 235 -85 l 310 35 l 357 6 l 315 -62 q 337 -58 326 -60 q 357 -57 347 -57 q 429 -83 406 -57 q 453 -142 453 -108 q 419 -216 453 -181 q 318 -251 386 -251 z "},"Ș":{"ha":828,"x_min":56,"x_max":772,"o":"m 411 -17 q 263 7 335 -17 q 135 79 190 31 q 56 203 81 128 l 176 239 q 231 156 193 189 q 317 108 268 124 q 417 93 367 93 q 522 111 472 93 q 603 166 572 129 q 635 258 635 203 q 593 349 635 315 q 449 408 551 382 l 331 435 q 205 479 267 451 q 103 558 143 507 q 64 696 64 610 q 113 831 64 775 q 241 915 163 886 q 404 944 319 944 q 533 926 469 944 q 647 869 596 907 q 726 771 697 831 l 607 736 q 522 810 581 785 q 399 835 463 835 q 303 819 349 835 q 228 771 257 803 q 199 690 199 739 q 226 617 199 644 q 298 573 253 589 q 397 544 343 557 l 499 522 q 632 476 569 506 q 733 394 694 447 q 772 253 772 342 q 742 138 772 189 q 660 53 711 88 q 544 1 608 19 q 411 -17 479 -17 m 344 -347 l 289 -300 q 342 -294 311 -300 q 396 -267 372 -287 q 419 -204 419 -247 q 404 -152 419 -176 q 350 -114 389 -128 l 433 -78 q 493 -133 475 -100 q 511 -199 511 -165 q 465 -306 511 -264 q 344 -347 418 -347 z "},"Ţ":{"ha":775,"x_min":14,"x_max":761,"o":"m 322 0 l 322 815 l 14 815 l 14 928 l 761 928 l 761 815 l 453 815 l 453 0 l 322 0 m 318 -347 l 263 -300 q 315 -294 285 -300 q 369 -267 346 -287 q 393 -204 393 -247 q 378 -152 393 -176 q 324 -114 363 -128 l 407 -78 q 467 -133 449 -100 q 485 -199 485 -165 q 438 -306 485 -264 q 318 -347 392 -347 z "},"Ț":{"ha":775,"x_min":14,"x_max":761,"o":"m 322 0 l 322 815 l 14 815 l 14 928 l 761 928 l 761 815 l 453 815 l 453 0 l 322 0 m 318 -347 l 263 -300 q 315 -294 285 -300 q 369 -267 346 -287 q 393 -204 393 -247 q 378 -152 393 -176 q 324 -114 363 -128 l 407 -78 q 467 -133 449 -100 q 485 -199 485 -165 q 438 -306 485 -264 q 318 -347 392 -347 z "},"́":{"ha":0,"x_min":0,"x_max":225,"o":"m 0 793 q 22 822 4 799 q 61 874 39 844 q 103 928 83 903 q 133 964 124 954 q 172 982 147 982 q 210 967 194 982 q 225 929 225 953 q 222 910 225 919 q 207 890 218 901 q 172 857 197 879 q 124 816 147 835 q 97 793 101 797 l 0 793 z "},"̆":{"ha":0,"x_min":0,"x_max":408,"o":"m 204 790 q 72 838 128 790 q 0 957 15 886 l 96 957 q 138 904 108 925 q 204 883 167 883 q 269 904 240 883 q 313 957 299 925 l 408 957 q 337 838 394 886 q 204 790 279 790 z "},"̌":{"ha":0,"x_min":0,"x_max":449,"o":"m 225 790 q 156 817 183 790 l 0 957 l 131 957 l 224 872 l 318 957 l 449 957 l 293 817 q 225 790 265 790 z "},"̧":{"ha":0,"x_min":0,"x_max":257,"o":"m 122 -251 q 66 -244 96 -251 q 0 -224 36 -237 l 19 -175 q 63 -190 43 -185 q 100 -194 83 -194 q 153 -179 136 -194 q 171 -147 171 -164 q 159 -123 171 -133 q 121 -112 147 -112 q 101 -115 111 -112 q 78 -119 90 -117 q 49 -115 60 -125 q 39 -93 39 -106 q 43 -79 39 -85 l 114 35 l 161 6 l 119 -62 q 141 -58 131 -60 q 161 -57 151 -57 q 233 -83 210 -57 q 257 -142 257 -108 q 224 -216 257 -181 q 122 -251 190 -251 z "},"̂":{"ha":0,"x_min":0,"x_max":449,"o":"m 0 799 l 156 939 q 225 965 183 965 q 293 939 265 965 l 449 799 l 318 799 l 224 883 l 131 799 l 0 799 z "},"̦":{"ha":0,"x_min":0,"x_max":222,"o":"m 56 -347 l 0 -300 q 53 -294 22 -300 q 107 -267 83 -287 q 131 -204 131 -247 q 115 -152 131 -176 q 61 -114 100 -128 l 144 -78 q 204 -133 186 -100 q 222 -199 222 -165 q 176 -306 222 -264 q 56 -347 129 -347 z "},"̈":{"ha":0,"x_min":0,"x_max":443,"o":"m 75 819 q 22 842 44 819 q 0 894 0 864 q 22 947 0 925 q 75 968 44 968 q 128 947 107 968 q 150 894 150 925 q 128 842 150 864 q 75 819 107 819 m 368 819 q 316 842 338 819 q 294 894 294 864 q 316 947 294 925 q 368 968 338 968 q 422 947 400 968 q 443 894 443 925 q 422 842 443 864 q 368 819 400 819 z "},"̇":{"ha":0,"x_min":0,"x_max":150,"o":"m 75 819 q 22 842 44 819 q 0 894 0 864 q 22 948 0 926 q 75 969 44 969 q 128 948 107 969 q 150 894 150 926 q 128 842 150 864 q 75 819 107 819 z "},"€":{"ha":922,"x_min":21,"x_max":869,"o":"m 528 -17 q 274 79 372 -17 q 147 333 176 175 l 21 333 l 60 404 l 139 404 q 138 440 139 415 q 138 489 138 464 q 139 524 139 514 l 21 524 l 60 594 l 147 594 q 281 850 178 756 q 538 944 383 944 q 733 890 646 944 q 865 733 819 835 l 757 694 q 672 796 728 757 q 531 835 615 835 q 369 774 439 835 q 274 594 300 713 l 619 594 l 581 524 l 263 524 q 262 489 263 514 q 262 440 261 464 q 263 404 263 415 l 515 404 l 476 333 l 274 333 q 370 156 301 219 q 535 93 439 93 q 675 131 618 93 q 763 232 732 169 l 869 193 q 733 37 822 90 q 528 -17 643 -17 z "},"⁴":{"ha":572,"x_min":56,"x_max":497,"o":"m 313 560 l 313 679 l 56 679 l 56 754 l 314 1082 l 407 1082 l 407 758 l 497 758 l 497 679 l 407 679 l 407 560 l 313 560 m 157 758 l 313 758 l 313 961 l 157 758 z "},"̀":{"ha":0,"x_min":0,"x_max":225,"o":"m 128 793 q 72 840 101 815 q 24 883 43 864 q 5 909 10 899 q 0 929 0 919 q 15 967 0 951 q 53 982 31 982 q 75 978 64 982 q 96 961 86 974 l 225 793 l 128 793 z "},"̋":{"ha":0,"x_min":0,"x_max":428,"o":"m 0 794 l 133 965 q 172 983 147 983 q 210 968 194 983 q 225 931 225 953 q 222 911 225 921 q 210 893 219 901 l 97 794 l 0 794 m 203 794 l 336 965 q 375 983 350 983 q 412 967 396 983 q 428 931 428 951 q 425 911 428 921 q 413 893 422 901 l 300 794 l 203 794 z "},"ı":{"ha":386,"x_min":63,"x_max":275,"o":"m 158 0 l 158 596 l 63 596 l 63 689 l 275 689 l 275 0 l 158 0 z "},"̄":{"ha":0,"x_min":0,"x_max":383,"o":"m 0 835 l 0 928 l 383 928 l 383 835 l 0 835 z "},"µ":{"ha":771,"x_min":97,"x_max":750,"o":"m 97 -225 l 97 689 l 214 689 l 214 275 q 251 128 214 171 q 361 85 289 85 q 483 141 432 85 q 535 328 535 197 l 535 689 l 651 689 l 651 169 q 665 117 651 131 q 708 104 679 104 q 733 107 724 104 q 750 111 742 110 l 750 10 q 718 3 738 7 q 667 0 699 0 q 586 28 618 0 q 542 101 554 56 q 461 17 513 49 q 332 -15 410 -15 q 249 -1 283 -15 q 193 33 215 13 q 207 -37 200 0 q 214 -110 214 -74 l 214 -225 l 97 -225 z "},"̨":{"ha":0,"x_min":0,"x_max":218,"o":"m 131 -240 q 34 -206 68 -240 q 0 -126 0 -171 q 30 -48 0 -83 q 111 0 60 -12 l 218 0 q 122 -52 147 -26 q 97 -104 97 -78 q 117 -146 97 -132 q 165 -160 136 -160 q 191 -157 178 -160 q 218 -149 204 -154 l 218 -224 q 131 -240 171 -240 z "},"̊":{"ha":0,"x_min":0,"x_max":303,"o":"m 154 776 q 76 797 111 776 q 21 853 42 818 q 0 928 0 888 q 21 1003 0 969 q 76 1058 42 1038 q 154 1079 111 1079 q 260 1034 218 1079 q 303 928 303 989 q 260 822 303 867 q 154 776 218 776 m 151 857 q 203 878 182 857 q 224 928 224 899 q 203 978 224 957 q 151 999 182 999 q 100 978 121 999 q 79 928 79 957 q 100 878 79 899 q 151 857 121 857 z "},"ș":{"ha":654,"x_min":43,"x_max":613,"o":"m 332 -17 q 215 2 272 -17 q 112 59 157 21 q 43 156 67 97 l 156 197 q 223 109 171 136 q 332 82 275 82 q 410 94 374 82 q 471 131 447 107 q 494 185 494 154 q 449 265 494 242 q 342 301 404 289 l 246 321 q 153 352 196 332 q 83 410 110 372 q 57 510 57 447 q 96 615 57 572 q 195 679 135 657 q 322 701 256 701 q 477 667 404 701 q 581 561 550 633 l 471 521 q 408 583 453 563 q 314 603 363 603 q 218 579 261 603 q 175 511 175 556 q 212 447 175 467 q 303 415 249 426 l 393 397 q 499 365 449 386 q 581 303 549 344 q 613 189 613 263 q 572 78 613 124 q 468 8 532 32 q 332 -17 404 -17 m 250 -347 l 194 -300 q 247 -294 217 -300 q 301 -267 278 -287 q 325 -204 325 -247 q 310 -152 325 -176 q 256 -114 294 -128 l 339 -78 q 399 -133 381 -100 q 417 -199 417 -165 q 370 -306 417 -264 q 250 -347 324 -347 z "},"­":{"ha":483,"x_min":53,"x_max":431,"o":"m 53 289 l 53 401 l 431 401 l 431 289 l 53 289 z "},"ţ":{"ha":450,"x_min":28,"x_max":394,"o":"m 307 0 q 206 13 242 0 q 158 64 171 26 q 144 172 144 101 l 144 596 l 28 596 l 28 689 l 144 689 l 144 863 l 261 863 l 261 689 l 394 689 l 394 596 l 261 596 l 261 192 q 272 121 261 139 q 332 103 282 103 l 394 103 l 394 0 l 307 0 m 185 -347 l 129 -300 q 182 -294 151 -300 q 236 -267 213 -287 q 260 -204 260 -247 q 244 -152 260 -176 q 190 -114 229 -128 l 274 -78 q 333 -133 315 -100 q 351 -199 351 -165 q 305 -306 351 -264 q 185 -347 258 -347 z "},"ț":{"ha":450,"x_min":28,"x_max":394,"o":"m 307 0 q 206 13 242 0 q 158 64 171 26 q 144 172 144 101 l 144 596 l 28 596 l 28 689 l 144 689 l 144 863 l 261 863 l 261 689 l 394 689 l 394 596 l 261 596 l 261 192 q 272 121 261 139 q 332 103 282 103 l 394 103 l 394 0 l 307 0 m 185 -347 l 129 -300 q 182 -294 151 -300 q 236 -267 213 -287 q 260 -204 260 -247 q 244 -152 260 -176 q 190 -114 229 -128 l 274 -78 q 333 -133 315 -100 q 351 -199 351 -165 q 305 -306 351 -264 q 185 -347 258 -347 z "},"̃":{"ha":0,"x_min":0,"x_max":457,"o":"m 322 799 q 278 806 300 799 q 228 828 256 814 q 188 849 207 839 q 149 858 169 858 q 90 801 97 858 l 0 801 q 52 910 13 875 q 147 946 92 946 q 214 931 186 946 q 266 901 242 917 q 319 886 290 886 q 352 894 340 886 q 374 918 364 903 q 393 939 382 933 q 414 944 404 944 q 445 931 433 944 q 457 901 457 918 q 439 857 457 881 q 390 816 421 833 q 322 799 360 799 z "}}}
